<?xml version="1.0" encoding="utf-8"?>
<!-- Generator: Adobe Illustrator 21.1.0, SVG Export Plug-In . SVG Version: 6.00 Build 0)  -->
<!DOCTYPE svg PUBLIC "-//W3C//DTD SVG 1.1//EN" "http://www.w3.org/Graphics/SVG/1.1/DTD/svg11.dtd">
<svg version="1.1" id="Layer_1" xmlns="http://www.w3.org/2000/svg" xmlns:xlink="http://www.w3.org/1999/xlink" x="0px" y="0px"
	 viewBox="0 0 99.2 99.2" style="enable-background:new 0 0 99.2 99.2;" xml:space="preserve">
<style type="text/css">
	.st0{fill:#E7731F;}
	.st1{fill:#F58220;}
	.st2{fill:#FFFFFF;}
</style>
<g id="ALL-MTN">
	<g>
		<g>
			<path class="st0" d="M89.8,43.1l0.6,0.2l1,1.5l5.2,1.4l-4.4-11.6l-6.2-3.1c-0.3-0.6-0.6-1.1-0.9-1.7l-4.6-1.6
				c-0.2,0.2-0.4,0.3-0.7,0.2c-0.3-0.1-0.5-0.5-0.4-0.8c0.1-0.3,0.5-0.5,0.8-0.4c0.2,0.1,0.4,0.3,0.4,0.6c0,0,4.1,1.3,4.1,1.2
				l0.6-0.1l1.5,1l5.3-0.6l-8.3-9.2l-7-0.7c-0.7-0.6-1.4-1.2-2.1-1.7l0.6-0.3l1.7,0.4l4.7-2.4L70.6,9.8l-6.7,1.9
				c-0.8-0.3-1.7-0.6-2.6-0.9l0.4-0.5l1.8-0.2l3.5-4L54.7,4.9l-5.6,4.2c-0.9,0-1.8,0-2.7,0.1l0.2-0.6l1.6-0.9l1.9-5l-12,3.3L34.4,12
				c-0.8,0.3-1.7,0.7-2.5,1.1l0-0.6l1.1-1.4L33,5.8L23,13.2l-1.3,6.9c-0.7,0.6-1.3,1.3-1.9,1.9l-0.3-0.6l0.6-1.7l-2-4.9l-6.6,10.5
				l1.3,6.9c-0.3,0.7-0.7,1.4-1,2.2l1.3,3.8c0.3,0,0.5,0.2,0.6,0.4c0.1,0.3-0.1,0.7-0.4,0.7c-0.3,0.1-0.7-0.1-0.7-0.4
				c-0.1-0.2,0-0.5,0.2-0.7l-1.5-4.1l-0.1-1.8l-3.6-3.9L5.2,40.6l3.7,5.9c-0.1,0.9-0.1,1.8-0.1,2.7L8.1,49l-0.7-1.6l-4.8-2.3
				l2.2,12.2l5.6,4.2c0.3,0.9,0.5,1.7,0.9,2.6l-0.7,0l-1.3-1.3L4,62.3l6.5,10.6l6.7,1.9c0.6,0.7,1.1,1.4,1.7,2.1l-0.6,0.2l-1.6-0.7
				L11.6,78l9.9,7.5l7-0.6c0.8,0.5,1.6,0.9,2.4,1.3l-0.5,0.4l-1.8-0.1l-4.2,3.3l11.9,3.5l6.2-3.1c0.7,0.1,1.4,0.2,2.1,0.3l3.7-2.6
				c-0.1-0.2,0-0.5,0.2-0.7c0.3-0.2,0.6-0.1,0.8,0.2c0.2,0.3,0.1,0.6-0.2,0.8c-0.2,0.1-0.5,0.1-0.7,0c0,0-3.3,2.3-3.3,2.3l-0.3,0.6
				l-1.7,0.6l-2.7,4.6l12.4-1.1l4.7-5.2c0.9-0.2,1.8-0.4,2.6-0.6L60,90l-1.4,1.1l-0.9,5.3l11.1-5.5l2.5-6.5c0.8-0.5,1.5-1,2.2-1.5
				l0.1,0.6l-0.9,1.6l1.1,5.2l8.4-9.1l0-7c0.5-0.7,1-1.5,1.5-2.2l0.4,0.6L84,74.3l2.9,4.5l4.5-11.6l-2.5-6.5
				c0.2-0.9,0.4-1.7,0.6-2.6l0.5,0.4l0.4,1.7l4.3,3.2l0.1-12.4l-4.7-5.2C90,44.9,89.9,44,89.8,43.1z"/>
		</g>
	</g>
	<g>
		<g>
			<circle class="st1" cx="49.4" cy="50" r="35"/>
			<path class="st2" d="M49.4,85.4c-9.5,0-18.3-3.7-25-10.4C17.6,68.3,14,59.4,14,50s3.7-18.3,10.4-25c6.7-6.7,15.6-10.4,25-10.4
				s18.3,3.7,25,10.4c6.7,6.7,10.4,15.6,10.4,25c0,9.5-3.7,18.3-10.4,25C67.7,81.7,58.8,85.4,49.4,85.4z M49.4,15.5
				c-9.2,0-17.9,3.6-24.4,10.1S14.9,40.7,14.9,50S18.4,67.8,25,74.4c6.5,6.5,15.2,10.1,24.4,10.1c9.2,0,17.9-3.6,24.4-10.1
				c6.5-6.5,10.1-15.2,10.1-24.4s-3.6-17.9-10.1-24.4C67.2,19,58.6,15.5,49.4,15.5z"/>
		</g>
		<g>
			<g>
				<path class="st2" d="M21,39.5l1.8,0.6l-0.2,0.5l-1.8-0.6l-0.2,0.6l-0.5-0.2l0.6-1.8l0.5,0.2L21,39.5z"/>
			</g>
			<g>
				<path class="st2" d="M24,37.4l-1.1,0.1l-0.1,0.2l0.9,0.4l-0.2,0.5l-2.2-1l0.4-0.8c0-0.1,0.1-0.2,0.2-0.3
					c0.1-0.1,0.1-0.2,0.2-0.2c0.1-0.1,0.2-0.1,0.3-0.1c0.1,0,0.2,0,0.3,0.1c0.1,0.1,0.3,0.2,0.3,0.3c0.1,0.1,0.1,0.3,0.1,0.4
					l1.2-0.1L24,37.4z M22.5,36.7c-0.1,0-0.1,0-0.1,0c0,0-0.1,0-0.1,0c0,0-0.1,0.1-0.1,0.1c0,0,0,0.1-0.1,0.1L22,37.2l0.5,0.2
					l0.1-0.2c0,0,0-0.1,0.1-0.1c0,0,0-0.1,0-0.1c0,0,0-0.1,0-0.1C22.6,36.8,22.5,36.7,22.5,36.7z"/>
			</g>
			<g>
				<path class="st2" d="M25.6,34.4l-0.5-0.1l-0.5,0.8l0.3,0.4l-0.3,0.5L23.1,34l0.3-0.5l2.6,0.4L25.6,34.4z M23.8,34.1l0.5,0.7
					l0.3-0.5L23.8,34.1z"/>
			</g>
			<g>
				<path class="st2" d="M27.5,31.9l-1.8-0.2l0,0l1.2,1l-0.3,0.4l-1.9-1.5l0.4-0.5l1.8,0.2l0,0l-1.2-1l0.3-0.4l1.9,1.5L27.5,31.9z"
					/>
			</g>
			<g>
				<path class="st2" d="M28.4,28.3c-0.1,0-0.2,0-0.2,0c-0.1,0-0.1,0.1-0.2,0.1c0,0-0.1,0.1-0.1,0.1c0,0,0,0.1,0,0.1
					c0,0,0,0.1,0,0.1c0,0,0,0.1,0.1,0.1c0,0,0.1,0,0.1,0.1c0,0,0.1,0,0.1,0c0,0,0.1,0,0.1,0c0,0,0.1,0,0.1-0.1
					c0.1,0,0.2-0.1,0.2-0.1c0.1,0,0.2-0.1,0.3-0.1c0.1,0,0.2,0,0.3,0c0.1,0,0.2,0.1,0.3,0.2c0.1,0.1,0.2,0.2,0.2,0.3
					c0,0.1,0,0.2,0,0.3c0,0.1,0,0.2-0.1,0.3c-0.1,0.1-0.1,0.2-0.2,0.3c-0.1,0.1-0.3,0.2-0.4,0.3c-0.2,0.1-0.3,0.1-0.5,0.1l0-0.5
					c0.1,0,0.2,0,0.3,0c0.1,0,0.2-0.1,0.3-0.2c0,0,0.1-0.1,0.1-0.1c0,0,0-0.1,0-0.1c0,0,0-0.1,0-0.1c0,0,0-0.1-0.1-0.1
					c0,0-0.1-0.1-0.1-0.1c0,0-0.1,0-0.1,0c0,0-0.1,0-0.2,0.1c-0.1,0-0.1,0.1-0.2,0.1c-0.1,0-0.1,0.1-0.2,0.1s-0.2,0-0.2,0
					c-0.1,0-0.2,0-0.2,0c-0.1,0-0.2-0.1-0.2-0.2c-0.1-0.1-0.2-0.2-0.2-0.3c0-0.1,0-0.2,0-0.3c0-0.1,0.1-0.2,0.1-0.3
					c0.1-0.1,0.1-0.2,0.2-0.3c0.1-0.1,0.2-0.2,0.3-0.2c0.1-0.1,0.3-0.1,0.4-0.1L28.4,28.3z"/>
			</g>
			<g>
				<path class="st2" d="M32.7,26.9l-0.4,0.4l-1.4-1l0,0l0.6,1.6L31,28.2l-2-1.4l0.5-0.4l1.3,1l0,0l-0.7-1.5l0.5-0.4l1.3,1l0,0
					L31.2,25l0.5-0.4L32.7,26.9z"/>
			</g>
			<g>
				<path class="st2" d="M35.6,23.6c0.1,0.2,0.2,0.3,0.2,0.5c0,0.2,0,0.3,0,0.5c0,0.2-0.1,0.3-0.2,0.4c-0.1,0.1-0.2,0.2-0.4,0.3
					c-0.2,0.1-0.3,0.2-0.5,0.2c-0.2,0-0.3,0-0.5,0c-0.2,0-0.3-0.1-0.4-0.2c-0.1-0.1-0.3-0.2-0.4-0.4c-0.1-0.2-0.2-0.3-0.2-0.5
					c0-0.2,0-0.3,0-0.5s0.1-0.3,0.2-0.4c0.1-0.1,0.2-0.2,0.4-0.3c0.2-0.1,0.3-0.2,0.5-0.2c0.2,0,0.3,0,0.5,0c0.2,0,0.3,0.1,0.4,0.2
					C35.3,23.3,35.5,23.4,35.6,23.6z M35,23.9c-0.1-0.1-0.1-0.2-0.2-0.2c-0.1-0.1-0.2-0.1-0.2-0.1c-0.1,0-0.2,0-0.3,0
					c-0.1,0-0.2,0-0.3,0.1c-0.1,0.1-0.2,0.1-0.2,0.2c-0.1,0.1-0.1,0.2-0.1,0.2c0,0.1,0,0.2,0,0.3c0,0.1,0.1,0.2,0.1,0.3
					c0.1,0.1,0.1,0.2,0.2,0.2c0.1,0.1,0.2,0.1,0.2,0.1c0.1,0,0.2,0,0.3,0c0.1,0,0.2,0,0.3-0.1c0.1-0.1,0.2-0.1,0.2-0.2
					c0.1-0.1,0.1-0.2,0.1-0.2c0-0.1,0-0.2,0-0.3S35.1,24,35,23.9z"/>
			</g>
			<g>
				<path class="st2" d="M38.4,23.6L37.5,23L37.3,23l0.4,0.9l-0.5,0.2l-1-2.2l0.8-0.4c0.1,0,0.2-0.1,0.3-0.1c0.1,0,0.2,0,0.3,0
					c0.1,0,0.2,0.1,0.3,0.1c0.1,0.1,0.2,0.2,0.2,0.3c0.1,0.1,0.1,0.3,0,0.4s-0.1,0.3-0.2,0.4l1,0.7L38.4,23.6z M37.7,22.1
					c0-0.1-0.1-0.1-0.1-0.1c0,0-0.1,0-0.1,0c0,0-0.1,0-0.1,0c0,0-0.1,0-0.1,0l-0.3,0.1l0.2,0.5l0.3-0.1c0,0,0.1,0,0.1-0.1
					c0,0,0.1-0.1,0.1-0.1c0,0,0-0.1,0.1-0.1C37.7,22.2,37.7,22.2,37.7,22.1z"/>
			</g>
			<g>
				<path class="st2" d="M40,23l-0.8-2.3l0.6-0.2l0.6,1.8l0.9-0.3l0.2,0.5L40,23z"/>
			</g>
			<g>
				<path class="st2" d="M44.4,20.5c0,0.2,0,0.4,0,0.6c0,0.2-0.1,0.3-0.2,0.4c-0.1,0.1-0.2,0.2-0.4,0.3c-0.1,0.1-0.3,0.1-0.5,0.2
					l-0.9,0.2L42,19.9l0.8-0.2c0.2,0,0.3-0.1,0.5,0c0.2,0,0.3,0,0.5,0.1c0.1,0.1,0.3,0.2,0.4,0.3C44.3,20.1,44.3,20.3,44.4,20.5z
					 M43.8,20.7c0-0.1-0.1-0.2-0.1-0.3c-0.1-0.1-0.1-0.1-0.2-0.2c-0.1,0-0.2-0.1-0.3-0.1c-0.1,0-0.2,0-0.3,0l-0.3,0.1l0.3,1.4
					l0.3-0.1c0.1,0,0.2-0.1,0.3-0.1c0.1,0,0.2-0.1,0.2-0.2c0.1-0.1,0.1-0.2,0.1-0.2C43.8,20.9,43.8,20.8,43.8,20.7z"/>
			</g>
			<g>
				<path class="st2" d="M48.6,19.5c-0.1-0.1-0.1-0.1-0.2-0.1c-0.1,0-0.2,0-0.2,0c0,0-0.1,0-0.1,0c0,0-0.1,0-0.1,0
					c0,0-0.1,0-0.1,0.1c0,0,0,0.1,0,0.1c0,0,0,0.1,0,0.1s0,0,0.1,0.1c0,0,0.1,0,0.1,0.1c0,0,0.1,0,0.2,0c0.1,0,0.2,0,0.3,0.1
					c0.1,0,0.2,0.1,0.2,0.1c0.1,0.1,0.1,0.1,0.2,0.2c0.1,0.1,0.1,0.2,0.1,0.3c0,0.1,0,0.3-0.1,0.4c0,0.1-0.1,0.2-0.2,0.3
					c-0.1,0.1-0.2,0.1-0.3,0.2c-0.1,0-0.2,0.1-0.3,0.1c-0.2,0-0.3,0-0.5-0.1s-0.3-0.1-0.4-0.2l0.4-0.4c0.1,0.1,0.1,0.1,0.2,0.2
					c0.1,0,0.2,0.1,0.3,0.1c0,0,0.1,0,0.1,0c0,0,0.1,0,0.1,0s0.1,0,0.1-0.1c0,0,0-0.1,0-0.1c0,0,0-0.1,0-0.1s-0.1-0.1-0.1-0.1
					c0,0-0.1,0-0.2-0.1c-0.1,0-0.1,0-0.2-0.1c-0.1,0-0.2,0-0.2-0.1c-0.1,0-0.1-0.1-0.2-0.1c-0.1-0.1-0.1-0.1-0.1-0.2
					c0-0.1-0.1-0.2-0.1-0.3c0-0.1,0-0.2,0.1-0.3c0-0.1,0.1-0.2,0.2-0.2c0.1-0.1,0.2-0.1,0.3-0.1c0.1,0,0.2-0.1,0.3-0.1
					c0.1,0,0.3,0,0.4,0.1c0.1,0,0.3,0.1,0.4,0.2L48.6,19.5z"/>
			</g>
			<g>
				<path class="st2" d="M51.7,21.4l-0.9-1.6l0,0l-0.1,1.6l-0.6,0l0.1-2.4l0.7,0l0.9,1.6l0,0L52,19l0.6,0l-0.1,2.4L51.7,21.4z"/>
			</g>
			<g>
				<path class="st2" d="M56.3,20.8c0,0.2-0.1,0.4-0.2,0.5c-0.1,0.1-0.2,0.3-0.3,0.3c-0.1,0.1-0.3,0.1-0.5,0.2c-0.2,0-0.3,0-0.5,0
					c-0.2,0-0.3-0.1-0.5-0.2c-0.1-0.1-0.3-0.2-0.4-0.3c-0.1-0.1-0.2-0.3-0.2-0.4c0-0.2,0-0.3,0-0.5c0-0.2,0.1-0.4,0.2-0.5
					c0.1-0.1,0.2-0.3,0.3-0.3c0.1-0.1,0.3-0.1,0.5-0.2c0.2,0,0.3,0,0.5,0c0.2,0,0.3,0.1,0.5,0.2c0.1,0.1,0.3,0.2,0.4,0.3
					c0.1,0.1,0.2,0.3,0.2,0.4C56.4,20.5,56.4,20.7,56.3,20.8z M55.7,20.7c0-0.1,0-0.2,0-0.3c0-0.1,0-0.2-0.1-0.3S55.5,20,55.5,20
					c-0.1-0.1-0.2-0.1-0.3-0.1s-0.2,0-0.3,0c-0.1,0-0.2,0.1-0.2,0.1c-0.1,0.1-0.1,0.1-0.2,0.2c0,0.1-0.1,0.2-0.1,0.3
					c0,0.1,0,0.2,0,0.3c0,0.1,0,0.2,0.1,0.3c0,0.1,0.1,0.1,0.2,0.2c0.1,0.1,0.2,0.1,0.3,0.1c0.1,0,0.2,0,0.3,0
					c0.1,0,0.2-0.1,0.2-0.1c0.1-0.1,0.1-0.1,0.2-0.2C55.7,20.9,55.7,20.8,55.7,20.7z"/>
			</g>
			<g>
				<path class="st2" d="M59.6,23.1l-0.5-0.2l0.1-1.7l0,0l-1,1.4l-0.5-0.2l0.1-2.5l0.6,0.2l-0.1,1.6l0,0l0.9-1.4l0.6,0.2l-0.1,1.6
					l0,0l0.9-1.4l0.6,0.2L59.6,23.1z"/>
			</g>
			<g>
				<path class="st2" d="M63.2,24c-0.1,0.1-0.1,0.2-0.2,0.3c-0.1,0.1-0.2,0.1-0.3,0.1c-0.1,0-0.2,0-0.3,0c-0.1,0-0.2-0.1-0.3-0.1
					l-0.9-0.4l1-2.2l0.9,0.4c0.1,0,0.2,0.1,0.2,0.1c0.1,0.1,0.1,0.1,0.2,0.2c0.1,0.1,0.1,0.2,0.1,0.3c0,0.1,0,0.2-0.1,0.3
					c-0.1,0.1-0.1,0.2-0.2,0.2s-0.2,0.1-0.3,0l0,0c0.1,0,0.1,0.1,0.1,0.1c0,0.1,0.1,0.1,0.1,0.2c0,0.1,0,0.1,0,0.2
					C63.2,23.8,63.2,23.9,63.2,24z M62.7,23.7c0-0.1,0-0.2,0-0.2c-0.1-0.1-0.1-0.1-0.2-0.2l-0.3-0.1l-0.2,0.5l0.3,0.1
					c0,0,0.1,0,0.1,0.1c0,0,0.1,0,0.1,0c0,0,0.1,0,0.1,0C62.6,23.7,62.7,23.7,62.7,23.7z M63,22.8c0-0.1,0-0.1,0-0.2
					c0-0.1-0.1-0.1-0.2-0.2l-0.3-0.1l-0.2,0.4l0.3,0.1c0.1,0,0.2,0.1,0.3,0.1C63,22.9,63,22.8,63,22.8z"/>
			</g>
			<g>
				<path class="st2" d="M66.7,25.5c-0.1,0.2-0.2,0.3-0.4,0.4C66.2,25.9,66,26,65.9,26c-0.2,0-0.3,0-0.5,0c-0.2,0-0.3-0.1-0.5-0.2
					c-0.2-0.1-0.3-0.2-0.4-0.4c-0.1-0.1-0.2-0.3-0.2-0.4c0-0.2,0-0.3,0-0.5c0-0.2,0.1-0.3,0.2-0.5c0.1-0.2,0.2-0.3,0.4-0.4
					c0.1-0.1,0.3-0.2,0.4-0.2c0.2,0,0.3,0,0.5,0c0.2,0,0.3,0.1,0.5,0.2c0.2,0.1,0.3,0.2,0.4,0.4c0.1,0.1,0.2,0.3,0.2,0.4
					c0,0.2,0,0.3,0,0.5C66.8,25.1,66.8,25.3,66.7,25.5z M66.1,25.1c0.1-0.1,0.1-0.2,0.1-0.3c0-0.1,0-0.2,0-0.3c0-0.1,0-0.2-0.1-0.2
					c-0.1-0.1-0.1-0.1-0.2-0.2c-0.1-0.1-0.2-0.1-0.3-0.1c-0.1,0-0.2,0-0.3,0c-0.1,0-0.2,0.1-0.2,0.1c-0.1,0.1-0.1,0.1-0.2,0.2
					c-0.1,0.1-0.1,0.2-0.1,0.3c0,0.1,0,0.2,0,0.3c0,0.1,0,0.2,0.1,0.2c0.1,0.1,0.1,0.1,0.2,0.2c0.1,0.1,0.2,0.1,0.3,0.1
					c0.1,0,0.2,0,0.3,0s0.2-0.1,0.2-0.1C66,25.3,66.1,25.2,66.1,25.1z"/>
			</g>
			<g>
				<path class="st2" d="M68.1,28.2l0.2-0.5l-0.7-0.6l-0.4,0.3L66.7,27l2.3-1.2l0.4,0.4l-0.8,2.5L68.1,28.2z M68.8,26.4L68,26.9
					l0.5,0.4L68.8,26.4z"/>
			</g>
			<g>
				<path class="st2" d="M70.2,30.2l0.3-1L70.4,29l-0.7,0.7l-0.4-0.4l1.7-1.7l0.6,0.7c0.1,0.1,0.2,0.2,0.2,0.3s0.1,0.2,0.1,0.3
					c0,0.1,0,0.2,0,0.3c0,0.1-0.1,0.2-0.2,0.3c-0.1,0.1-0.2,0.2-0.4,0.2c-0.1,0-0.3,0-0.4-0.1l-0.3,1.2L70.2,30.2z M71.4,29
					c0,0,0.1-0.1,0.1-0.1c0,0,0-0.1,0-0.1c0,0,0-0.1-0.1-0.1c0,0-0.1-0.1-0.1-0.1l-0.2-0.2l-0.4,0.4l0.2,0.2c0,0,0.1,0.1,0.1,0.1
					c0,0,0.1,0.1,0.1,0.1c0,0,0.1,0,0.1,0C71.3,29.1,71.4,29.1,71.4,29z"/>
			</g>
			<g>
				<path class="st2" d="M73.7,32.5c-0.2,0.1-0.3,0.2-0.5,0.2c-0.2,0-0.3,0-0.5,0c-0.2,0-0.3-0.1-0.4-0.2c-0.1-0.1-0.3-0.2-0.4-0.3
					l-0.5-0.7l1.9-1.5l0.5,0.7c0.1,0.1,0.2,0.3,0.3,0.4c0.1,0.2,0.1,0.3,0.1,0.5c0,0.2,0,0.3-0.1,0.5C74,32.2,73.9,32.4,73.7,32.5z
					 M73.4,32c0.1-0.1,0.2-0.2,0.2-0.3c0-0.1,0.1-0.2,0.1-0.3c0-0.1,0-0.2-0.1-0.3c0-0.1-0.1-0.2-0.2-0.2l-0.2-0.2l-1.1,0.9l0.2,0.2
					c0.1,0.1,0.1,0.2,0.2,0.2c0.1,0.1,0.2,0.1,0.2,0.1c0.1,0,0.2,0,0.3,0C73.2,32.2,73.3,32.1,73.4,32z"/>
			</g>
			<g>
				<path class="st2" d="M73.4,34.2l2-1.3l0.3,0.5l-2,1.3L73.4,34.2z"/>
			</g>
			<g>
				<path class="st2" d="M75.1,37.2l1-1.6l0,0l-1.4,0.7l-0.3-0.5l2.1-1.1l0.3,0.6l-1,1.6l0,0l1.4-0.7l0.3,0.5l-2.1,1.1L75.1,37.2z"
					/>
			</g>
			<g>
				<path class="st2" d="M76.5,40.5c-0.1-0.1-0.2-0.3-0.2-0.5c-0.1-0.2-0.1-0.4-0.1-0.5c0-0.2,0-0.3,0.1-0.5
					c0.1-0.1,0.2-0.3,0.3-0.4c0.1-0.1,0.3-0.2,0.5-0.3c0.2-0.1,0.4-0.1,0.5-0.1c0.2,0,0.3,0,0.5,0.1c0.1,0.1,0.3,0.2,0.4,0.3
					c0.1,0.1,0.2,0.3,0.3,0.4c0.1,0.2,0.1,0.4,0.1,0.5c0,0.2,0,0.3-0.1,0.5L78.1,40c0-0.1,0.1-0.2,0.1-0.3c0-0.1,0-0.2-0.1-0.3
					c0-0.1-0.1-0.2-0.1-0.2c-0.1-0.1-0.1-0.1-0.2-0.2c-0.1,0-0.2-0.1-0.3-0.1c-0.1,0-0.2,0-0.3,0.1c-0.1,0-0.2,0.1-0.3,0.1
					c-0.1,0.1-0.1,0.1-0.2,0.2c0,0.1-0.1,0.2-0.1,0.3c0,0.1,0,0.2,0.1,0.3c0,0.1,0.1,0.1,0.1,0.2c0,0.1,0.1,0.1,0.1,0.1l0.4-0.2
					l-0.2-0.4l0.4-0.2l0.3,0.9l-1.2,0.4C76.7,40.8,76.6,40.7,76.5,40.5z"/>
			</g>
		</g>
		<g>
			<g>
				<g>
					<path class="st2" d="M25.5,63.3L25,62.4c-0.3-0.7-0.7-0.9-1.3-0.6c-0.5,0.2-0.6,0.6-0.3,1.2l0.1,0.3c-0.6,0.1-1.1-0.2-1.4-0.9
						c-0.4-0.9,0-1.7,1.2-2.3c1.4-0.7,2.3-0.5,2.7,0.4c0.3,0.5,0.1,0.9,0,1.2c-0.1,0.3-0.2,0.6,0,1c0.3,0.6,0.8,0.8,1.4,0.5
						c0.9-0.4,1.2-1.8,0.4-3.6c-1.1-2.3-3.2-3-5.4-1.9c-2.3,1.1-3.1,3-2.2,5c0.5,1,1,1.5,1.8,1.8c-0.5,0.2-0.6,0.6-0.4,1.1
						c0.3,0.5,0.7,0.7,1.3,0.4l1.8-0.8C25.6,64.7,25.9,64.2,25.5,63.3z"/>
				</g>
				<g>
					<path class="st2" d="M31.8,65.5c-1.7-1.8-3.9-1.9-5.7-0.2c-1.9,1.7-2,3.9-0.3,5.7c1.7,1.8,3.9,1.9,5.7,0.2
						C33.3,69.5,33.4,67.3,31.8,65.5z M29.8,69.3c-1.1,1-1.9,1.1-2.6,0.3c-0.7-0.8-0.5-1.6,0.6-2.6c1.1-1,1.9-1.1,2.6-0.3
						C31,67.6,30.8,68.4,29.8,69.3z"/>
				</g>
				<g>
					<path class="st2" d="M37.4,70c-2.1-1.3-4.3-0.7-5.5,1.5c-1.3,2.2-0.7,4.3,1.4,5.6c2.1,1.3,4.3,0.7,5.5-1.5
						C40.1,73.4,39.6,71.3,37.4,70z M36.6,74.3c-0.7,1.2-1.5,1.6-2.4,1.1c-0.9-0.5-1-1.4-0.2-2.6c0.7-1.3,1.5-1.6,2.4-1.1
						C37.3,72.3,37.4,73.1,36.6,74.3z"/>
				</g>
				<g>
					<path class="st2" d="M43.5,72.8L42,72.4c-1.1-0.3-1.5,0-1.8,1l-1.1,4.8c-0.3,1,0,1.5,1.1,1.7l1,0.2c1.4,0.3,2.4,0.6,3.4,0.2
						c1.1-0.4,1.8-1.4,2.2-2.9c0.4-1.6,0.1-2.7-0.7-3.6C45.5,73.3,44.6,73,43.5,72.8z M44.3,77c-0.3,1.3-0.9,1.8-2.1,1.5l-0.6-0.2
						l0.9-3.7l0.7,0.2C44.3,75,44.6,75.7,44.3,77z"/>
				</g>
				<g>
					<path class="st2" d="M58.6,72.1c-0.5,0.1-0.9,0.6-0.8,1.1l0.3,4.2l-1.7-3.9c-0.3-0.6-0.7-0.8-1.4-0.7c-0.7,0.2-1,0.5-0.9,1.2
						l0.1,4.2l-1.7-3.9c-0.2-0.5-0.7-0.8-1.2-0.7c-0.7,0.2-1.1,0.7-1,1.3c0,0.1,0.1,0.3,0.2,0.4l2.5,5c0.3,0.6,0.8,0.8,1.3,0.7
						l0.6-0.1c0.6-0.1,0.8-0.5,0.8-1.2L55.7,76l1.5,3.5c0.3,0.6,0.7,0.9,1.3,0.8l0.6-0.1c0.5-0.1,0.8-0.5,0.8-1.2l0.1-5.6
						c0-0.2,0-0.4,0-0.5C59.9,72.2,59.3,71.9,58.6,72.1z"/>
				</g>
				<g>
					<path class="st2" d="M62.3,69.8c-2.1,1.3-2.6,3.4-1.3,5.6c1.3,2.1,3.5,2.7,5.6,1.4c2.1-1.3,2.6-3.4,1.3-5.6
						C66.5,69,64.4,68.5,62.3,69.8z M65.5,75.1c-0.9,0.6-1.7,0.2-2.4-1c-0.8-1.2-0.7-2.1,0.2-2.6c0.9-0.6,1.6-0.2,2.4,1
						C66.5,73.7,66.4,74.5,65.5,75.1z"/>
				</g>
				<g>
					<path class="st2" d="M73.5,64.8c-1.9-1.7-4.1-1.5-5.7,0.3c-1.6,1.9-1.5,4.1,0.4,5.7c1.9,1.7,4.1,1.5,5.7-0.3
						C75.6,68.6,75.4,66.4,73.5,64.8z M72.5,69.2c-0.7,0.8-1.5,0.7-2.6-0.3c-1.1-1-1.3-1.8-0.6-2.6c0.7-0.8,1.5-0.7,2.6,0.3
						C73,67.6,73.2,68.4,72.5,69.2z"/>
				</g>
				<g>
					<path class="st2" d="M76.9,57.3c-1.5-0.7-2.7-0.7-3.7,0.1c-0.6,0.4-1.1,1.2-1.6,2.3L71,61c-0.5,1-0.3,1.5,0.7,2l4.5,2
						c1,0.4,1.5,0.2,1.9-0.8l0.4-1c0.6-1.3,1-2.2,0.8-3.3C79.1,58.8,78.3,57.9,76.9,57.3z M77,61.9l-0.3,0.6l-3.5-1.6l0.3-0.6
						c0.5-1,1.2-1.2,2.4-0.7C77.2,60.2,77.5,60.8,77,61.9z"/>
				</g>
			</g>
		</g>
		<g>
			<g>
				<path class="st2" d="M46.7,48.4H26.6l10.1-19.9L46.7,48.4z M28,47.5h17.2l-8.6-17L28,47.5z"/>
			</g>
			<g>
				<path class="st2" d="M72.5,48.4H52.4l10.1-19.9L72.5,48.4z M53.9,47.5h17.2l-8.6-17L53.9,47.5z"/>
			</g>
			<g>
				<polygon class="st1" points="49.6,25.9 38.4,47.9 49.6,47.9 49.6,47.9 60.7,47.9 				"/>
				<path class="st2" d="M61.5,48.4H37.7l11.9-23.5L61.5,48.4z M39.2,47.5H60L49.6,26.9L39.2,47.5z"/>
			</g>
		</g>
		<g>
			<polygon class="st2" points="49.6,28.8 47,33.9 49.6,33.9 49.6,33.9 52.2,33.9 			"/>
		</g>
		<g>
			<polygon class="st2" points="36.6,32.3 35.3,34.8 36.6,34.8 36.6,34.8 37.9,34.8 			"/>
		</g>
		<g>
			<polygon class="st2" points="62.5,32.3 61.2,34.8 62.5,34.8 62.5,34.8 63.7,34.8 			"/>
		</g>
		<g>
			<rect x="26.5" y="53.2" class="st2" width="46" height="0.5"/>
		</g>
		<g>
			<rect x="40.1" y="66" class="st2" width="18.9" height="0.9"/>
		</g>
		<g>
			<rect x="34" y="40.7" class="st2" width="4.2" height="0.9"/>
		</g>
		<g>
			<rect x="61.1" y="40.7" class="st2" width="4.2" height="0.9"/>
		</g>
		<g>
			<g>
				<g>
					<path class="st2" d="M41.8,59.4c0.2-0.3,0.3-0.4,0.3-0.7v-1c0-0.3-0.1-0.4-0.4-0.4h-0.1c-0.3,0-0.4,0.1-0.4,0.4V59h-1v-1.3
						c0-0.9,0.4-1.3,1.3-1.3h0.4c0.9,0,1.3,0.4,1.3,1.3v1c0,0.5-0.1,0.9-0.5,1.4l-1.1,1.4c-0.2,0.3-0.3,0.4-0.3,0.8v0.3h2v1h-3.1
						v-1.3c0-0.5,0.1-0.9,0.6-1.4L41.8,59.4z"/>
					<path class="st1" d="M44.1,64.4h-4.8v-2.1c0-0.7,0.2-1.3,0.7-1.9l0.4-0.5h-1.1v-2.2c0-1.4,0.8-2.2,2.2-2.2h0.4
						c1.3,0,2.2,0.8,2.2,2.2v1c0,0.7-0.2,1.3-0.7,1.9l-0.9,1.1h1.6V64.4z"/>
				</g>
				<g>
					<path class="st2" d="M47.6,63.6h-0.5c-0.9,0-1.3-0.4-1.3-1.3v-4.6c0-0.9,0.4-1.3,1.3-1.3h0.5c0.9,0,1.3,0.4,1.3,1.3v4.6
						C49,63.2,48.5,63.6,47.6,63.6z M47.5,57.4h-0.2c-0.3,0-0.4,0.1-0.4,0.4v4.5c0,0.3,0.1,0.4,0.4,0.4h0.2c0.3,0,0.4-0.1,0.4-0.4
						v-4.5C47.9,57.5,47.8,57.4,47.5,57.4z"/>
					<path class="st1" d="M47.6,64.5h-0.5c-1.4,0-2.2-0.8-2.2-2.2v-4.6c0-1.4,0.8-2.2,2.2-2.2h0.5c1.4,0,2.2,0.8,2.2,2.2v4.6
						C49.8,63.7,49,64.5,47.6,64.5z M47.5,57.4v0.8V57.4z"/>
				</g>
				<g>
					<path class="st2" d="M53.1,63.6h-1v-5.7h-0.7v-0.8c0.4,0,0.6-0.2,0.9-0.5l0.1-0.2h0.7V63.6z"/>
					<path class="st1" d="M53.9,64.4h-2.7v-5.7h-0.7v-2.4l0.8-0.1c0.2,0,0.2,0,0.3-0.2l0.4-0.5h2V64.4z"/>
				</g>
				<g>
					<path class="st2" d="M57.6,56.4c0.9,0,1.3,0.4,1.3,1.3v1.1c0,0.6-0.2,0.9-0.6,1.1c0.4,0.1,0.6,0.4,0.6,0.9v1.5
						c0,0.9-0.4,1.3-1.3,1.3h-0.5c-0.9,0-1.3-0.4-1.3-1.3v-1.5c0-0.5,0.2-0.8,0.6-0.9c-0.4-0.1-0.6-0.4-0.6-1.1v-1.1
						c0-0.9,0.4-1.3,1.3-1.3H57.6z M56.8,62.3c0,0.3,0.1,0.4,0.4,0.4h0.2c0.3,0,0.4-0.1,0.4-0.4v-1.5c0-0.3-0.1-0.4-0.4-0.4h-0.2
						c-0.3,0-0.4,0.1-0.4,0.4V62.3z M57.4,59.5c0.3,0,0.4-0.1,0.4-0.4v-1.3c0-0.3-0.1-0.4-0.4-0.4h-0.2c-0.3,0-0.4,0.1-0.4,0.4v1.3
						c0,0.3,0.1,0.4,0.4,0.4H57.4z"/>
					<path class="st1" d="M57.6,64.5h-0.5c-1.4,0-2.2-0.8-2.2-2.2v-1.5c0-0.4,0.1-0.7,0.2-1c-0.1-0.3-0.2-0.6-0.2-1v-1.1
						c0-1.4,0.8-2.2,2.2-2.2h0.4c1.4,0,2.2,0.8,2.2,2.2v1.1c0,0.4-0.1,0.7-0.2,1c0.1,0.2,0.2,0.6,0.2,1v1.5
						C59.7,63.7,58.9,64.5,57.6,64.5z M57,62.3h0.7H57L57,62.3L57,62.3z M56.8,62.3H57H56.8z M57.4,58.7v0.6V58.7z"/>
				</g>
			</g>
			<g>
				<g>
					<path class="st2" d="M41.8,59.4c0.2-0.3,0.3-0.4,0.3-0.7v-1c0-0.3-0.1-0.4-0.4-0.4h-0.1c-0.3,0-0.4,0.1-0.4,0.4V59h-1v-1.3
						c0-0.9,0.4-1.3,1.3-1.3h0.4c0.9,0,1.3,0.4,1.3,1.3v1c0,0.5-0.1,0.9-0.5,1.4l-1.1,1.4c-0.2,0.3-0.3,0.4-0.3,0.8v0.3h2v1h-3.1
						v-1.3c0-0.5,0.1-0.9,0.6-1.4L41.8,59.4z"/>
				</g>
				<g>
					<path class="st2" d="M47.6,63.6h-0.5c-0.9,0-1.3-0.4-1.3-1.3v-4.6c0-0.9,0.4-1.3,1.3-1.3h0.5c0.9,0,1.3,0.4,1.3,1.3v4.6
						C49,63.2,48.5,63.6,47.6,63.6z M47.5,57.4h-0.2c-0.3,0-0.4,0.1-0.4,0.4v4.5c0,0.3,0.1,0.4,0.4,0.4h0.2c0.3,0,0.4-0.1,0.4-0.4
						v-4.5C47.9,57.5,47.8,57.4,47.5,57.4z"/>
				</g>
				<g>
					<path class="st2" d="M53.1,63.6h-1v-5.7h-0.7v-0.8c0.4,0,0.6-0.2,0.9-0.5l0.1-0.2h0.7V63.6z"/>
				</g>
				<g>
					<path class="st2" d="M57.6,56.4c0.9,0,1.3,0.4,1.3,1.3v1.1c0,0.6-0.2,0.9-0.6,1.1c0.4,0.1,0.6,0.4,0.6,0.9v1.5
						c0,0.9-0.4,1.3-1.3,1.3h-0.5c-0.9,0-1.3-0.4-1.3-1.3v-1.5c0-0.5,0.2-0.8,0.6-0.9c-0.4-0.1-0.6-0.4-0.6-1.1v-1.1
						c0-0.9,0.4-1.3,1.3-1.3H57.6z M56.8,62.3c0,0.3,0.1,0.4,0.4,0.4h0.2c0.3,0,0.4-0.1,0.4-0.4v-1.5c0-0.3-0.1-0.4-0.4-0.4h-0.2
						c-0.3,0-0.4,0.1-0.4,0.4V62.3z M57.4,59.5c0.3,0,0.4-0.1,0.4-0.4v-1.3c0-0.3-0.1-0.4-0.4-0.4h-0.2c-0.3,0-0.4,0.1-0.4,0.4v1.3
						c0,0.3,0.1,0.4,0.4,0.4H57.4z"/>
				</g>
			</g>
		</g>
		<g>
			<g>
				<path class="st2" d="M27.8,50.3c0,0-0.1-0.1-0.1-0.1c-0.1,0-0.1,0-0.2,0c0,0-0.1,0-0.1,0c0,0-0.1,0-0.1,0c0,0,0,0-0.1,0.1
					c0,0,0,0,0,0.1c0,0,0,0.1,0,0.1c0,0,0,0,0.1,0c0,0,0.1,0,0.1,0c0,0,0.1,0,0.1,0c0.1,0,0.1,0,0.2,0.1c0.1,0,0.1,0.1,0.2,0.1
					c0.1,0,0.1,0.1,0.1,0.1c0,0.1,0,0.1,0,0.2c0,0.1,0,0.2-0.1,0.2c0,0.1-0.1,0.1-0.1,0.2c-0.1,0-0.1,0.1-0.2,0.1
					c-0.1,0-0.2,0-0.2,0c-0.1,0-0.2,0-0.3-0.1c-0.1,0-0.2-0.1-0.3-0.2l0.3-0.3c0,0.1,0.1,0.1,0.2,0.1c0.1,0,0.1,0.1,0.2,0.1
					c0,0,0.1,0,0.1,0c0,0,0.1,0,0.1,0c0,0,0,0,0.1-0.1c0,0,0-0.1,0-0.1c0,0,0-0.1,0-0.1c0,0,0,0-0.1-0.1c0,0-0.1,0-0.1,0
					c0,0-0.1,0-0.1,0c-0.1,0-0.1,0-0.2-0.1c-0.1,0-0.1-0.1-0.1-0.1c0,0-0.1-0.1-0.1-0.1c0-0.1,0-0.1,0-0.2c0-0.1,0-0.2,0.1-0.2
					c0-0.1,0.1-0.1,0.1-0.2c0.1,0,0.1-0.1,0.2-0.1c0.1,0,0.2,0,0.2,0c0.1,0,0.2,0,0.3,0.1c0.1,0,0.2,0.1,0.3,0.2L27.8,50.3z"/>
			</g>
			<g>
				<path class="st2" d="M31.9,51.6l-0.7-1.1h0l0,1.1h-0.4v-1.7h0.5L32,51h0l0-1.1h0.4v1.7H31.9z"/>
			</g>
			<g>
				<path class="st2" d="M37,50.7c0,0.1,0,0.3-0.1,0.4c0,0.1-0.1,0.2-0.2,0.3c-0.1,0.1-0.2,0.1-0.3,0.2c-0.1,0-0.2,0.1-0.4,0.1
					c-0.1,0-0.3,0-0.4-0.1c-0.1,0-0.2-0.1-0.3-0.2c-0.1-0.1-0.1-0.2-0.2-0.3c0-0.1-0.1-0.2-0.1-0.4c0-0.1,0-0.3,0.1-0.4
					c0-0.1,0.1-0.2,0.2-0.3c0.1-0.1,0.2-0.1,0.3-0.2c0.1,0,0.2-0.1,0.4-0.1c0.1,0,0.3,0,0.4,0.1s0.2,0.1,0.3,0.2
					c0.1,0.1,0.1,0.2,0.2,0.3C37,50.5,37,50.6,37,50.7z M36.6,50.7c0-0.1,0-0.1,0-0.2c0-0.1-0.1-0.1-0.1-0.2c0,0-0.1-0.1-0.2-0.1
					c-0.1,0-0.1,0-0.2,0c-0.1,0-0.1,0-0.2,0c-0.1,0-0.1,0.1-0.2,0.1c0,0-0.1,0.1-0.1,0.2c0,0.1,0,0.1,0,0.2c0,0.1,0,0.1,0,0.2
					c0,0.1,0.1,0.1,0.1,0.2c0,0,0.1,0.1,0.2,0.1c0.1,0,0.1,0,0.2,0c0.1,0,0.1,0,0.2,0c0.1,0,0.1-0.1,0.2-0.1c0,0,0.1-0.1,0.1-0.2
					C36.5,50.9,36.6,50.8,36.6,50.7z"/>
			</g>
			<g>
				<path class="st2" d="M41.5,51.6h-0.4l-0.3-1.1h0l-0.3,1.1h-0.4l-0.5-1.7H40l0.3,1.1h0l0.3-1.1H41l0.3,1.1h0l0.3-1.1H42
					L41.5,51.6z"/>
			</g>
			<g>
				<path class="st2" d="M46,51.1c0,0.1,0,0.2-0.1,0.2c0,0.1-0.1,0.1-0.1,0.2c-0.1,0-0.1,0.1-0.2,0.1c-0.1,0-0.2,0-0.2,0h-0.7v-1.7
					h0.7c0.1,0,0.1,0,0.2,0c0.1,0,0.1,0,0.2,0.1c0.1,0,0.1,0.1,0.1,0.1c0,0.1,0.1,0.1,0.1,0.2c0,0.1,0,0.2-0.1,0.2
					c-0.1,0.1-0.1,0.1-0.2,0.1v0c0,0,0.1,0,0.1,0c0,0,0.1,0,0.1,0.1c0,0,0.1,0.1,0.1,0.1C46,51,46,51,46,51.1z M45.6,50.4
					c0-0.1,0-0.1-0.1-0.1c0,0-0.1,0-0.2,0h-0.2v0.3h0.2c0.1,0,0.1,0,0.2,0C45.5,50.5,45.6,50.4,45.6,50.4z M45.6,51
					c0-0.1,0-0.1-0.1-0.1c-0.1,0-0.1,0-0.2,0h-0.2v0.4h0.2c0,0,0.1,0,0.1,0c0,0,0.1,0,0.1,0c0,0,0.1,0,0.1-0.1
					C45.6,51.1,45.6,51.1,45.6,51z"/>
			</g>
			<g>
				<path class="st2" d="M48.8,51.6v-1.7h0.4v1.7H48.8z"/>
			</g>
			<g>
				<path class="st2" d="M53,51.6l-0.4-0.7h-0.1v0.7h-0.4v-1.7h0.6c0.1,0,0.2,0,0.2,0c0.1,0,0.1,0,0.2,0.1c0.1,0,0.1,0.1,0.1,0.2
					c0,0.1,0.1,0.1,0.1,0.2c0,0.1,0,0.2-0.1,0.3c-0.1,0.1-0.1,0.1-0.3,0.2l0.4,0.7H53z M53,50.4C53,50.4,53,50.3,53,50.4
					c0-0.1-0.1-0.1-0.1-0.2c0,0-0.1,0-0.1,0c0,0-0.1,0-0.1,0h-0.2v0.4h0.2c0,0,0.1,0,0.1,0s0.1,0,0.1,0c0,0,0.1,0,0.1-0.1
					C53,50.5,53,50.4,53,50.4z"/>
			</g>
			<g>
				<path class="st2" d="M57.8,50.7c0,0.1,0,0.3-0.1,0.4c-0.1,0.1-0.1,0.2-0.2,0.3c-0.1,0.1-0.2,0.1-0.3,0.2c-0.1,0-0.2,0-0.3,0
					h-0.6v-1.7h0.6c0.1,0,0.2,0,0.4,0c0.1,0,0.2,0.1,0.3,0.1s0.2,0.1,0.2,0.3C57.8,50.4,57.8,50.6,57.8,50.7z M57.4,50.7
					c0-0.1,0-0.2,0-0.2c0-0.1-0.1-0.1-0.1-0.1c-0.1,0-0.1-0.1-0.2-0.1c-0.1,0-0.1,0-0.2,0h-0.2v1h0.2c0.1,0,0.1,0,0.2,0
					c0.1,0,0.1,0,0.2-0.1c0.1,0,0.1-0.1,0.1-0.2C57.4,50.9,57.4,50.8,57.4,50.7z"/>
			</g>
			<g>
				<path class="st2" d="M60.7,51.9h-0.3l0.2-0.7h0.4L60.7,51.9z"/>
			</g>
			<g>
				<path class="st2" d="M68.2,51.2c0,0.1-0.1,0.2-0.1,0.2c-0.1,0.1-0.1,0.1-0.2,0.1s-0.2,0-0.3,0c-0.1,0-0.2,0-0.3,0
					s-0.2-0.1-0.2-0.1c-0.1-0.1-0.1-0.1-0.1-0.2s0-0.2,0-0.3v-1h0.4v1c0,0,0,0.1,0,0.1c0,0,0,0.1,0.1,0.1c0,0,0.1,0.1,0.1,0.1
					c0,0,0.1,0,0.1,0s0.1,0,0.1,0c0,0,0.1,0,0.1-0.1c0,0,0-0.1,0.1-0.1c0,0,0-0.1,0-0.1v-1h0.4v1C68.3,51,68.3,51.1,68.2,51.2z"/>
			</g>
			<g>
				<path class="st2" d="M71.9,50.2v1.3h-0.4v-1.3H71v-0.3h1.4v0.3H71.9z"/>
			</g>
		</g>
		<g>
			<g>
				<path class="st2" d="M47.9,40.4l-0.2-0.5h-0.9l-0.2,0.5H46l1-2.4h0.6l1,2.4H47.9z M47.3,38.6L47,39.4h0.6L47.3,38.6z"/>
			</g>
			<g>
				<path class="st2" d="M49.3,40.4V38h0.6v1.9h0.9v0.5H49.3z"/>
			</g>
			<g>
				<path class="st2" d="M51.5,40.4V38h0.6v1.9H53v0.5H51.5z"/>
			</g>
			<g>
				<path class="st2" d="M47.5,44.4l0-1.7h0l-0.6,1.7h-0.4l-0.6-1.7h0l0,1.7h-0.5V42h0.8l0.5,1.5h0l0.5-1.5h0.8v2.4H47.5z"/>
			</g>
			<g>
				<path class="st2" d="M50.1,42.5v1.9h-0.6v-1.9h-0.7V42h1.9v0.5H50.1z"/>
			</g>
			<g>
				<path class="st2" d="M53.1,44.4l-1-1.6h0l0,1.6h-0.6V42h0.7l1,1.6h0l0-1.6h0.6v2.4H53.1z"/>
			</g>
		</g>
		<g>
			<polygon class="st2" points="32.1,60.1 35.8,58.2 35.8,60.1 35.8,60.1 35.8,62 			"/>
		</g>
		<g>
			<polygon class="st2" points="66.9,60.1 63.2,58.2 63.2,60.1 63.2,60.1 63.2,62 			"/>
		</g>
	</g>
</g>
</svg>
