<?xml version="1.0" encoding="utf-8"?>
<!-- Generator: Adobe Illustrator 21.1.0, SVG Export Plug-In . SVG Version: 6.00 Build 0)  -->
<!DOCTYPE svg PUBLIC "-//W3C//DTD SVG 1.1//EN" "http://www.w3.org/Graphics/SVG/1.1/DTD/svg11.dtd">
<svg version="1.1" id="Layer_1" xmlns="http://www.w3.org/2000/svg" xmlns:xlink="http://www.w3.org/1999/xlink" x="0px" y="0px"
	 viewBox="0 0 99.2 99.2" style="enable-background:new 0 0 99.2 99.2;" xml:space="preserve">
<style type="text/css">
	.st0{fill:#86754D;}
</style>
<g>
	<circle class="st0" cx="49.6" cy="49.6" r="49.5"/>
	<path d="M93.8,48.3v-0.2l-0.5-1.3l-0.9-1.6l-2.2-2.2l-0.6-1.2l-1,0.1l-0.2-0.4l0.7-0.1l0.1-0.4l-0.6-1.3l-0.5-1.6l0.1-0.2l-0.2-2.2
		l0.9-3.8v-3.2l-0.9-1.5l-2.6-2.4h-0.4l-1-0.6l-4.1-1.5l-0.5-0.5L79.1,22L79,21.7l-1.1-0.6l-0.2-0.6l-1.1-1.1l-2-5.4l-2-2.4l-2-1.2
		l-1-0.2L67,10.2L63.6,11h-3l-2-0.7l-2-1.1l-3-2.7l-1.7-1.1L51,5.1H49l-1.8,0.6l-2.1,1l-2.7,2.6l-2.6,1.3l-2.7,0.5L34.9,11l-3.7-0.8
		l-1.7,0.1L27.5,11l-2.1,1.8l-1,1.7l-1.1,3.4l-1.5,2.3l-1.3,1.3l-2.2,1.5l-3.5,1.2L13.2,25l-0.1,0.2l-0.5,0.2l-1.3,1.6l-0.7,1.5
		L10.2,30l0.1,2l0.9,3.7L11,37.9l-0.7,2.4l-0.5,0.9v0.2L6.8,45l-0.6,0.9L5.1,49l0.1,2l0.9,2l2.8,2.9l1,1.7l1,2.8l0.4,1.6L11,64.9
		l-0.9,2.9l0.7,3.7l0.4,0.2l0.1-0.5h0.2l-0.1,1.2l0.7,0.7l0.2,0.5l1.8,0.7l0.2,0.4l0.5,0.2l1.7,0.2l2.1,0.9l1.7,1.2l2,2.1l0.7,1.2
		l0.6,1.7v1l1.7,3.2l1.2,1.2l1.5,0.7l1.7,0.4h3l0.9-0.4l0.4-0.6l0.2-0.1V88l0.4,0.1l2.8-0.2l2.8,1l2.8,1.5l3.2,2.6l2.4,1.1l2.2-0.1
		l2.7-1.3l3.4-3l0.6-0.4l2.6-0.9l1.7-0.4h1l0.2-0.1l3.8,0.7l1,0.2l1.9-0.1l0.9-0.2l1.5-0.9l-0.1-0.7l0.1-0.2l0.4,0.4l0.9-0.2l2.3-5
		v-0.5l-0.4-0.4l0.6-0.4l1.3-2l1.1-1l3.7-2.2l2.2-0.5l3.5-2.6l1-2.6l0.1-2.2l-0.7-4.1l-0.2-1V61l0.7-2.1l1-1.5l0.6-1.3l1.3-1.1
		l0.5-0.9l0.7-0.9l0.9-1.6l0.4-1.7L93.8,48.3z M6.3,50.4H6l-0.1-0.1l0.4-0.1V50.4z M8.2,50.5L8,50.4l0.1-0.2l0.1,0.1V50.5z
		 M11.2,58.4l0.1-0.2l0.1,0.1L11.2,58.4z M77.1,22.1l0.1,0.1L77,22.3L77.1,22.1z M49.3,9.3L49,9.4l-0.1-0.2L49.3,9.3z M47.3,7.4
		l0.1,0.1v0.4l-0.5-0.1L47.3,7.4z M19.5,75l0.1-0.2l0.1,0.1L19.5,75z M49.2,91.1l0.1-0.2l0.1,0.1L49.2,91.1z M66.5,84
		C66.5,84,66.5,84,66.5,84l0.2,0.1l-0.1,0.2l-0.2-0.1L66.5,84z M66.9,86.5l-0.2-0.1v-0.6h0.2V86.5z M68.6,84.5l-0.4,0.1l-0.1-0.4
		l0.2-0.1l0.2,0.1V84.5z M68.6,83.8l-0.1-0.2v-0.4L69,83L68.6,83.8z M88.5,50.6h-0.1l0.1-0.1V50.6z M91.6,53.5v-0.2l0.2,0.1
		L91.6,53.5z M93.2,49.9l-0.4-0.2v-0.4l0.6,0.4L93.2,49.9z"/>
	<g>
		<path class="st0" d="M53.7,58.2l-0.2,0.1l0,0.2l0.2,0l0-0.1l0.1,0l0.4,2.1l0,0.1l0.1,0.4l0,0.1l-0.2,0L54,61l0.1,0l0,0.2l0.3,0.1
			l0.2,0.3l0.2,0.1l0.5-0.1l0.1,0.1l0.1,0.2l0.1-0.2l0.2,0.2l0.1,0l0-0.2l-0.1-0.1l0.1-0.2l0.1,0l0.2,0.1l-0.1-0.2l0.2,0l0.9-0.7
			l0.8-0.3l0.5-0.3l1.5-0.7l1.1-0.7l0.3-0.1l0.8-0.5l1.1-0.4l1.4-0.7l0.3-0.2l0.7-0.2l0.3,0l0.3,0.1l0.1,0.2L66,57.4l-0.6,0.4
			l-0.3,0.4l-1.7,1.7l-0.2,0.2L63,60.3l-0.2,0l-0.2,0.4l-2.4,2.1l-1.5,1.5l-0.3,0l0,0.2l-0.8,1L56,66.7l-0.3,0.1L55.6,67l-0.7,0.6
			l-0.2,0.1l-0.3,0.4L54,68.4l-0.1,0.2l-0.2,0.1l0,0.1l-1.1,1L52,70.2l-0.1,0.3l-0.3,0.1l-0.3,0.3l-0.6,0.2l-0.1,0l0-0.3l-0.1-0.2
			l-0.1,0l0.1,0.2l-0.2,0L50,70.2l0.1-0.2l-0.3-0.2l0-0.1l0.1-0.3l-0.3-0.2l0.1-0.6l0.1-0.3l-0.1,0l-0.2,0.1L49.4,68l0-0.4l-0.1-0.1
			l0-0.1l0.1-0.3l0-0.2l-0.4,0.1L48.7,67l-0.6,0.1l-0.4,0.3l-0.3,0l-0.1,0.1l0,0.1L47,67.8l-0.4,0.2L46,68.3L46,68.1l-0.1,0l0,0.1
			l0.1,0.2l-0.8,0.5l-1.5,0.6l-0.1,0.2l-0.3,0L43,69.8l-0.3,0.1l-0.3-0.1l-0.1,0l-0.1,0.3l-0.6,0.4l-0.3,0l-0.1-0.2L41,70.6l-0.1,0
			l0,0.3l-0.2,0.2l-0.4,0.2l0-0.1l0.2-0.1l0-0.1L40,70.7l0.1-0.2l-0.3,0l0-0.1l0.2-0.1l0-0.1L39.8,70l-0.1,0l-0.1,0.3l0.1,0.4
			L39.6,71l0.1,0.1l0.2,0l0.1,0.2l0,0.1l-0.4,0l-0.2,0.2l-0.2,0.1l-0.3,0l-0.1-0.1l0.2-0.1l-0.3-0.4l-0.2,0l-0.1,0.1l0.1,0.3
			l0.1,0.1l0,0.2l-0.2-0.1l-0.2-0.3l-0.1,0l-0.1,0.1l0.1,0.2l0.2,0.2l0,0.1L38.2,72l-0.1-0.1l-0.2,0l-0.3,0.3l-0.1,0l-0.1-0.2l0-0.3
			l0.4-0.4l0.4-0.1l0.1-0.1l-0.2-0.3l0.2,0l0.6,0.4l0.3-0.1l0.2-0.2l-0.6-0.2l-0.1-0.2l0.4-0.4l0.4-0.3l0.1-0.2l0-0.1l0.1-0.2
			l0.3-0.3l0.2,0l-0.1-0.2l0.1-0.2l0.1,0l0.1,0.2l0.4-0.6l0.2,0l0.1,0.3l0.3,0.2l0.2-0.1L42,69l0.1,0l0.2-0.2l0.1,0l0-0.1l-0.4-0.1
			L42,68.5l0.2,0l0.1,0.1l0-0.1l0.2-0.2l0.1,0.2l0.1-0.2l-0.1-0.2l0.1-0.1l0-0.1l-0.1,0l-0.1,0.1l-0.1,0l0-0.3l0,0.1L42,67.8
			l0.2,0.2l-0.3,0.3l-0.2,0l0.1-0.1l-0.1-0.3l-0.1,0L41.6,68l0,0.3l-0.2-0.1L41.4,68l0.3-0.3l0.5-0.1l0.1-0.2l0-0.2l0.4-0.4l0.5-0.3
			l0.2,0.4l0.1,0.1l-0.2,0.2l0.1,0.2l0.2-0.1l0-0.3l0.1-0.1l-0.2-0.2l0-0.3l0.4-0.3l0.3-0.5l0.3,0l0.1,0.1l0.3-0.2l0.1,0l0-0.1
			l-0.1-0.1l-0.1,0.1l-0.2,0l-0.1-0.1l0.3-0.3l0.2,0l0.3,0.3l-0.1-0.4l-0.1-0.1l0-0.2l0.2-0.1l0.2-0.3l1.1-0.9l0.2,0.1l0.1-0.1
			l0-0.2l0.2-0.2l0.5-0.2l0.1,0l0-0.2l0.2-0.3l1.2-1.1l0.1,0l0.5-0.6l0.6-0.4l0-0.1l0.5-0.5l0.5-0.4l0.3,0l0.1-0.1l-0.1-0.2l0.1-0.2
			l0.8-0.5l0.1-0.2l0.3-0.2l0.6,0.2L53.7,58.2L53.7,58.2z M38.9,71.1l-0.1-0.3l-0.1-0.1l0.4,0.1L38.9,71.1L38.9,71.1z M38.9,70.3
			L38.9,70.3l0.1,0.2l0.1,0l0-0.1L38.9,70.3L38.9,70.3z M39.9,69.6l0.3,0.4l0-0.3L39.9,69.6L39.9,69.6z M40.9,70.4l0-0.2l0.1,0
			l0-0.1l-0.1,0L40.8,70l0,0.1l-0.1,0l0.1-0.4l0-0.2l-0.2-0.1l0,0.4l-0.2,0.5l0.1,0.2l0.3-0.1L40.9,70.4z M40.8,69l-0.1,0.2l0.2,0.1
			l0-0.2L40.8,69L40.8,69z M41.6,70.4L41.5,70l-0.3-0.1l0,0.1l0.1,0.2L41.6,70.4L41.6,70.4z M41.6,69.4L41.6,69.4l-0.4-0.1l0-0.1
			l-0.1,0.1l-0.1,0l0.3,0.5L41.6,69.4L41.6,69.4z M41.2,68.7l-0.1-0.1l-0.2,0.1l0,0.1L41.2,68.7L41.2,68.7z M41.1,69.2L41.1,69.2
			l0-0.1L41.1,69.2z M41.9,69.1L41.8,69l-0.1,0L41.4,69l0,0.1l0.2,0l0.1,0.1l0,0.1l0.1,0.1l0.2-0.1L41.9,69.1z M42.1,69.9L42.1,69.9
			l0.1-0.1l-0.1,0L42.1,69.9z M43,69.7l-0.3-0.1l-0.2,0l0,0.2l0.2,0l0.2,0.1L43,69.7L43,69.7z M42.5,69L42.5,69L42.5,69L42.5,69z
			 M43,69.6L43,69.6l0-0.1L43,69.6z M42.9,69l0.2-0.1L43,68.8l-0.1,0.1L42.9,69z M43.3,69.5L43.3,69.5l0-0.1L43.3,69.5z M44,66.8
			L43.7,67l-0.1,0.2l-0.8,0.8l0.2,0.3l0.2,0.1l0-0.4l0.1-0.1L43.1,68l0.1-0.1l0.1,0l0.3,0.5l0.1-0.1l0.1-0.4l0.4,0.3l0-0.2l0.2-0.2
			l-0.1-0.1l0-0.7L44,66.8L44,66.8z M42.7,67.1L42.7,67.1L42.7,67.1L42.7,67.1z M44.2,67L44.2,67l0.1,0.3l-0.4,0.6l0-0.2l0.2-0.2
			L44.2,67L44.2,67z M44,67.1l-0.2,0l0-0.2L44,67.1z M43.7,66.6l0.2,0.2l0-0.7l-0.1,0.1l-0.1,0.2L43.7,66.6z M44.4,68.5l0.4,0
			l-0.2-0.1L44.4,68.5z M44.3,66.5l-0.2-0.1l-0.1,0.1l0.1,0.1L44.3,66.5L44.3,66.5z M44.6,67.8L44.6,67.8l0.1,0.1l0-0.1l-0.1,0
			L44.6,67.8z M44.5,66.7l-0.1,0.2L44.5,66.7L44.5,66.7z M44.9,67.8l0.1-0.1l0.1-0.2l0.1,0l0-0.1l-0.2-0.1l-0.2,0.2l0,0.2L44.9,67.8
			z M45.1,68.1l0.1-0.1l0-0.1L45,68l0,0L45.1,68.1z M45.2,66.5l0.1,0.1l0,0.3l0.2,0.1l0.2,0l0.4-0.2l0-0.1l-0.1,0l-0.5-0.4l-0.1,0
			l-0.1,0.1L45.2,66.5z M45.2,65.6l-0.2,0.1l0.1,0.3l0,0.2l0.1,0.1l0.1-0.1l0-0.1l-0.1-0.2l0,0L45.2,65.6z M45.9,67.8l-0.1,0.1
			l0,0.1l0.1-0.1L45.9,67.8z M45.8,67.3l-0.1,0.1l0,0.1l0.1,0.1l0.4-0.1l-0.1-0.4L46,67L45.8,67.3z M45.2,65.4l0.1,0.4l0.1-0.4
			l-0.1-0.1L45.2,65.4z M46.9,66.1L46.9,66.1L46.8,66l-0.1,0l0,0.2l-0.8-0.1l0,0.2l0.2,0l0.4,0.3l0.1,0l0,0.2l0.2,0.3l-0.2,0.1
			l-0.1,0.5l0.4-0.3l0.2,0l-0.3-0.7l0-0.1L46.9,66.1L46.9,66.1z M45.9,65.6l0.2-0.1l0.1,0.1l0,0.1l-0.3,0.1l0.2,0.2l0,0.2l0.1-0.3
			l0.2-0.2l0.4-0.1l0.1,0.1l0-0.2L46.5,65l-0.4,0.3L45.9,65.6L45.9,65.6z M45.5,64.5L45.5,64.5L45.5,64.5L45.5,64.5z M46.5,66.9
			l-0.2,0l0,0.1l0.1,0L46.5,66.9L46.5,66.9z M47.2,67.4l-0.4,0.1l-0.1,0.1l0,0.1l0.4-0.1L47.2,67.4L47.2,67.4z M46.5,65.5l-0.2-0.1
			l0.2-0.1L46.5,65.5L46.5,65.5z M45.9,64.3l0.1,0.3l0.5,0.2l0.1,0.2l0.2-0.4l-0.2,0l0,0.1l-0.2-0.1l0.1-0.4L46.2,64L45.9,64.3z
			 M48.5,66l-0.1-0.2l-0.3,0L48,66l-0.3-0.2l0.1,0.3l0,0.1l-0.2-0.1l-0.3-0.6l-0.3,0.2l0.2,0.1l0,0.3l0.1,0.1l0.2,0l0,0.5l0.1,0.1
			l0.2-0.1l0.3,0l-0.1-0.2l-0.3,0l0-0.1l0.5-0.4L48.5,66L48.5,66z M46.5,63.5l0.2,0.1L46.5,63.5L46.5,63.5z M47.2,64.1L47,64l0-0.1
			L47,64l-0.3,0.1l0.5,0.2l0.1,0l0.1-0.2l0.5,0l0.3-0.4L48,63.6l-0.3,0l-0.3-0.1l-0.1,0l-0.1,0.3L47.2,64.1z M47.2,65.1l-0.1,0.2
			l0.1,0.1l0.2,0l0.2,0.1l0,0.1l0.2,0l0.3-0.3L48,65l-0.2-0.1l0,0.2l-0.1,0.1l-0.2,0l0.2-0.2l0-0.1l-0.2,0l-0.3-0.2l-0.1,0
			L47.2,65.1L47.2,65.1z M47.1,63.5l0-0.1l-0.1-0.1L47,63.5l0.1,0L47.1,63.5z M48.1,66.3l0,0.4l0.1,0.1l0.4-0.1L48.1,66.3z
			 M47.7,64.8l0.2-0.3l-0.1-0.1l-0.1,0L47.7,64.8L47.7,64.8z M48.3,65.4L48.3,65.4l-0.2,0.1l0,0.1l0.2-0.1L48.3,65.4z M48.7,66.7
			l0.1,0l0.1-0.1l0-0.1l-0.1,0.1L48.7,66.7z M52,60.4l-0.4,0.2l0.1,0l-0.1,0.2l-0.4,0.3L51.1,61l0.1-0.2l-0.2,0l0.1,0.4l-0.1,0.2
			l-0.3,0l-0.1,0.1l-0.3,0.1l-0.4,0.7l0,0.1l0.1,0.1l-0.2,0.1l-0.5,0l-0.1,0.1L49,62.5l0.2,0.3l0.4,0l0.1,0.3l-0.1,0.5l0.5-0.2
			l0.1,0.1l-0.1,0.2l-0.3,0.1l-0.2,0L49.4,64l-0.3,0.1l0.3,0.3l0.1-0.1l0-0.1l0.1,0l0.3,0.1l-0.1,0.2l-1,0.4l-0.5,0l-0.1-0.1l0-0.2
			L48,64.5l0,0.2l0.1,0.4l0.2,0.1l0.1,0.5l0.2,0.2l0.1-0.1l0-0.2l0.1,0l0.1,0.1L48.8,66l-0.2,0.1l0.2,0.1l0.5,0l0.1-0.1l-0.1-0.3
			L49,65.6l0.1-0.4L49,65.1l0.2,0l0.2-0.1l0-0.1l0,0.1l0.1,0.1l0.2,0.1l0.3-0.1l0.3,0.3l0.1,0.3l0.2,0.1l0,0.2l-0.2,0.2l-0.1,0
			l-0.1-0.1l0,0.5l0.2,0l0,0.1l-0.2,0.2l0.2,0.1l0.3,0.3l0.3-0.1l-0.1-0.6l0.3-0.2l0.3,0.1l0.1-0.1L51.2,66l-0.5,0.4l-0.1-0.1
			l0.1-0.4l0.2-0.2l0-0.7l-0.2,0l-0.1,0.5l-0.1,0.1l-0.1,0l0-0.1l0.1-0.2l0-0.1l-0.4-0.1l0-0.2l0.4-0.2l0.4,0.1l0.4,0l-0.1-0.1
			l-0.5-0.1l-0.3-0.1l-0.2,0.1l0-0.1l0.2-0.2l0.1,0l0.1,0.2l0.1-0.1l-0.1-0.3l0.4,0l0-0.1l0.2,0.3l0.1,0l0-0.1l-0.3-0.3l0.1-0.2
			l0.2,0l0.2,0.3l0,0.2l0.1,0l0.2-0.1l0.1-0.3L52,63.6l0.3-0.2L52.1,63l0-0.1l0.5,0.2l0.1-0.1l0.4,0.3l0.1-0.2l-0.4-0.6l0-0.2
			l0.1-0.2l0.4,0.7l0.5-0.4l0.3-0.1l-0.3-0.2l0-0.1l0.2-0.1L54,61.6l-0.3,0.1l-0.1,0.2l0.1,0.1l-0.1,0.1L53.4,62l0-0.1l-0.4-0.1
			L52.9,62l-0.2,0.1l-0.1,0l-0.1-0.4l-0.3,0l-0.3-0.1l-0.1,0.3l0,0.1l0.1,0l-0.3,0.4l0,0.1l0.3-0.1l0.4,0.1l0-0.1l0-0.2l0.1,0
			l0.2,0.1l0.1,0.3l-0.3,0.1l-0.3,0l-0.3,0.2l-0.1-0.3l-0.1,0.2l0.2,0.2L52,63l-0.1,0.2l-0.1,0.1L51.4,63l-0.1,0l0-0.3l-0.1-0.1
			l0.3-0.4L51.2,62l0.1-0.2l0.1-0.1l-0.1-0.3l0.3-0.4l0.5-0.3l0.2,0l0,0.2l-0.4,0.3l-0.3,0l-0.1,0.1l0,0.1l0.2,0.1l0.3,0l0.3-0.3
			l0.4,0l0,0.2l0.4,0l0.1-0.1l-0.1-0.1l-0.3,0L53,61l0.2,0l0.2-0.2l-0.1-0.2l-0.2,0L53,60.7l0,0.1l-0.1,0l-0.1,0.1l-0.2,0l-0.1-0.1
			L52.3,61l-0.1,0l0.4-0.4l0.2,0.1l0.1-0.2l-0.3-0.3l-0.2,0.3L52,60.4L52,60.4z M47.5,63.1l0.2,0.3l0.1-0.2l-0.1-0.2L47.5,63.1z
			 M47.9,63.3l0.3-0.1l0.2-0.2l0.2,0l0,0.1l0.1-0.5l-0.2,0l-0.4,0.5L47.9,63.3L47.9,63.3z M49.8,69.1L49.8,69.1l0.2,0L49.9,69
			L49.8,69.1L49.8,69.1z M48.8,64.4l0.1,0.3l0.2-0.2l0-0.1l-0.3-0.2L48.2,64l0,0.1l0.1,0.2l0,0.1L48.8,64.4L48.8,64.4z M50.2,69.8
			L50.2,69.8L50.2,69.8L50.2,69.8z M49,65.4l-0.2,0l-0.1-0.1L49,65.4L49,65.4z M50.4,69.8l0.2-0.1l-0.1-0.2L50.4,69.8L50.4,69.8z
			 M48,62.4l-0.1-0.1L48,62.4L48,62.4L48,62.4z M49.1,63.7l0.3-0.1l-0.3-0.2l-0.1-0.1l-0.7,0l-0.1,0.2l0,0.2l0.2,0.1l0.3-0.2l0.1,0
			l0.1,0.1L49.1,63.7z M50.4,69.3l0.1,0.2l0.1,0l0-0.1l-0.1-0.1L50.4,69.3z M50.2,68.8l0.2-0.1l0-0.1l-0.1,0.1L50.2,68.8z M50.2,68
			L50,67.7l0,0.2l0.1,0.1L50.2,68z M50.6,69l0-0.2l-0.1-0.1l-0.1,0.1L50.6,69L50.6,69z M51,69.9l-0.1-0.1l-0.1,0l0,0.1l0.1,0.1
			L51,69.9z M49.8,65.4l-0.4,0.1l0.1,0.3l0.2,0.3l0-0.4l0.3-0.1L49.8,65.4L49.8,65.4z M51.2,70.6l0-0.1l-0.1,0L51.2,70.6L51.2,70.6z
			 M48.5,62.5l0.3-0.2l-0.1,0l-0.1,0.1L48.5,62.5z M50.8,68.5l0,0.2l0.1-0.1L50.8,68.5L50.8,68.5z M50.7,68l0.2-0.1l-0.1-0.1
			l-0.1,0.1L50.7,68z M50.7,66.8l-0.2-0.1l-0.1-0.1l0.1,0l0.1,0.1L50.7,66.8L50.7,66.8z M49.1,62.2L49.1,62.2l-0.1,0L49.1,62.2
			L49.1,62.2z M51.1,68.2l0.1-0.2l-0.1,0L51.1,68.2L51.1,68.2z M49.9,64.6l0.1,0.1L49.9,64.6L49.9,64.6z M49.1,62l0.1,0.2l0.3,0
			l0-0.4l-0.2,0.1L49.1,62z M51.6,68.5l-0.2,0.1l0,0.2l0.1-0.1L51.6,68.5z M50.9,63.3l-0.2,0.2l0,0.1l-0.1,0l-0.1,0.1l0.2,0.3
			l-0.1,0l-0.5,0.1l-0.1,0l0-0.2l0.1-0.1l0.3,0.1l-0.2-0.3l0.1-0.2l0.1,0l0.2,0.1l0.1,0l-0.1-0.3l0.2-0.1L50.9,63.3L50.9,63.3z
			 M51.4,67.8l0-0.2l-0.1,0l0,0.2L51.4,67.8L51.4,67.8z M52.1,69.7l0-0.1L52,69.5l-0.1,0.1l0.1,0.1L52.1,69.7z M51.5,67.4l-0.1-0.2
			l-0.3-0.1l0.1,0.2L51.5,67.4L51.5,67.4z M50,63L50,63l-0.2,0l0-0.1L50,63z M51.2,66.5L51.2,66.5l-0.1,0.3l0.1,0l0-0.1L51.2,66.5z
			 M49.2,61.1l0.2,0.2l0.1,0l0-0.1l-0.1-0.1L49.2,61.1z M52.2,69.1l0-0.1l-0.2-0.2l0,0.2L52.2,69.1L52.2,69.1z M50.4,62.9l0,0.1
			l-0.1,0.1l-0.3,0l0-0.1l0.2-0.2L50.4,62.9L50.4,62.9z M51.5,66.7l-0.1-0.1l0,0.1L51.5,66.7z M52.3,69.3l0.2,0.1l0-0.1L52.3,69.3
			L52.3,69.3z M50.4,62.1l0,0.2l-0.1,0.2l-0.3,0.1L50,62.5l0.3-0.4L50.4,62.1L50.4,62.1z M51.1,65.4l-0.1,0l0.1,0.1L51.1,65.4z
			 M52.2,68.5l-0.1,0.2L52.2,68.5L52.2,68.5z M52,67.7l-0.1-0.1l0,0.2l0.1,0L52,67.7L52,67.7z M51.2,65.6l0,0.2l0.2,0l0-0.1
			l-0.1-0.1L51.2,65.6z M52.6,66.3l0.1-0.2l-0.1-0.1l0.1,0l0.1-0.1l-0.2-0.2l0-0.1l-0.2,0.2l-0.1,0.3l-0.3,0l0-0.4l-0.2-0.5l-0.3,0
			l0.4,0.5l-0.4,0l0.2,0.4l0.3,0l0.2,0.2l-0.4,0.7l0,0.1l0.4-0.1l0-0.1l0.3-0.6l-0.1-0.2L52.6,66.3L52.6,66.3z M52.4,68.4l0-0.1
			l-0.2-0.1L52.4,68.4L52.4,68.4z M52.4,67.6l0.2,0.1l0.1,0l0.2-0.1L52.4,67.6L52.4,67.6z M51.8,64.5L51.8,64.5l-0.2-0.1l-0.1,0.3
			l0,0.3l0.3-0.2l0-0.1L51.8,64.5z M50.8,62l-0.1,0.1L50.5,62l0.1-0.2l0.1,0L50.8,62z M50.9,62.4l0.1,0l0,0.1l-0.2,0.1l0-0.2
			L50.9,62.4z M53.1,66.7L53,66.5l-0.3,0.1L52.4,67l0.1,0.3l0.1,0l0-0.3l0.3,0l0.2-0.1L53.1,66.7z M51.2,63.4l0.2-0.1l0.1,0.1
			l-0.1,0.1L51.2,63.4z M52.9,67.9l0.1-0.1l-0.1-0.2l-0.1,0.1L52.9,67.9L52.9,67.9z M50.9,61.7l-0.1,0l0.1-0.1L50.9,61.7L50.9,61.7z
			 M51.7,63.9l0.1-0.2L51.7,63.9L51.7,63.9z M50.6,60.2l-0.1-0.1L50.6,60.2L50.6,60.2z M51.9,63.6l-0.2,0l0-0.1L51.9,63.6L51.9,63.6
			z M52.1,64.6l-0.1,0.1l0.1,0.2l0,0.2l0.1,0l0.1-0.1l-0.1-0.3L52.1,64.6L52.1,64.6z M53.4,67.9l0-0.2l-0.1,0l0,0.1L53.4,67.9z
			 M53.6,67.9L53.4,68l0.1,0.1l0.1-0.1L53.6,67.9z M53.4,67.1l-0.2,0.2l0.1,0.1l0-0.1L53.4,67.1z M53.3,65.7L53.3,65.7l-0.3,0.1
			l-0.4-0.2l0.4,0.4l0,0.5l0.1,0l0.3-0.2l0-0.2L53.3,65.7L53.3,65.7z M52.7,65.3l0,0.2l0.1-0.1L52.7,65.3L52.7,65.3z M53.7,67.5
			l-0.1,0l0,0.1L53.7,67.5L53.7,67.5z M51.2,60.6l0.2,0l-0.1-0.1L51.2,60.6L51.2,60.6z M52.5,64.4l0.3-0.1l0-0.2l-0.2,0l-0.1,0.2
			L52.5,64.4z M52.9,65.3l0.2,0.1l0.2-0.3l0-0.1l-0.2,0l0-0.1L52.9,65l0,0.1L52.9,65.3z M51.2,59.9L51.1,60l0.1,0.3l0.2-0.2
			l-0.1-0.2L51.2,59.9z M52.4,63.5l0,0.2l0.1,0L52.4,63.5L52.4,63.5z M52,62.3l0-0.3l0.2-0.1l-0.1,0.2l0,0.1L52,62.3L52,62.3z
			 M54.4,65.5l0.1-0.7l-0.2-0.2L54,64.6l-0.1,0.2l-0.2,0l0.1,0.2l0.4,0l-0.1,0.1l-0.1,0.2l-0.1-0.2l-0.2,0.1l-0.1,0.2l-0.1,0
			l-0.1,0.2l0,0.1l0.1-0.1l0-0.1l0.8,0.1l0.3,0.1l0.1-0.1l0-0.1L54.4,65.5L54.4,65.5z M51.6,60.3l-0.1-0.1l0,0.1L51.6,60.3
			L51.6,60.3z M52.7,63.7l0.4-0.2L53,63.3l-0.2,0l-0.1,0.2L52.7,63.7L52.7,63.7z M53.1,64.4L53.1,64.4L53,64.5l0.1,0L53.1,64.4z
			 M53.7,64.6L53.7,64.6l-0.4,0.1l0,0.1l0.2-0.1L53.7,64.6z M51.9,60.3L51.9,60.3l0.1-0.1L52,60.1l-0.1,0.1L51.9,60.3z M53.3,63.9
			l0,0.1l0.2,0l0.4-0.1l0.2,0l0.1-0.2l-0.1-0.2l-0.1-0.2l-0.3-0.2l0.2,0.3l0,0.1l-0.1,0.1L53.3,63.9L53.3,63.9z M54.4,65.8l-0.2,0.1
			l0,0.1l0.2,0L54.4,65.8L54.4,65.8z M53.5,63.4l-0.1-0.1L53.5,63.4L53.5,63.4z M52,59.2l0.2,0l0.1-0.1l-0.1-0.4L52,59l0,0.1
			L52,59.2z M54.8,64.5l0-0.2l-0.2-0.1l-0.3,0.1l0.3,0.1L54.8,64.5z M52.8,60l0.2-0.2l0-0.3l-0.2,0.1l-0.1,0.2L52.8,60L52.8,60z
			 M54.8,65.5l0-0.2l-0.1,0l-0.1,0.1l0.1,0L54.8,65.5z M52.5,58.5l0.2,0l0.1-0.1l0-0.1l-0.2,0.1L52.5,58.5z M54.4,64.1l0.3-0.1
			l0.1-0.2l-0.3,0.2L54.4,64.1z M54.7,64.8L54.7,64.8l0.4,0.2l0-0.1L54.7,64.8L54.7,64.8z M54.4,63l0-0.2l-0.2,0.1L54.4,63L54.4,63z
			 M53.8,61.1L53.8,61.1l-0.2,0l0.1,0.1L53.8,61.1z M53.4,60.4l0.2,0l0.4-0.3l-0.7-0.1l0,0.1l0.2,0.3L53.4,60.4z M53.6,60.9l0.1,0
			l0-0.1l-0.1,0l0,0.1L53.6,60.9z M55.1,64.6l0.3-0.4l0.1,0l0.2-0.1l-0.4-0.3l0-0.1l-0.1,0.1l-0.1,0.6L55,64.5l0.2,0.3l0,0.2
			l0.2-0.1l0.4,0l-0.1-0.2l-0.3,0L55.1,64.6z M52.8,57.9l0,0.1L52.8,57.9L52.8,57.9z M55.1,63L55.1,63l-0.3-0.1L54.6,63l0.1,0.2
			l0.2,0.1l0,0.1L55.1,63l0.1,0.1l0-0.3L55.1,63z M55.5,65.2l-0.1-0.1L55.5,65.2L55.5,65.2z M53.1,58.4L53.1,58.4l0.2,0L53.1,58.4
			L53.1,58.4z M54.7,62.9l0.2-0.1l0.2,0l0-0.2l-0.1-0.1l-0.2,0.1l-0.1,0.2L54.7,62.9z M55.2,63.2L55.2,63.2l0.2,0.1L55.2,63.2
			L55.2,63.2z M55.7,63.2l0-0.2l-0.1-0.1l-0.2-0.1l0,0.2L55.7,63.2L55.7,63.2z M56.3,65.1l0-0.2l-0.1-0.1L56.3,65.1L56.3,65.1z
			 M55.2,62.1l0.1,0.1l0.1-0.1l-0.1,0L55.2,62.1z M56.5,65.6l0.1,0.1l0.1-0.1L56.5,65.6L56.5,65.6z M57.3,63.3l-0.2-0.1l-0.3-0.5
			l-0.1,0.3l-0.2,0.1l-0.1,0l0.2,0.2l0.1-0.2l0.3,0.3l0.1,0L57.3,63.3z M56.8,62.5l-0.1-0.1l-0.2,0.2l0.2,0.1L56.8,62.5L56.8,62.5z
			 M57.2,62.2l0.2,0L57.2,62l-0.4-0.1L56.7,62l0.3,0.4l0.1,0.4l0.1,0l0.1-0.2L57.2,62.2L57.2,62.2z M57.3,61.7L57.3,61.7l-0.1-0.2
			L57.3,61.7L57.3,61.7z M58.1,61.7L58,61.5l-0.4,0l0.1,0.2l0,0.3l0.2,0L58.1,61.7L58.1,61.7z M57.5,61.3l0.1-0.2l-0.1-0.1l-0.1,0
			L57.5,61.3z M58,61.1l0.1,0.1l0.2,0.1l-0.1-0.2L58,61.1L58,61.1z M58.3,61.2l0.3,0.1l0.1,0l-0.1-0.1L58.3,61.2L58.3,61.2z
			 M58.5,60.9l0-0.2l-0.2,0.1L58.5,60.9L58.5,60.9z M59.4,62.4l-0.1,0.1l0,0.1l0.1,0L59.4,62.4L59.4,62.4z M58.9,60.5l-0.1,0.1
			l-0.1,0.2l0.1,0l0-0.1L58.9,60.5z M59.2,60.7l-0.1,0.2L59.2,60.7L59.2,60.7z M61.5,60.7l0-0.1L61.5,60.7L61.5,60.7L61.5,60.7z
			 M61.4,58.9L61.4,58.9l-0.1,0L61.4,58.9L61.4,58.9z M62.9,60l-0.1-0.2l-0.1,0L62.9,60L62.9,60z"/>
	</g>
	<path class="st0" d="M66.4,44.7l-0.1-0.3L66,44l-0.4-0.3l-0.4,0l-0.3,0.4l-0.1,0.3l-0.1,0.3L64.5,45l-0.1,0.3l0,0.3L64,46.5v0.2
		l-0.3,0.7l-0.5,1.1l-0.5,1.1l-0.2,0.6L62,50.6l-0.6,1l-0.6,0.7l-0.2,0.1l-0.4-0.1l-0.2-0.4l-0.1-1.1l0.1-0.1l0.1-0.6l0.2-1.5
		l0.3-1.4l0.2-0.6v-0.2l0.1-0.3L61,45l0-0.3l0.2-0.3l0.1-0.5l0.2-0.6l0.1-0.4h0.1l0.1-0.6l0.4-1.4v-0.2l0.1,0l0.1-0.7l0.3-1.4v-1.4
		l-0.1-1.5l-0.1-0.2l-0.1-0.6l-0.5-1h-0.1l-0.1-0.2L61,33l-0.4-0.1l-0.9-0.1L59,32.9l-0.8,0.4l-0.6,0.3l-0.7,0.5l-0.1,0.3l-0.2,0
		l-0.3,0.3l-0.4,0.2l-0.2-0.3l0-0.1l0-0.3l0.3-1.4l0.2-0.6l0.1-0.6l0.1-0.1l0.2-0.7l0.2-1.3l0.1-0.3l0.1-0.6l0.3-1l0.3-1.5l0,0
		l0-0.2l0.1-0.1l0.2-0.7l0.2-1.4l0.1-0.3l0.1-0.7l0.4-1.1l0.3-1.7l-0.1-0.7l-0.1-0.3v-0.1l-0.1-0.1h-0.1l-0.2-0.3L58.1,18l-0.9,0
		l-0.9-0.1l-0.8,0l-0.9,0.1l-0.1,0.2h-0.1l-0.1,0.3l-0.2,0.2l0,0.3L53.8,20l-0.3,1.4l-0.1,0.1L53.2,23l-0.2,1.5l-0.2,0.4l-0.1,0.4
		l-0.1,0.1l-0.2,1.3l0.1,0l-0.2,0.9l-0.1,0.1l-0.3,1.3l-0.2,1.4l-0.2,0.4l-0.1,0.4l-0.1,0.1l-0.2,1.2l-0.4,1.3l-0.3,1.4l-0.3,1.4
		l-0.3,1.4l-0.3,1l-0.1,0.7l-0.1,0.2l-0.1,0.6l-0.2,0.3l-0.3,1.3l-0.1,0.7l-0.1,0.3L48.4,44l-0.3,1.1h-0.1l0,0.2l-0.3,1.4L47.4,48
		l-0.1,0.1l-0.1,0.4v0L46.5,51l-0.2,0.5l-0.3,0.6l-0.6,1L44.8,54l-0.7,0.7l-0.3,0.1l-0.1,0.1l-0.4,0.3l-0.8,0.6L41.8,56l-0.9,0.1
		l-0.9,0.2l-0.6-0.2l-0.7-0.5l-0.3-0.1l-0.1-0.1l-0.5-0.9l-0.2-0.7l0-0.3l0.1-0.4l0.2-0.5l0.2-0.2l0.5,0.1l0.8,0.1l0.8-0.1l0.3,0.1
		l0.8-0.1l0.1-0.1l0.8-0.4l0.8-0.3l0.2-0.2l0.2-0.1l0.7-0.7l0.4-0.3l0.6-1l0.2-0.5l0.5-1.1l0.6-2.5l0.1-0.8l0.2-1.4v-1.5h-0.1v-0.2
		l-0.3-1.4l-0.2-0.5l-0.1-0.3l-0.5-0.8l-0.5-0.7l-0.1,0l-0.1-0.1l-0.6-0.4l-0.1-0.1l-0.4,0l-0.6-0.4l-0.4-0.1l-0.9,0l-0.9-0.1
		l-0.1,0.1H41l-0.3,0.1l-0.8,0.2l-0.8,0.4l-0.8,0.5l-0.7,0.8l-0.7,0.7l-0.1,0.2l-0.2,0.1l-0.3,0.7l-0.3,0.5l-0.1,0.3l-0.3,0.4
		l-0.1,0.3l-0.3,0.7l-0.1,0.3l-0.2,0.2v0.2l-0.2,0.3l0,0.3l-0.1,0.1l-0.2,0.6l-0.2,0.2l0,0.4l-0.1,0.3l-0.1,0.3l-0.4-0.3l-1.5-0.8
		l-0.8-0.2l-0.4,0l-0.1,0l-0.2,0l0,0.1l-0.3,0l-0.2,0.1l-0.4,0.7l-0.4,0.7l-0.2,0.7L29,47.3l0.2,0.1l0,0.1l0.3,0.2l0.1,0.2l0.3,0.1
		l0.8,0.5l1.3,0.7l0.1,0.1l1.1,0.6l0,0.7L33.1,52v1.6l0.1,1.2l0.2,0.7l0.3,1.5l0.1,0.2v0.2l0.1,0.2l0.5,1.1l0.3,0.4l0.6,0.9l0.6,0.5
		l0.3,0.1l0.1,0.1l0.2,0l0.1,0.1l0.9,0.1l0.5,0.2l0.9,0.1l1,0l0.7-0.1l0.4-0.2l0.9-0.2l0.8-0.5l0.7-0.3l0.2-0.2l0.2,0l0.3-0.3
		l0.3-0.2l0.7-0.6l0.7-0.8l0.7-0.8L47,57l0.9,0.1l1,0l0.8-0.2l0.3-0.2l0.3-0.4l0.3-1.1l0-0.3h0.1v-0.2h0.1l0-0.2l0.3-1.3l0.3-1.2
		l0.3-1.3l0.2-1.3h0.1v-0.2l0.3-1l0.2-1.2h0.1v-0.2h0.1v-0.2l0.2-1l0.3-1.3l0.3-1.2h0.1v-0.2l0.2-0.4l0.1-0.3l0.2-0.3l0.2-0.6
		l0.6-0.8l0.3-0.1l0.2-0.2l0.8-0.5l0.4-0.1l0.1,0.1l0.4,0.2l0.2,0.5l-0.1,1.1l-0.2,0.7l-0.3,1.4l-0.3,1.4l-0.3,1.3l-0.1,0.7
		l-0.1,0.1l0,0.2l-0.3,1.4l-0.1,0.7l-0.1,0.1l-0.1,0.7l-0.1,1.5l0,1.5l0.1,1.4l0.3,1.2l0.1,0.1l0,0.4l0.3,0.4l0.8,0.8l0.8,0.4
		l0.8,0.2l0.5-0.1l0.9-0.2l0.3-0.2l0.6-0.3l0.1-0.2l0.3-0.2l0.3-0.4l0.3-0.3l0.1-0.2l0.2-0.1l0.7-1l0.4-0.4l0.6-1.1l0.6-1l0.4-1
		v-0.2l0.5-1l0.5-1.1l0.1-0.3l0.4-1.2l0.3-1l0.1-0.2L66.4,44.7z M44.1,44.1L44.1,44.1l0.2-0.1l0.1,0.1v0.2l-0.1,0.1l-0.2-0.1V44.1z
		 M44,41.7l0,0.2L43.9,42L43.7,42l0-0.2H44z M38.9,46.5l0.3-0.5v-0.2h0.1l0.2-0.6L40,44h0.1l0.2-0.4l0.3-0.4l0.3-0.2l0.4-0.1
		l0.4,0.2l0.2,0.2l0.1,0.5L42,44.4l-0.3,1.4L41.6,46l-0.1,0.4l-0.6,1.1l-0.2,0l-0.1,0.1L40,48.1l-0.9,0.1l-0.3-0.2l-0.2-0.3l0-0.4
		L38.9,46.5z M37.7,46.8l-0.1,0l-0.1-0.1l0-0.1l0.1-0.1l0.1,0.1L37.7,46.8z M37.3,45.1h0.1l0.2,0.1v0.2l-0.3,0.1V45.1z M36.4,55.8
		l-0.2,0.1v-0.4l0.1-0.1l0.1,0.3L36.4,55.8z M37,51.6l-0.2,0.1L36.8,52l-0.1,0v0l0.2-0.6l0.1,0V51.6z M49.9,51.2h-0.1v-0.4h0.1V51.2
		z M51.4,43.7L51.4,43.7l-0.2,0l0-0.1l0.2-0.2l0.1,0.1L51.4,43.7z M51.5,41.9L51.4,42l-0.2-0.2l0-0.1l0.2,0L51.5,41.9L51.5,41.9z
		 M51.8,40.7L51.8,40.7l-0.2-0.1l0-0.2h0.2V40.7z M52,38.6L52,38.6l-0.2,0.1l0-0.1l0.1-0.6l0-0.1h0.2L52,38.6z M52.8,38.7h-0.1
		L52.6,39l-0.1,0l-0.1-0.2l0-0.4l0.1-0.4l0.1-0.3h0.1l0.2,0.1l0.1,0.3L52.8,38.7z M53,36.5l-0.2-0.1v-0.1l0.1-0.1H53V36.5z
		 M53.4,35.2L53.4,35.2l-0.2,0l-0.1-0.3l0,0l0.2-0.2h0.2L53.4,35.2z M57.1,51.6L57,51.5l0.1-0.6l0.1,0l0.3-0.3L57.1,51.6z
		 M59.9,44.3h-0.1v-0.1l0.1-0.2l0.1,0.1L59.9,44.3z M60.4,39l0.1,0.3l-0.3,0v-0.1l0,0l0.1-0.1L60.4,39z M59.9,38l0.2-0.2l0.1,0.1
		l-0.1,0.4l-0.1,0l0-0.1V38z M58.9,38.2l0.2,0.1l0.1,0l0.2-0.2l0.2,0l0.1,0.2l-0.1,0.5l-0.7-0.1L58.9,38.2z M59.5,41.6l0.2,0.6h-0.1
		l-0.2-0.3L59.5,41.6L59.5,41.6z M59,40.4L59,40.4l0.1,0.3l-0.3,0l-0.2-0.2l0-0.1L59,40.4z M58.2,50.5L58,50.7l-0.2,0.1v-0.6h0.3
		V50.5z M58.2,49.3L58.2,49.3l0.1,0.4h-0.1L58.2,49.3z M58.4,50.9h-0.2v-0.1l0.1-0.4l0.1,0.2L58.4,50.9z M58.8,45.8l-0.3,0.1v-0.1
		l0.1-0.4l0.2,0.1L58.8,45.8L58.8,45.8z M58.9,46.4v-0.2l0.1,0l0,0.3L58.9,46.4z M59.5,44.4h-0.2l-0.2-0.8l-0.2-0.1V43l0.1,0l0,0.4
		l0.3,0.2l0.1,0.5L59.5,44.4L59.5,44.4z M59.8,43.3l-0.2,0.3l-0.1-0.3l0-0.1l0.1-0.1l0.2,0L59.8,43.3z M59.6,41L59.6,41l-0.1-0.2
		l0.1-0.4l0.2-0.1l0.1,0.1l-0.1,0.5L59.6,41z"/>
	<path class="st0" d="M49.2,27.9l0-0.2l0-0.1l0,0L49,27.5l-0.1,0l-0.1,0l-0.1,0.1l0,0.1l0,0.1l0,0l0,0l0,0l0,0.1l0,0.1l-0.1,0.3
		l0,0.1l-0.1,0.2l-0.1,0.3L48.2,29L48.2,29l0,0.1l0,0L48,29.3l-0.1,0.2l0,0l-0.1,0.1l-0.1,0l0,0l-0.2,0.1l-0.2,0.2l-0.1,0L47,30
		l-0.1,0l-0.1,0l0,0l0,0l0,0l-0.1-0.1l-0.1-0.1l-0.1-0.1l0-0.3l0-0.1l0.1-0.1l0.2,0L47,29l0.2-0.1l0.2-0.1l0.2-0.1l0,0l0.1-0.1l0,0
		l0,0l0-0.1l0,0l0,0l0,0l0,0l0.1,0l0-0.1l0,0l0-0.1l0.1-0.2l0-0.1l0.1-0.1l0-0.1l0.1-0.2l0-0.2l0-0.3l0-0.3l0-0.3l-0.1-0.2l0,0l0,0
		l0,0l0,0l0,0l0,0l0,0l0,0l-0.2-0.2l-0.2-0.1l0,0l0,0l-0.1,0l-0.1,0l-0.2,0l-0.2,0.1l-0.2,0.1l0,0l0,0l0,0l-0.2,0.1l-0.2,0.2
		l-0.2,0.2l-0.1,0.1l0,0l0,0.1L46,26.9l-0.1,0.2l-0.1,0.1l0,0.1l0,0.1l-0.1,0.3L45.7,28l-0.1,0.3l0,0.3l0,0.2l0,0l0,0l0,0.1l0,0.1
		l0,0.1l-0.1,0.3l0,0l0,0.1l-0.1,0.3l0,0.1l0,0.1l0,0.1l0,0.1l-0.1,0.2L45,30.4l0,0.1l-0.1,0.2l0,0l-0.2,0.1l-0.1-0.1l0-0.1l0-0.1
		l0-0.3l0,0l0-0.2l0-0.3l0-0.3l0,0l0-0.1l0-0.1l0-0.2l0-0.1l0-0.3l0-0.3l0-0.2l0-0.3l0-0.3l0.1-0.3l0-0.3l0-0.1l0-0.1l0-0.3l0.1-0.3
		l0-0.3l0.1-0.6l0-0.3l0-0.3l0-0.1l0,0L45,25l-0.2,0l-0.2,0.1l-0.2,0.1l-0.1,0.1l-0.1,0.2l0,0l0,0.1l0,0.1l0,0.1l0,0.1l0,0.1l0,0.3
		l0,0l0,0.1l0,0.1l0,0.1l0,0l0,0.2l0,0.2l0,0.3l0,0.2l0,0l0,0l0,0l0,0l0,0l0,0l0,0l0,0l0,0l0,0l-0.1,0.1l-0.1,0l0,0l0-0.1l-0.1-0.1
		l-0.2-0.1l-0.1,0l-0.2,0.1l-0.2,0.1l-0.2,0.1l-0.2,0.2l-0.1,0.1l0,0l-0.1,0.2l-0.1,0.1l0,0l-0.1,0.2l0,0l0,0.1l0,0l0,0l0,0.1l0,0.1
		L42,28.9l0,0.1l0,0.1l0,0.1l-0.1,0.2l0,0.1l-0.1,0.3l0,0.1l0,0l0,0l0,0.3l0,0l0,0.1l0,0.1l0,0.1l-0.1,0.2l0,0.2l0,0.1l0,0L41.6,31
		l0,0.1l0,0l0,0l-0.1,0.2l0,0.1l0,0.1l0,0.1l-0.1,0.2L41.2,32L41,32.2l-0.1,0.1l0,0l-0.1-0.1l0-0.1l0-0.1l0-0.1l0-0.1l0-0.3l0-0.3
		l0-0.3l0-0.3l0-0.3l0,0l0-0.1l0-0.1l0-0.1l0-0.2l0-0.1l0-0.2l0-0.1l0-0.1l0-0.1l0-0.1l0-0.2l0-0.3l0,0l0-0.3l0-0.1L41,28.4l-0.1,0
		l0,0l-0.1,0l0,0l0,0l-0.2,0.2l-0.1,0.1l0,0.1L40.3,29l-0.1,0.1l-0.1,0l-0.1,0L40,29l-0.2-0.2l-0.1,0l0,0l0,0l0,0l-0.2,0l-0.1,0
		l-0.2,0.1l-0.2,0.1L38.8,29l0,0l-0.1,0.1l0,0.1l0,0l0,0l0,0l0,0l-0.1,0.3l0,0.1l-0.1,0.1l-0.1,0.2l-0.1,0.2l0,0l0,0l0,0l0,0l0,0
		l0,0l0,0l0,0l0,0l0,0l0,0l0,0l0,0l0,0l0,0l0,0l0,0l0,0l0,0.2l0,0.3l0,0.3l0,0l0,0.1L37.9,32l0,0.1l0,0.1l0,0l0,0l0,0l0,0l0,0.1
		l-0.1,0.3l-0.1,0.3L37.6,33l0,0.1l-0.1,0.3l-0.1,0.1l-0.1,0.1l-0.1,0l-0.1,0l0-0.1l0-0.1l0,0l0-0.2l0-0.3l0-0.3l0-0.1l0-0.1l0-0.3
		l0-0.2l0-0.3l0-0.2l0-0.1l0,0l0-0.1l0-0.1L37,30.8l0-0.1l-0.1,0l0-0.1l-0.1,0l-0.1-0.1l0,0l0,0l-0.2-0.1l-0.2-0.1l0,0l-0.1,0l0,0
		l0,0l0,0l0,0l0,0l0,0l0-0.1l0-0.3l0-0.1l0,0l0-0.2l0,0l0-0.1l0,0l0-0.1l0,0l-0.2,0l-0.1,0l-0.2,0.2l0,0.1l0,0l0,0l-0.1,0.2l0,0.1
		l0,0.2l0,0.3l0,0.1l0.1,0.2l0.1,0.2l0,0.1l0,0.3l0,0.3L35.4,32l0,0l0,0l0,0l0,0.1l0,0.3l0,0.2l0,0l-0.1,0.2l0,0.1l0,0.1l-0.1,0.3
		l0,0.1l0,0.1l0,0.1l0,0.1l-0.2,0.5l-0.1,0.2l-0.1,0.2l0,0l0,0.1l-0.1,0.2l0,0l0,0l0,0l0,0l0,0l0,0l0-0.1l0-0.2l0-0.1l0-0.1l0,0
		l0-0.1l0-0.3l0-0.1l0-0.1l0-0.1l0-0.2l0-0.3l0-0.3l0.1-0.3l0-0.2l0-0.2l0-0.1l0-0.1l0-0.1l0-0.3l0,0l0-0.1l0-0.1l0-0.1l0-0.3l0-0.3
		l0-0.1l0,0l-0.1,0l0,0l0,0l-0.1,0l-0.1,0.1l-0.2,0.1L34,31.2l-0.1,0.1l-0.2,0.2l-0.1,0l-0.2-0.1l0,0l0,0l0,0l-0.1,0l-0.1-0.1l0,0
		l-0.1-0.1l-0.1,0l0,0l-0.1,0l0,0l-0.1,0.1l-0.2,0.1l-0.2,0.1l0,0l-0.1,0.1l0,0l0,0l0,0l0,0l0,0l0,0l0,0.1L32,31.9l-0.1,0.3
		l-0.1,0.3l-0.1,0.1l0,0l0,0l0,0l0,0l0,0.1l0,0l0,0L31.7,33l0,0.2l0,0.3l0,0.3l0,0.1l0,0.1l0,0.1l0,0.1l0,0.3l0,0.3l0,0.3l0,0.2
		l0,0.3l0,0.1l0.1,0.3l0.1,0.2l0,0l0,0l0,0l0,0.1l0,0l0.1,0.1l0,0l0,0l0.1,0l0.2,0l0.2-0.1l0,0l0,0l0.2-0.2l0.1-0.1l0,0l0-0.1l0.1,0
		l0.1,0l0,0.2l0,0.1l-0.1,0.2l-0.2,0.2l-0.1,0.1l-0.1,0.1l-0.2,0.2l0,0.1l-0.1,0.1l0,0l0,0l0,0l0,0l0,0l0,0.1l-0.1,0.1l0,0l0,0.1
		l-0.1,0.2l0,0.1l0,0.2l0,0.3l0,0.1l0.1,0.2l0,0l0,0l0,0l0,0l0,0l0,0.1l0,0l0,0l0,0l0.1,0.1l0,0l0.2,0.1l0.1,0l0.2,0l0.2-0.1
		l0.2-0.1l0.1-0.1l0.2-0.2l0.1-0.1l0.1-0.2l0,0l0.1-0.1l0.1-0.3l0.1-0.3l0-0.1l0-0.2l0-0.2l0,0l0-0.1l0,0l0,0l0,0l0-0.1l0,0l0-0.2
		l0,0l0-0.1l0,0l0-0.1l0.1-0.2l0-0.1l0.1-0.1l0.1-0.1l0.1-0.1l0,0l0,0l0.2-0.2l0.1-0.1l0-0.1l0,0l0.1-0.1l0,0l0-0.1l0.1-0.1l0-0.1
		l0,0l0.1-0.2l0.1-0.2l0.1-0.2l0.1-0.3l0.1-0.1l0.1-0.3l0-0.1l0,0l0,0l0-0.1l0,0l0-0.1l0.1-0.2l0-0.1l0,0l0-0.1l0.1-0.3l0,0l0-0.1
		l0-0.1l0-0.1l0-0.1l0-0.1l0-0.1l0-0.3l0.1-0.2l0,0l0,0l0.2,0.1l0.1,0.1l0,0.1l0,0.1l0,0.3l0,0.3l0,0.1l0,0.2l0,0l0,0l0,0.1l0,0.2
		l0,0l0,0.2l0,0.3l0,0.3l0,0.3l0,0.1l0.1,0.2l0.1,0.1l0.2,0.2l0.1,0l0,0l0.1,0l0,0l0.2,0l0.2-0.1l0.2-0.1l0.1-0.1l0.1-0.2l0,0l0,0
		l0,0l0,0l0,0l0.1-0.1l0.1-0.1l0,0l0.1-0.2l0,0l0-0.1l0,0l0-0.1l0-0.1l0,0l0,0.1l0,0l0,0.1l0,0l0,0.1l0,0l0.1,0.1l0.2,0.2l0,0l0.1,0
		l0.2,0l0.1,0l0.2-0.1l0.2-0.1l0.1-0.1l0.2-0.2l0-0.1l0,0l0.1-0.2l0.1-0.1l0,0l0.1,0l0,0.1l0,0l0,0.1l0,0l0,0l0,0.1l0.1,0l0,0l0,0
		l0.1,0l0.1,0l0.1,0l0.1,0l0.2-0.1l0.1-0.1L41,33l0.1-0.1l0,0l0,0l0.1-0.1l0.1-0.1l0.1-0.2l0.1-0.2l0.1-0.1l0,0l0.1-0.3l0-0.1l0,0.1
		l0.1,0.2l0.1,0.2l0,0l0,0l0,0l0.1,0.1l0.1,0l0,0l0,0l0,0l0.1,0l0,0l0,0l0,0l0.2-0.1l0.2-0.1l0.2-0.2l0-0.1l0.1-0.2l0,0l0.1-0.2
		l0.1,0l0,0l0.1,0.1l0,0l0,0l0.1,0.1l0.2,0.1l0.1,0l0.1,0l0.2-0.1l0.2-0.1l0,0l0.2-0.1l0.2-0.2l0,0l0.1-0.1l0,0l0.1-0.1l0,0l0.1,0
		l0.1-0.2l0.1-0.3l0.1-0.2l0.1-0.3l0,0l0,0l0.1,0.2l0,0.1l0.2,0.2l0.1,0.1l0.1,0.1l0.2,0.1l0.2,0l0.1,0l0.1,0l0,0l0.1-0.1l0,0l0,0
		l0.2-0.1l0.2-0.1l0.1-0.1l0.2-0.1l0.1-0.1l0.2-0.2l0.1-0.1l0.1-0.1l0-0.1l0,0l0,0l0,0l0,0l0.1-0.1l0.1-0.2l0.1-0.2l0.1-0.2l0.1-0.2
		l0-0.1l0.1-0.2l0-0.1l0,0l0-0.1l0.1-0.2L49.2,27.9L49.2,27.9L49.2,27.9L49.2,27.9L49.2,27.9z M47.7,26.6L47.7,26.6L47.7,26.6
		L47.7,26.6L47.7,26.6z M46.6,28.2l0-0.3l0.1-0.3l0,0l0,0l0-0.1l0.1-0.1l0.1-0.2l0.1-0.1l0.2-0.2l0.1,0l0,0l0.1,0.1l0,0.1l0,0.1
		l0,0.1l0,0.3l-0.1,0.2l0,0.1L47.2,28l0,0l-0.1,0.1L47,28.2l-0.2,0.1l-0.1,0l0,0l-0.1-0.1L46.6,28.2z M32.1,32.9L32.1,32.9
		L32.1,32.9L32.1,32.9L32.1,32.9z M32,33.6L32,33.6L32,33.6L32,33.6L32,33.6z M32,34.5L32,34.5L32,34.5L32,34.5L32,34.5L32,34.5
		l0.2-0.1l0,0l0,0l0,0L32,34.5z M32.1,35L32.1,35L32.1,35L32.1,35l0.1,0l0,0L32.1,35L32.1,35z M32.2,32.9L32.2,32.9L32.2,32.9
		L32.2,32.9L32.2,32.9z M32.2,35.7L32.2,35.7L32.2,35.7L32.2,35.7L32.2,35.7L32.2,35.7L32.2,35.7z M32.2,32.4L32.2,32.4L32.2,32.4
		L32.2,32.4L32.2,32.4L32.2,32.4z M32.3,32.8L32.3,32.8L32.3,32.8L32.3,32.8L32.3,32.8L32.3,32.8L32.3,32.8z M32.9,37.4L32.9,37.4
		l0,0.1l0,0.1l-0.1,0.1l0,0L32.6,38l-0.1,0.1l-0.1,0l0,0L32.3,38l0-0.1l0-0.1l0.1-0.1l0.1-0.1l0.1-0.2l0,0l0,0l0.1-0.2l0,0l0.1,0
		l0,0.1L32.9,37.4z M33.8,32.2L33.8,32.2L33.8,32.2L33.8,32.2L33.8,32.2l0.1,0l0,0.1L33.8,32.2L33.8,32.2z M33.8,34.7L33.8,34.7
		L33.8,34.7L33.8,34.7L33.8,34.7z M33.9,34.8L33.9,34.8L33.9,34.8L33.9,34.8L33.9,34.8L33.9,34.8L33.9,34.8z M33.6,34.4L33.6,34.4
		L33.6,34.4L33.6,34.4L33.6,34.4z M32.6,32L32.6,32L32.6,32l0,0.1l0,0L32.6,32L32.6,32z M33.2,36.6L33.2,36.6L33.2,36.6L33.2,36.6
		L33.2,36.6L33.2,36.6L33.2,36.6L33.2,36.6z M33.3,33.8l0,0.2l0,0.2l-0.1,0.2l-0.1,0.3l0,0l-0.1,0.1l0,0L32.8,35l-0.1,0l-0.1,0l0,0
		l-0.1-0.1l0-0.1l0-0.3l0,0l0-0.1l0-0.3l0-0.3l0,0l0,0l0-0.1l0-0.3l0-0.1l0-0.1l0-0.1l0-0.1l0,0l0-0.1l0-0.1l0,0l0-0.1l0-0.1
		l0.1-0.1l0.1-0.1l0,0l0,0l0,0l0,0l0-0.1l0.1-0.1l0.1-0.1l0,0l0,0l0.1,0l0.1,0.1l0.1,0.1l0,0.1l0,0.3l0,0.2l0,0l0,0l0,0l0,0.1l0,0.3
		L33.3,33.8L33.3,33.8z M33.5,35.9L33.5,35.9L33.5,35.9L33.5,35.9L33.5,35.9L33.5,35.9L33.5,35.9z M33.4,35.4l0-0.2l0,0l0,0l0,0
		L33.4,35.4L33.4,35.4L33.4,35.4z M33.5,35.7L33.5,35.7L33.5,35.7L33.5,35.7L33.5,35.7L33.5,35.7L33.5,35.7z M33.6,35.9L33.6,35.9
		L33.6,35.9L33.6,35.9l0-0.1l0,0l0.1,0L33.6,35.9z M33.6,35.1l-0.1,0l-0.1,0l0,0l-0.1,0l0,0l0,0l0-0.1l0,0l0.1,0l0,0L33.6,35.1
		L33.6,35.1L33.6,35.1L33.6,35.1z M33.7,34.8L33.7,34.8L33.7,34.8L33.7,34.8L33.7,34.8l-0.1,0.1l0,0L33.7,34.8L33.7,34.8l0-0.1
		L33.7,34.8L33.7,34.8L33.7,34.8z M33.7,32.9L33.7,32.9L33.7,32.9l0.1,0L33.7,32.9L33.7,32.9L33.7,32.9z M33.8,34.5L33.8,34.5
		L33.8,34.5l0-0.1L33.8,34.5L33.8,34.5z M33.8,35.4L33.8,35.4L33.8,35.4L33.8,35.4L33.8,35.4z M33.9,35.3L33.9,35.3L33.9,35.3
		L33.9,35.3L33.9,35.3z M33.9,34.1L33.9,34.1L33.9,34.1L33.9,34.1L33.9,34.1L33.9,34l0,0l0,0l0-0.1l0,0.1L33.9,34.1L33.9,34.1
		L33.9,34.1z M33.9,33.1L33.9,33.1L33.9,33.1L33.9,33.1L33.9,33.1z M34,32.7L34,32.7L34,32.7l-0.1-0.1l0,0l0,0l0-0.1l0,0l0,0
		l0.1,0.1L34,32.7L34,32.7z M36.7,32.7L36.7,32.7l0-0.1l0,0l0,0L36.7,32.7L36.7,32.7L36.7,32.7z M38.5,32.2L38.5,32.2L38.5,32.2
		L38.5,32.2L38.5,32.2l0-0.1L38.5,32.2L38.5,32.2L38.5,32.2z M38.6,31.4L38.6,31.4L38.6,31.4L38.6,31.4L38.6,31.4L38.6,31.4
		L38.6,31.4z M38.7,32.3L38.7,32.3L38.7,32.3L38.7,32.3L38.7,32.3z M38.7,31.9L38.7,31.9L38.7,31.9L38.7,31.9L38.7,31.9L38.7,31.9
		L38.7,31.9z M38.9,30.1L38.9,30.1L38.9,30.1L38.9,30.1L38.9,30.1L38.9,30.1L38.9,30.1z M40,30.4L40,30.4L40,30.4l0,0.2l0,0.1l0,0
		l0,0.1l0,0.1l0,0.1l0,0l0,0.1l0,0.1l0,0.1l0,0.3l0,0.1l0,0.1l-0.1,0.2l-0.1,0.2l-0.1,0.2l-0.1,0.1l-0.2,0.1l-0.1,0L39,32.6l0-0.1
		l0-0.2l0-0.3l0,0l0-0.3l0-0.3l0-0.3l0.1-0.2l0-0.2l0-0.1l0-0.1l0,0l0,0l0,0l0,0l0,0l0,0l0,0l0,0l0.1-0.3l0,0l0-0.1l0,0l0.1-0.1l0,0
		l0,0l0,0l0.2-0.1l0.1,0.1l0.1,0.1l0,0l0,0.1L40,30.4z M40.3,30.7L40.3,30.7L40.3,30.7L40.3,30.7L40.3,30.7L40.3,30.7L40.3,30.7z
		 M40.3,29.7L40.3,29.7L40.3,29.7L40.3,29.7L40.3,29.7L40.3,29.7L40.3,29.7L40.3,29.7z M40.2,31.4L40.2,31.4L40.2,31.4L40.2,31.4
		L40.2,31.4L40.2,31.4L40.2,31.4L40.2,31.4L40.2,31.4L40.2,31.4z M40.2,31.3L40.2,31.3L40.2,31.3L40.2,31.3L40.2,31.3z M40.1,32
		L40.1,32L40.1,32l0-0.1L40.1,32L40.1,32L40.1,32z M40.2,32.1L40.2,32.1L40.2,32.1L40.2,32.1l0.1-0.1l0,0l0,0.1L40.2,32.1L40.2,32.1
		L40.2,32.1z M40.4,32.4L40.4,32.4l-0.1,0l0,0L40.4,32.4L40.4,32.4L40.4,32.4z M40.4,32.2L40.4,32.2L40.4,32.2L40.4,32.2L40.4,32.2
		L40.4,32.2z M40.5,30.7L40.5,30.7L40.5,30.7L40.5,30.7L40.5,30.7L40.5,30.7z M40.6,29.9L40.6,29.9l0-0.1l0,0L40.6,29.9L40.6,29.9
		L40.6,29.9z M40.7,30L40.7,30L40.7,30L40.7,30L40.7,30L40.7,30z M42.2,31.2L42.2,31.2L42.2,31.2L42.2,31.2L42.2,31.2z M42.3,30.9
		L42.3,30.9L42.3,30.9L42.3,30.9L42.3,30.9L42.3,30.9L42.3,30.9L42.3,30.9L42.3,30.9z M42.3,31.5L42.3,31.5L42.3,31.5L42.3,31.5
		L42.3,31.5L42.3,31.5z M42.4,30.9L42.4,30.9L42.4,30.9L42.4,30.9l-0.1,0l0,0L42.4,30.9L42.4,30.9L42.4,30.9z M42.4,31.1L42.4,31.1
		L42.4,31.1L42.4,31.1L42.4,31.1L42.4,31.1z M42.4,31.7L42.4,31.7L42.4,31.7L42.4,31.7L42.4,31.7z M42.5,29.3L42.5,29.3L42.5,29.3
		L42.5,29.3L42.5,29.3z M42.5,29.5L42.5,29.5L42.5,29.5L42.5,29.5L42.5,29.5L42.5,29.5z M42.5,31.7L42.5,31.7L42.5,31.7L42.5,31.7
		L42.5,31.7L42.5,31.7L42.5,31.7z M42.6,28.9L42.6,28.9L42.6,28.9L42.6,28.9L42.6,28.9L42.6,28.9z M42.8,28.4L42.8,28.4L42.8,28.4
		L42.8,28.4L42.8,28.4L42.8,28.4z M43.7,29l0,0.3l0,0l0,0.1l0,0.1l0,0l0,0.3l0,0l0,0.2l0,0.3l-0.1,0.3l-0.2,0.4l0,0l0,0l-0.1,0
		L43,31.2l-0.1,0l0,0l0,0l-0.1-0.1l0-0.1l0-0.3l0-0.3l0-0.1l0,0l0-0.1l0-0.3l0,0l0-0.1l0-0.1l0-0.1l0-0.1l0-0.1l0,0l0-0.1l0-0.1
		l0-0.2l0.1-0.2l0,0l0.1-0.2l0.1-0.1l0.1-0.1l0.1,0l0.1,0l0.1,0.1l0.1,0.1l0,0.2l0,0.1L43.7,29z M44.3,29.4l0,0.1l0,0l0,0L44.3,29.4
		L44.3,29.4z M44.2,30L44.2,30L44.2,30L44.2,30L44.2,30L44.2,30L44.2,30z M44.1,27.8L44.1,27.8L44.1,27.8L44.1,27.8L44.1,27.8z
		 M44.1,28L44.1,28L44.1,28L44.1,28L44.1,28L44.1,28L44.1,28z M44.1,28.6L44.1,28.6L44.1,28.6L44.1,28.6L44.1,28.6L44.1,28.6z
		 M44,28.9L44,28.9l0,0.2l0,0.1l0,0l0,0L44,28.9L44,28.9L44,28.9z M44,29.4L44,29.4L44,29.4L44,29.4L44,29.4z M44,30.4L44,30.4
		L44,30.4L44,30.4L44,30.4L44,30.4z M44,30.8L44,30.8L44,30.8L44,30.8L44,30.8z M43.8,30.1L43.8,30.1L43.8,30.1L43.8,30.1L43.8,30.1
		L43.8,30.1L43.8,30.1z M43.9,31.1L43.9,31.1L43.9,31.1L43.9,31.1L43.9,31.1z M43.9,30.9L43.9,30.9L43.9,30.9L43.9,30.9L43.9,30.9
		L43.9,30.9L43.9,30.9L43.9,30.9z M43.9,31L43.9,31L43.9,31L43.9,31L43.9,31L43.9,31L43.9,31z M44,31.2L44,31.2L44,31.2L44,31.2
		L44,31.2L44,31.2L44,31.2z M44.1,29.9L44.1,29.9L44.1,29.9l0-0.1L44.1,29.9L44.1,29.9L44.1,29.9z M44.1,28.3L44.1,28.3L44.1,28.3
		L44.1,28.3L44.1,28.3L44.1,28.3L44.1,28.3z M44.3,30.6L44.3,30.6l-0.1-0.1l0-0.1l0.1,0l0,0.1L44.3,30.6L44.3,30.6L44.3,30.6z
		 M44.3,27.6L44.3,27.6L44.3,27.6L44.3,27.6L44.3,27.6L44.3,27.6z M44.4,28.2L44.4,28.2L44.4,28.2l0-0.1l0,0L44.4,28.2L44.4,28.2z
		 M44.4,26.9L44.4,26.9L44.4,26.9L44.4,26.9L44.4,26.9L44.4,26.9z M46.3,28.2L46.3,28.2L46.3,28.2L46.3,28.2L46.3,28.2z M46.3,29.2
		L46.3,29.2L46.3,29.2L46.3,29.2L46.3,29.2L46.3,29.2z M46.2,27.9L46.2,27.9L46.2,27.9L46.2,27.9L46.2,27.9L46.2,27.9L46.2,27.9z
		 M46,29.7L46,29.7L46,29.7L46,29.7L46,29.7L46,29.7L46,29.7z M46,29L46,29L46,29L46,29l0-0.2l0,0l0,0l0,0L46,29z M46.1,28.8
		L46.1,28.8L46.1,28.8L46.1,28.8L46.1,28.8L46.1,28.8L46.1,28.8z M46.2,29.9L46.2,29.9L46.2,29.9L46.2,29.9L46.2,29.9L46.2,29.9z
		 M46.2,28.8l0-0.1l0,0l0-0.1l0,0l0-0.1l0,0l0,0l0,0l0,0l0,0.1l0,0.1L46.2,28.8L46.2,28.8L46.2,28.8L46.2,28.8z M46.3,29.6
		L46.3,29.6L46.3,29.6L46.3,29.6l-0.1-0.1l0,0l0.1,0L46.3,29.6L46.3,29.6L46.3,29.6z M46.4,28.8L46.4,28.8L46.4,28.8L46.4,28.8
		L46.4,28.8z"/>
	<g>
		<path class="st0" d="M49.8,74.1c-0.5,0-1,0-1.5,0c-1-0.1-2.1-0.2-3.1-0.4c-0.3-0.1-0.5-0.4-0.5-0.7c0.1-0.3,0.4-0.5,0.7-0.5
			c1,0.2,2,0.3,3,0.4c0.5,0,1,0,1.4,0c12.9,0,23.4-10.5,23.4-23.4c0-7.6-3.7-14.8-9.9-19.2c-0.8-0.6-1.7-1.1-2.7-1.6
			c-0.3-0.1-0.4-0.5-0.2-0.8c0.1-0.3,0.5-0.4,0.8-0.2c1,0.5,1.9,1.1,2.8,1.7c6.5,4.6,10.4,12.1,10.4,20.1
			C74.4,63.1,63.4,74.1,49.8,74.1z"/>
	</g>
	<g>
		<path class="st0" d="M34.9,68.9c-0.1,0-0.2,0-0.4-0.1c-5.9-4.7-9.3-11.7-9.3-19.3c0-4,1-7.9,2.8-11.4c0.1-0.3,0.5-0.4,0.8-0.2
			c0.3,0.1,0.4,0.5,0.2,0.8c-1.7,3.3-2.7,7.1-2.7,10.9c0,7.2,3.2,13.9,8.9,18.4c0.2,0.2,0.3,0.6,0.1,0.8
			C35.3,68.9,35.1,68.9,34.9,68.9z"/>
	</g>
	<g>
		<g>
			<path class="st0" d="M19.9,59.2C19.8,59.2,19.8,59.1,19.9,59.2c-0.1,0-0.1,0-0.2,0c-0.1,0-0.2-0.1-0.3-0.1c-0.1,0-0.2,0-0.3,0
				c-0.1,0-0.2,0-0.3,0l0.3,1.1c0,0,0,0.1,0,0.1l-0.6,0.2c0,0-0.1,0-0.1,0l-0.6-1.8c0,0,0-0.1,0-0.1c0.1,0,0.2-0.1,0.2-0.1
				c0.1,0,0.2,0,0.2-0.1c0.1,0,0.2,0,0.2,0c0.1,0,0.2,0,0.3,0c0.1,0,0.2,0,0.2,0c0.1,0,0.2,0,0.2,0c0.2,0.1,0.5,0.1,0.7,0.2
				c0.2,0.1,0.4,0.1,0.5,0.2c0.2,0.1,0.3,0.1,0.4,0.2c0.1,0,0.1,0,0.1,0c0,0,0.1,0,0.2-0.1l0.8-0.2c0,0,0.1,0,0.1-0.1
				c0,0,0-0.1,0-0.1l0-0.1c0,0,0-0.1-0.1-0.1c0,0-0.1,0-0.1,0l-0.4,0.1c-0.1,0-0.1,0-0.1-0.1l-0.4-0.6c0-0.1,0-0.1,0-0.1l0.7-0.2
				c0.1,0,0.2,0,0.3,0c0.1,0,0.2,0,0.3,0.1c0.1,0.1,0.2,0.1,0.3,0.2c0.1,0.1,0.1,0.2,0.2,0.3l0.1,0.3c0,0.1,0,0.2,0,0.4
				c0,0.1,0,0.2-0.1,0.3c-0.1,0.1-0.1,0.2-0.2,0.3c-0.1,0.1-0.2,0.1-0.3,0.2l-0.4,0.1l-0.4,0.1c-0.1,0-0.3,0.1-0.4,0.1
				c-0.1,0-0.3,0-0.4-0.1c-0.1,0-0.3-0.1-0.4-0.1C20.1,59.2,20,59.2,19.9,59.2z"/>
			<path class="st0" d="M21.5,65.2c-0.1,0.1-0.2,0.1-0.3,0.1c-0.1,0-0.2,0-0.3,0c-0.1,0-0.2-0.1-0.3-0.2c-0.1-0.1-0.2-0.2-0.2-0.3
				l-0.1-0.2c-0.1-0.1-0.1-0.2-0.1-0.3c0-0.1,0-0.2,0-0.3c0-0.1,0.1-0.2,0.2-0.3c0.1-0.1,0.2-0.2,0.3-0.2l2.8-1.5
				c0.1-0.1,0.2-0.1,0.3-0.1c0.1,0,0.2,0,0.3,0c0.1,0,0.2,0.1,0.3,0.2c0.1,0.1,0.2,0.2,0.2,0.3l0.1,0.2c0.1,0.1,0.1,0.2,0.1,0.3
				s0,0.2,0,0.3c0,0.1-0.1,0.2-0.2,0.3c-0.1,0.1-0.2,0.2-0.3,0.2L21.5,65.2z M23.9,63C24,63,24,63,23.9,63c0.1-0.1,0.1-0.2,0.1-0.2
				l0-0.1c0,0-0.1-0.1-0.1-0.1c0,0-0.1,0-0.1,0L21,64.1c0,0-0.1,0.1-0.1,0.1c0,0,0,0.1,0,0.1l0,0.1c0,0,0.1,0.1,0.1,0.1
				c0,0,0.1,0,0.1,0L23.9,63z"/>
			<path class="st0" d="M27.4,67l-3.7,2.8c-0.1,0-0.1,0-0.1,0l-0.4-0.5c0-0.1,0-0.1,0-0.1l2.8-2.1c-0.1,0-0.2-0.1-0.2-0.1
				c-0.1,0-0.2-0.1-0.2-0.2c0,0,0,0,0-0.1c0,0,0-0.1,0-0.1l0.4-0.3c0,0,0,0,0.1,0c0,0,0,0,0.1,0c0.1,0.1,0.2,0.1,0.3,0.1
				c0.1,0,0.2,0,0.3,0c0.1,0,0.2,0,0.4-0.1c0,0,0.1,0,0.1,0l0.3,0.4C27.4,66.9,27.4,67,27.4,67z"/>
			<path class="st0" d="M36.4,77.1c0,0.1,0,0.2,0,0.3c0,0.1,0,0.2-0.1,0.3l-0.5,0.9c-0.1,0.1-0.1,0.2-0.2,0.3
				c-0.1,0.1-0.2,0.1-0.3,0.2c-0.1,0-0.2,0-0.3,0c-0.1,0-0.2,0-0.3-0.1l-1-0.5c-0.1,0-0.1-0.1,0-0.1l2.1-4.1c0-0.1,0.1-0.1,0.1,0
				l1,0.5c0.1,0.1,0.2,0.1,0.3,0.2c0.1,0.1,0.1,0.2,0.2,0.3c0,0.1,0.1,0.2,0,0.3c0,0.1,0,0.2-0.1,0.3L37,76.5
				c-0.1,0.2-0.2,0.3-0.4,0.4c-0.1,0-0.2,0-0.3,0C36.3,77,36.4,77.1,36.4,77.1z M35.7,77.2c0,0,0-0.1,0-0.1s0-0.1-0.1-0.1l-0.2-0.1
				l-0.7,1.3l0.2,0.1c0,0,0.1,0,0.1,0c0,0,0.1,0,0.1-0.1L35.7,77.2z M36.5,75.5c0,0,0-0.1,0-0.1c0,0,0-0.1-0.1-0.1l-0.2-0.1l-0.5,1
				l0.2,0.1c0,0,0.1,0,0.1,0c0,0,0.1,0,0.1-0.1L36.5,75.5z"/>
			<path class="st0" d="M41,80.6c0,0.1-0.1,0.2-0.2,0.3c-0.1,0.1-0.2,0.2-0.3,0.2c-0.1,0.1-0.2,0.1-0.3,0.1c-0.1,0-0.2,0-0.4,0
				L39.6,81c-0.1,0-0.2-0.1-0.3-0.2c-0.1-0.1-0.2-0.2-0.2-0.3c-0.1-0.1-0.1-0.2-0.1-0.3c0-0.1,0-0.2,0-0.3l0.9-3
				c0-0.1,0.1-0.2,0.2-0.3c0.1-0.1,0.2-0.2,0.3-0.2c0.1-0.1,0.2-0.1,0.3-0.1c0.1,0,0.2,0,0.4,0l0.3,0.1c0.1,0,0.2,0.1,0.3,0.2
				c0.1,0.1,0.2,0.2,0.2,0.3c0.1,0.1,0.1,0.2,0.1,0.3c0,0.1,0,0.2,0,0.3L41,80.6z M41.2,77.3c0,0,0-0.1,0-0.1c0,0-0.1-0.1-0.1-0.1
				l-0.1,0c0,0-0.1,0-0.1,0c0,0-0.1,0.1-0.1,0.1l-0.9,3c0,0,0,0.1,0,0.1c0,0,0.1,0.1,0.1,0.1l0.1,0c0,0,0.1,0,0.1,0
				c0,0,0.1-0.1,0.1-0.1L41.2,77.3z"/>
			<path class="st0" d="M46.4,82.3C46.4,82.4,46.4,82.4,46.4,82.3l-0.7,0c-0.1,0-0.1,0-0.1-0.1l0-0.7l-0.4-0.1l-0.2,0.7
				c0,0.1-0.1,0.1-0.1,0.1l-0.6-0.1c-0.1,0-0.1,0-0.1-0.1l1.1-4.5c0-0.1,0.1-0.1,0.1-0.1l0.9,0.1c0.1,0,0.1,0,0.1,0.1L46.4,82.3z
				 M45.7,80.7l0.1-1.9l-0.1,0l-0.4,1.8L45.7,80.7z"/>
			<path class="st0" d="M52.2,82.3C52.2,82.4,52.2,82.4,52.2,82.3l-0.7,0.1c0,0-0.1,0-0.1,0c0,0,0,0-0.1-0.1l-0.6-1.7l0.1,1.8l0-0.1
				c0,0,0,0.1-0.1,0.1l-0.6,0c-0.1,0-0.1,0-0.1-0.1l-0.2-4.6c0-0.1,0-0.1,0.1-0.1l1.1,0c0.1,0,0.2,0,0.4,0.1c0.1,0,0.2,0.1,0.3,0.2
				c0.1,0.1,0.2,0.2,0.2,0.3c0.1,0.1,0.1,0.2,0.1,0.3l0,1.1c0,0.2,0,0.3-0.1,0.5c-0.1,0.1-0.2,0.2-0.3,0.3L52.2,82.3z M50.7,79.8
				l0.2,0c0,0,0.1,0,0.1-0.1c0,0,0-0.1,0-0.1l0-1.1c0,0,0-0.1-0.1-0.1c0,0-0.1,0-0.1,0l-0.2,0L50.7,79.8z"/>
			<path class="st0" d="M55.9,77c0.1,0,0.2,0,0.4,0c0.1,0,0.2,0.1,0.3,0.1c0.1,0.1,0.2,0.1,0.2,0.2c0.1,0.1,0.1,0.2,0.1,0.3l0.7,3
				c0,0.1,0,0.2,0,0.3c0,0.1-0.1,0.2-0.1,0.3c-0.1,0.1-0.1,0.2-0.2,0.2c-0.1,0.1-0.2,0.1-0.3,0.1l-1,0.2c-0.1,0-0.1,0-0.1-0.1
				l-1-4.5c0-0.1,0-0.1,0.1-0.1L55.9,77z M56.1,77.8c0,0,0-0.1-0.1-0.1c0,0-0.1,0-0.1,0l-0.2,0l0.7,3.3l0.2,0c0,0,0.1,0,0.1-0.1
				c0,0,0-0.1,0-0.1L56.1,77.8z"/>
			<path class="st0" d="M66.6,77.7c0,0.1,0,0.1,0,0.1L66,78.1c-0.1,0-0.1,0-0.1,0l-0.4-0.6l-0.4,0.2l0.3,0.7c0,0.1,0,0.1,0,0.1
				l-0.6,0.3c-0.1,0-0.1,0-0.1,0l-1.8-4.3c0-0.1,0-0.1,0.1-0.1l0.8-0.5c0.1,0,0.1,0,0.1,0L66.6,77.7z M65,76.8l-1-1.6l0,0l0.8,1.7
				L65,76.8z"/>
			<path class="st0" d="M69.4,69.8l2.4,4.1c0,0.1,0,0.1,0,0.1l-0.5,0.4c-0.1,0-0.1,0-0.1,0l-1.3-1.1l0,0l0.9,1.5c0,0.1,0,0.1,0,0.1
				l-0.5,0.4c-0.1,0-0.1,0-0.1,0l-3.7-3c0,0,0-0.1,0-0.1l0.6-0.5c0,0,0.1,0,0.1,0l2.1,1.9l0,0l-1.6-2.3c0-0.1,0-0.1,0-0.1l0.4-0.4
				c0,0,0.1,0,0.1,0l2,2l0,0l-1.6-2.3c0-0.1,0-0.1,0-0.1l0.6-0.5C69.3,69.7,69.3,69.7,69.4,69.8z"/>
			<path class="st0" d="M76,69.1c0.1,0,0.1,0.1,0,0.1l-0.4,0.5c0,0-0.1,0.1-0.1,0l-0.6-0.4l-0.3,0.3l0.5,0.5c0,0,0,0.1,0,0.1
				l-0.4,0.5c0,0.1-0.1,0.1-0.1,0l-3.3-3.3c0,0,0-0.1,0-0.1l0.6-0.7c0-0.1,0.1-0.1,0.1,0L76,69.1z M74.2,68.9l-1.5-1.1l0,0l1.4,1.3
				L74.2,68.9z"/>
			<path class="st0" d="M79,64.2c0.1,0,0.1,0.1,0.1,0.1l-0.3,0.6c0,0,0,0-0.1,0.1c0,0-0.1,0-0.1,0l-1.7-0.4l1.6,0.9l-0.1,0
				c0,0,0,0.1,0,0.1l-0.3,0.6c0,0.1-0.1,0.1-0.1,0l-4.1-2.2c-0.1,0-0.1-0.1,0-0.1l0.5-0.9c0.1-0.1,0.1-0.2,0.2-0.3
				c0.1-0.1,0.2-0.1,0.3-0.2c0.1,0,0.2,0,0.3,0c0.1,0,0.2,0,0.3,0.1l1,0.5c0.1,0.1,0.3,0.2,0.3,0.3c0.1,0.1,0.1,0.3,0.1,0.5L79,64.2
				z M76,64.2l0.1-0.2c0,0,0-0.1,0-0.1c0,0,0-0.1-0.1-0.1l-0.9-0.5c0,0-0.1,0-0.1,0c0,0-0.1,0-0.1,0.1l-0.1,0.2L76,64.2z"/>
			<path class="st0" d="M76.3,58.3c0-0.1,0.1-0.2,0.2-0.3c0.1-0.1,0.2-0.2,0.3-0.2c0.1-0.1,0.2-0.1,0.3-0.1c0.1,0,0.2,0,0.3,0l2.9,1
				c0.1,0,0.2,0.1,0.3,0.2c0.1,0.1,0.2,0.2,0.2,0.3c0,0.1,0.1,0.2,0.1,0.3c0,0.1,0,0.2,0,0.4l-0.3,1c0,0.1-0.1,0.1-0.1,0.1L76,59.5
				c-0.1,0-0.1-0.1-0.1-0.1L76.3,58.3z M77.2,58.6c0,0-0.1,0-0.1,0c0,0-0.1,0.1-0.1,0.1l-0.1,0.2l3.2,1.1l0.1-0.2c0,0,0-0.1,0-0.1
				c0,0-0.1-0.1-0.1-0.1L77.2,58.6z"/>
			<path class="st0" d="M77.5,53.3c0.1-0.1,0.1-0.2,0.2-0.3c0.1-0.1,0.2-0.1,0.3-0.1c0.1,0,0.2,0,0.3,0l0.3,0c0.1,0,0.1,0,0.1,0.1
				l0.1,0.7c0,0.1,0,0.1-0.1,0.1l-0.4-0.1c0,0-0.1,0-0.1,0c0,0-0.1,0.1-0.1,0.1l0,0.1c0,0,0,0.1,0,0.1c0,0,0.1,0.1,0.1,0.1l0.6,0.1
				c0.1,0,0.1,0,0.1,0c0,0,0.1,0,0.1-0.1l0.8-0.8c0.1-0.1,0.1-0.1,0.2-0.1s0.1,0,0.2,0l1.2,0.2c0.1,0,0.2,0.1,0.3,0.1
				c0.1,0.1,0.2,0.1,0.2,0.2c0.1,0.1,0.1,0.2,0.1,0.3c0,0.1,0,0.2,0,0.4l0,0.3c0,0.1-0.1,0.2-0.1,0.3c-0.1,0.1-0.1,0.2-0.2,0.3
				c-0.1,0.1-0.2,0.1-0.3,0.1c-0.1,0-0.2,0-0.3,0l-0.7-0.1c-0.1,0-0.1,0-0.1-0.1l-0.1-0.7c0-0.1,0-0.1,0.1-0.1l0.8,0.1
				c0,0,0.1,0,0.1,0c0,0,0.1-0.1,0.1-0.1l0-0.1c0,0,0-0.1,0-0.1c0,0-0.1-0.1-0.1-0.1l-0.9-0.1c-0.1,0-0.1,0-0.2,0s-0.1,0-0.1,0.1
				l-0.8,0.8c-0.1,0.1-0.1,0.1-0.2,0.1c-0.1,0-0.2,0-0.3,0L78,54.9c-0.1,0-0.2-0.1-0.3-0.1c-0.1-0.1-0.2-0.1-0.2-0.2
				c-0.1-0.1-0.1-0.2-0.1-0.3c0-0.1,0-0.2,0-0.4l0-0.3C77.4,53.5,77.4,53.4,77.5,53.3z"/>
		</g>
		<g>
			<path class="st0" d="M18.2,51.7c-0.2,0-0.3,0-0.4-0.2c-0.1-0.1-0.2-0.3-0.2-0.4c0-0.2,0-0.3,0.2-0.4c0.1-0.1,0.2-0.2,0.4-0.2
				c0.2,0,0.3,0,0.4,0.2s0.2,0.3,0.2,0.4c0,0.2,0,0.3-0.2,0.4C18.5,51.7,18.4,51.7,18.2,51.7z"/>
			<path class="st0" d="M16.4,44c0.1-0.1,0.1-0.2,0.2-0.2c0.1-0.1,0.2-0.1,0.3-0.1c0.1,0,0.2,0,0.3,0l0.3,0c0.1,0,0.1,0,0.1,0.1
				l0.1,0.7c0,0.1,0,0.1-0.1,0.1l-0.4-0.1c0,0-0.1,0-0.1,0c0,0-0.1,0.1-0.1,0.1l0,0.1c0,0,0,0.1,0,0.1c0,0,0.1,0.1,0.1,0.1l0.6,0.1
				c0.1,0,0.1,0,0.1,0c0,0,0.1,0,0.1-0.1l0.8-0.8c0.1-0.1,0.1-0.1,0.2-0.1c0.1,0,0.1,0,0.2,0l1.2,0.2c0.1,0,0.2,0.1,0.3,0.1
				c0.1,0.1,0.2,0.1,0.2,0.2c0.1,0.1,0.1,0.2,0.1,0.3c0,0.1,0,0.2,0,0.4l0,0.3c0,0.1-0.1,0.2-0.1,0.3c-0.1,0.1-0.1,0.2-0.2,0.2
				c-0.1,0.1-0.2,0.1-0.3,0.1c-0.1,0-0.2,0-0.3,0l-0.7-0.1c-0.1,0-0.1,0-0.1-0.1l-0.1-0.7c0-0.1,0-0.1,0.1-0.1l0.8,0.1
				c0,0,0.1,0,0.1,0c0,0,0.1-0.1,0.1-0.1l0-0.1c0,0,0-0.1,0-0.1c0,0-0.1-0.1-0.1-0.1l-0.9-0.2c-0.1,0-0.1,0-0.2,0c0,0-0.1,0-0.1,0.1
				l-0.8,0.8c-0.1,0.1-0.1,0.1-0.2,0.1c-0.1,0-0.2,0-0.3,0l-0.8-0.1c-0.1,0-0.2-0.1-0.3-0.1c-0.1-0.1-0.2-0.1-0.2-0.2
				c-0.1-0.1-0.1-0.2-0.1-0.3c0-0.1,0-0.2,0-0.4l0-0.3C16.3,44.2,16.3,44.1,16.4,44z"/>
			<path class="st0" d="M18.2,38l4.4,1.6c0.1,0,0.1,0.1,0.1,0.1l-0.2,0.4c0,0,0,0-0.1,0.1c0,0-0.1,0-0.1,0l-2.4-0.1l2.1,0.8
				c0.1,0,0.1,0.1,0.1,0.1l-0.2,0.6c0,0.1-0.1,0.1-0.1,0.1l-4.4-1.6c-0.1,0-0.1-0.1-0.1-0.1l0.2-0.4c0,0,0,0,0.1-0.1
				c0,0,0.1,0,0.1,0l2.3,0l-2.1-0.7c-0.1,0-0.1-0.1-0.1-0.1l0.2-0.6C18.1,38,18.1,38,18.2,38z"/>
			<path class="st0" d="M24,35c0.1,0.1,0.2,0.1,0.3,0.2c0.1,0.1,0.1,0.2,0.1,0.3c0,0.1,0,0.2,0,0.3c0,0.1,0,0.2-0.1,0.3l-0.1,0.2
				c-0.1,0.1-0.1,0.2-0.2,0.3c-0.1,0.1-0.2,0.1-0.3,0.2c-0.1,0-0.2,0-0.3,0c-0.1,0-0.2,0-0.3-0.1l-2.8-1.6c-0.1-0.1-0.2-0.1-0.3-0.2
				c-0.1-0.1-0.1-0.2-0.1-0.3c0-0.1,0-0.2,0-0.3c0-0.1,0-0.2,0.1-0.3l0.1-0.2c0.1-0.1,0.1-0.2,0.2-0.3c0.1-0.1,0.2-0.1,0.3-0.2
				c0.1,0,0.2,0,0.3,0c0.1,0,0.2,0,0.3,0.1L24,35z M20.9,34.2c0,0-0.1,0-0.1,0c0,0-0.1,0-0.1,0.1l0,0c0,0,0,0.1,0,0.1
				c0,0,0,0.1,0.1,0.1l2.7,1.5c0,0,0.1,0,0.1,0c0,0,0.1,0,0.1-0.1l0,0c0,0,0-0.1,0-0.1c0,0,0-0.1-0.1-0.1L20.9,34.2z"/>
			<path class="st0" d="M24.9,27.3l3,3.6c0,0,0,0.1,0,0.1l-0.4,0.5c0,0.1-0.1,0.1-0.1,0l-1.5-0.9l0,0l1.2,1.3c0,0,0,0.1,0,0.1
				l-0.4,0.5c0,0.1-0.1,0.1-0.1,0l-4.1-2.3c-0.1,0-0.1-0.1,0-0.1l0.5-0.6c0,0,0.1-0.1,0.1,0l2.4,1.6l0,0l-2-2c0,0,0-0.1,0-0.1
				l0.4-0.4c0,0,0.1-0.1,0.1,0l2.3,1.6l0,0l-2-2.1c0,0,0-0.1,0-0.1l0.5-0.6C24.8,27.3,24.9,27.3,24.9,27.3z"/>
			<path class="st0" d="M30.3,25.6c0.1,0,0.2,0,0.3,0.1c0.1,0,0.2,0.1,0.2,0.2l0.6,0.8c0.1,0.1,0.1,0.2,0.2,0.3c0,0.1,0,0.2,0,0.3
				c0,0.1,0,0.2-0.1,0.3c-0.1,0.1-0.1,0.2-0.2,0.3l-0.8,0.7c-0.1,0-0.1,0-0.1,0L27.3,25c0,0,0-0.1,0-0.1l0.8-0.7
				c0.1-0.1,0.2-0.1,0.3-0.2c0.1,0,0.2,0,0.3,0c0.1,0,0.2,0,0.3,0.1c0.1,0.1,0.2,0.1,0.3,0.2l0.4,0.5c0.1,0.2,0.2,0.3,0.2,0.5
				c0,0.1,0,0.2-0.1,0.3C30.1,25.6,30.2,25.6,30.3,25.6z M28.8,24.9c0,0-0.1-0.1-0.1-0.1c0,0-0.1,0-0.1,0L28.4,25l0.7,0.9l0.2-0.1
				c0,0,0.1-0.1,0.1-0.1c0,0,0-0.1,0-0.1L28.8,24.9z M30,26.4c0,0-0.1-0.1-0.1-0.1c0,0-0.1,0-0.1,0l-0.2,0.1l0.9,1.1l0.2-0.1
				c0,0,0.1-0.1,0.1-0.1c0,0,0-0.1,0-0.1L30,26.4z"/>
			<path class="st0" d="M35.4,24.2c0.1,0.1,0.1,0.2,0.1,0.3c0,0.1,0,0.2,0,0.3c0,0.1-0.1,0.2-0.2,0.3c-0.1,0.1-0.2,0.2-0.3,0.2
				l-0.2,0.1c-0.1,0.1-0.2,0.1-0.3,0.1c-0.1,0-0.2,0-0.3,0c-0.1,0-0.2-0.1-0.3-0.1c-0.1-0.1-0.2-0.2-0.2-0.3L32,22.4
				c-0.1-0.1-0.1-0.2-0.1-0.3c0-0.1,0-0.2,0-0.3c0-0.1,0.1-0.2,0.2-0.3c0.1-0.1,0.2-0.2,0.3-0.2l0.2-0.1C32.7,21,32.8,21,33,21
				c0.1,0,0.2,0,0.3,0c0.1,0,0.2,0.1,0.3,0.1c0.1,0.1,0.2,0.2,0.2,0.3L35.4,24.2z M33.1,21.9c0,0-0.1-0.1-0.1-0.1c0,0-0.1,0-0.1,0
				l0,0c0,0-0.1,0.1-0.1,0.1c0,0,0,0.1,0,0.1l1.6,2.7c0,0,0.1,0.1,0.1,0.1c0,0,0.1,0,0.1,0l0,0c0,0,0.1-0.1,0.1-0.1c0,0,0-0.1,0-0.1
				L33.1,21.9z"/>
			<path class="st0" d="M40.1,22.9c0,0.1,0,0.1,0,0.1l-0.6,0.2c-0.1,0-0.1,0-0.1-0.1L39,22.5l-0.4,0.2l0.2,0.7c0,0.1,0,0.1-0.1,0.1
				l-0.6,0.2c-0.1,0-0.1,0-0.1-0.1l-1.1-4.5c0-0.1,0-0.1,0.1-0.1l0.9-0.3c0.1,0,0.1,0,0.1,0L40.1,22.9z M38.7,21.8l-0.8-1.7l-0.1,0
				l0.5,1.8L38.7,21.8z"/>
			<path class="st0" d="M44.8,21.8c0,0.1,0,0.1-0.1,0.1L44.1,22c0,0-0.1,0-0.1,0c0,0-0.1,0-0.1-0.1l-0.8-1.6l0.4,1.8l0-0.1
				c0,0,0,0.1-0.1,0.1l-0.6,0.1c-0.1,0-0.1,0-0.1-0.1l-0.9-4.5c0-0.1,0-0.1,0.1-0.1l1-0.2c0.1,0,0.2,0,0.4,0c0.1,0,0.2,0.1,0.3,0.1
				c0.1,0.1,0.2,0.1,0.2,0.2c0.1,0.1,0.1,0.2,0.1,0.3l0.2,1.1c0,0.2,0,0.3,0,0.5c-0.1,0.2-0.2,0.3-0.3,0.4L44.8,21.8z M42.9,19.5
				l0.2,0c0,0,0.1,0,0.1-0.1c0,0,0-0.1,0-0.1l-0.2-1c0,0,0-0.1-0.1-0.1c0,0-0.1,0-0.1,0l-0.2,0L42.9,19.5z"/>
			<path class="st0" d="M48.4,16.7c0.1,0,0.2,0,0.4,0.1c0.1,0,0.2,0.1,0.3,0.2c0.1,0.1,0.2,0.2,0.2,0.3c0.1,0.1,0.1,0.2,0.1,0.3
				l0.1,3.1c0,0.1,0,0.2-0.1,0.3c0,0.1-0.1,0.2-0.2,0.3c-0.1,0.1-0.2,0.1-0.3,0.2c-0.1,0-0.2,0.1-0.3,0.1l-1.1,0
				c-0.1,0-0.1,0-0.1-0.1l-0.2-4.6c0-0.1,0-0.1,0.1-0.1L48.4,16.7z M48.5,17.6c0,0,0-0.1-0.1-0.1c0,0-0.1,0-0.1,0l-0.2,0l0.1,3.4
				l0.2,0c0,0,0.1,0,0.1-0.1c0,0,0-0.1,0-0.1L48.5,17.6z"/>
			<path class="st0" d="M64.4,20.3c0.1,0.1,0.1,0.2,0.2,0.3c0,0.1,0.1,0.2,0.1,0.3c0,0.1,0,0.2-0.1,0.3l-0.2,0.5
				c0,0.1-0.1,0.1-0.1,0.1l-0.6-0.2c-0.1,0-0.1,0-0.1-0.1l0.3-0.6c0,0,0-0.1,0-0.1c0,0,0-0.1-0.1-0.1l-0.1,0c0,0-0.1,0-0.1,0
				s-0.1,0-0.1,0.1l-1.4,2.8c0,0,0,0.1,0,0.1c0,0,0,0.1,0.1,0.1l0.1,0c0,0,0.1,0,0.1,0s0.1,0,0.1-0.1l0.4-0.9c0-0.1,0.1-0.1,0.1,0
				l0.5,0.4c0,0,0.1,0.1,0,0.2l-0.4,0.8c-0.1,0.1-0.1,0.2-0.2,0.3c-0.1,0.1-0.2,0.1-0.3,0.2c-0.1,0-0.2,0-0.3,0
				c-0.1,0-0.2,0-0.3-0.1l-0.2-0.1c-0.1-0.1-0.2-0.1-0.3-0.2c-0.1-0.1-0.1-0.2-0.2-0.3c0-0.1-0.1-0.2-0.1-0.3c0-0.1,0-0.2,0.1-0.3
				l1.4-2.9c0.1-0.1,0.1-0.2,0.2-0.3c0.1-0.1,0.2-0.1,0.3-0.2c0.1,0,0.2,0,0.3,0c0.1,0,0.2,0,0.3,0.1l0.2,0.1
				C64.3,20.1,64.4,20.2,64.4,20.3z"/>
			<path class="st0" d="M66.8,27.3c0,0.1-0.1,0.1-0.1,0L66.2,27c-0.1,0-0.1-0.1,0-0.1l0.4-0.6l-0.4-0.3l-0.5,0.6c0,0-0.1,0.1-0.1,0
				L65,26.2c-0.1,0-0.1-0.1,0-0.1l3.1-3.5c0,0,0.1-0.1,0.1,0l0.8,0.5c0.1,0,0.1,0.1,0,0.1L66.8,27.3z M66.9,25.5l1-1.6l0,0l-1.2,1.5
				L66.9,25.5z"/>
			<path class="st0" d="M73.7,27.3l-3.3,3.3c0,0-0.1,0-0.1,0L70,30.2c0,0,0,0,0-0.1c0,0,0-0.1,0-0.1l1.1-2.2l-1.6,1.6
				c0,0-0.1,0-0.1,0l-0.5-0.4c0,0,0-0.1,0-0.1l3.3-3.3c0,0,0.1,0,0.1,0l0.3,0.3c0,0,0,0,0,0.1c0,0,0,0.1,0,0.1l-1,2.1l1.6-1.6
				c0,0,0.1,0,0.1,0l0.5,0.4C73.8,27.2,73.8,27.2,73.7,27.3z"/>
			<path class="st0" d="M73.4,34.3c0,0-0.1,0-0.1,0l-0.4-0.5c0-0.1,0-0.1,0-0.1l0.6-0.5l-0.3-0.4l-0.6,0.4c-0.1,0-0.1,0-0.1,0
				l-0.4-0.5c0-0.1,0-0.1,0-0.1l4.1-2.3c0.1,0,0.1,0,0.1,0l0.5,0.8c0,0.1,0,0.1,0,0.1L73.4,34.3z M74.1,32.7l1.4-1.2l0,0l-1.6,1
				L74.1,32.7z"/>
			<path class="st0" d="M79.5,35.5c0.1,0.1,0.1,0.2,0.1,0.3c0,0.1,0,0.2,0,0.3c0,0.1-0.1,0.2-0.2,0.3c-0.1,0.1-0.2,0.2-0.3,0.2
				l-2.8,1.4c-0.1,0.1-0.2,0.1-0.3,0.1c-0.1,0-0.2,0-0.3,0c-0.1,0-0.2-0.1-0.3-0.2c-0.1-0.1-0.2-0.2-0.2-0.3l-0.5-1
				c0-0.1,0-0.1,0-0.1l4.2-2.1c0.1,0,0.1,0,0.1,0L79.5,35.5z M78.7,36C78.8,35.9,78.8,35.9,78.7,36c0.1-0.1,0.1-0.2,0.1-0.2
				l-0.1-0.2l-3,1.5l0.1,0.2c0,0,0.1,0.1,0.1,0.1c0,0,0.1,0,0.1,0L78.7,36z"/>
			<path class="st0" d="M77.3,42.9c-0.1,0-0.1,0-0.1-0.1L77,42.2c0-0.1,0-0.1,0.1-0.1l0.7-0.3l-0.1-0.4l-0.7,0.2
				c-0.1,0-0.1,0-0.1-0.1l-0.2-0.6c0-0.1,0-0.1,0.1-0.1l4.6-0.8c0.1,0,0.1,0,0.1,0.1l0.3,0.9c0,0.1,0,0.1-0.1,0.1L77.3,42.9z
				 M78.4,41.5l1.7-0.7l0-0.1l-1.8,0.4L78.4,41.5z"/>
			<path class="st0" d="M80.3,46.7c0.2,0,0.3,0,0.4,0.1c0.1,0.1,0.2,0.2,0.2,0.4c0,0.2,0,0.3-0.1,0.4c-0.1,0.1-0.2,0.2-0.4,0.2
				c-0.2,0-0.3,0-0.4-0.1c-0.1-0.1-0.2-0.2-0.2-0.4c0-0.2,0-0.3,0.1-0.4C80,46.8,80.2,46.7,80.3,46.7z"/>
		</g>
	</g>
	<path class="st0" d="M30.1,69.8c-0.3-0.3-0.6-0.4-1-0.2c-0.3,0.1-0.4,0.3-0.5,0.3l-0.3,0.3C28.1,70.4,28,70.7,28,71
		c-0.3,0-0.6,0.2-0.9,0.4l-0.4,0.4c0,0-0.1,0.1-0.2,0.3c-0.1,0.2-0.2,0.4-0.2,0.6c0,0.3,0.1,0.5,0.3,0.7c0.2,0.2,0.4,0.3,0.7,0.3
		c0,0,0,0,0,0c0.2,0,0.4-0.1,0.6-0.2c0.2-0.1,0.3-0.2,0.3-0.2l0.4-0.4c0.2-0.3,0.4-0.6,0.4-0.9c0.3,0,0.6-0.2,0.8-0.4l0.3-0.3
		c0.1-0.2,0.3-0.3,0.3-0.5C30.5,70.4,30.4,70,30.1,69.8z M29.6,70.5c-0.1,0.1-0.2,0.2-0.3,0.4c-0.2,0.2-0.3,0.3-0.4,0.4
		c-0.1,0.1-0.1,0-0.1,0c0,0-0.1-0.1,0-0.1c0.1-0.2,0.5-0.6,0.7-0.7c0,0,0.1,0,0.1,0c0,0,0,0,0,0C29.6,70.3,29.6,70.4,29.6,70.5z
		 M27.2,72.6c0.1-0.2,0.5-0.7,0.8-0.8c0,0,0.1,0,0.1,0c0,0,0.1,0,0.1,0c0,0,0.1,0.1,0,0.2c-0.1,0.1-0.2,0.3-0.4,0.5
		c-0.2,0.2-0.3,0.3-0.4,0.3c-0.1,0-0.1,0-0.2,0C27.2,72.7,27.2,72.7,27.2,72.6z"/>
</g>
</svg>
