<?xml version="1.0" encoding="utf-8"?>
<!-- Generator: Adobe Illustrator 21.1.0, SVG Export Plug-In . SVG Version: 6.00 Build 0)  -->
<!DOCTYPE svg PUBLIC "-//W3C//DTD SVG 1.1//EN" "http://www.w3.org/Graphics/SVG/1.1/DTD/svg11.dtd">
<svg version="1.1" id="Layer_1" xmlns="http://www.w3.org/2000/svg" xmlns:xlink="http://www.w3.org/1999/xlink" x="0px" y="0px"
	 viewBox="0 0 99.2 99.2" style="enable-background:new 0 0 99.2 99.2;" xml:space="preserve">
<style type="text/css">
	.st0{fill:#E7731F;}
	.st1{fill:#F58220;}
	.st2{fill:#FFFFFF;}
</style>
<g id="PARK">
	<path class="st0" d="M90,43l0.6,0.2l1,1.5l5.2,1.4l-4.5-11.7l-6.3-3.1c-0.3-0.6-0.6-1.1-0.9-1.7L80.6,28c-0.2,0.2-0.4,0.3-0.7,0.2
		c-0.3-0.1-0.5-0.5-0.4-0.8c0.1-0.3,0.5-0.5,0.8-0.4c0.2,0.1,0.4,0.3,0.4,0.6c0,0,4.1,1.3,4.1,1.3l0.6-0.1l1.5,1l5.3-0.6L83.9,20
		l-7-0.7c-0.7-0.6-1.4-1.2-2.1-1.7l0.6-0.3l1.7,0.4l4.8-2.5L70.7,9.6L64,11.5c-0.8-0.3-1.7-0.6-2.6-0.9l0.4-0.5l1.8-0.2l3.6-4
		L54.7,4.7l-5.6,4.2c-0.9,0-1.8,0-2.7,0.1l0.2-0.6l1.6-0.9l1.9-5L38,5.9l-3.7,6c-0.8,0.3-1.7,0.7-2.5,1.1l0-0.6l1.2-1.4l-0.1-5.4
		l-10,7.5l-1.3,6.9c-0.7,0.6-1.3,1.3-1.9,1.9l-0.3-0.6l0.6-1.7l-2-5l-6.6,10.6l1.3,6.9c-0.3,0.7-0.7,1.4-1,2.2l1.3,3.8
		c0.3,0,0.5,0.2,0.6,0.4c0.1,0.3-0.1,0.7-0.4,0.8c-0.3,0.1-0.7-0.1-0.8-0.4c-0.1-0.3,0-0.5,0.2-0.7L11,34L11,32.2l-3.7-3.9L4.9,40.6
		l3.7,6c-0.1,0.9-0.1,1.8-0.1,2.7L7.9,49l-0.7-1.6L2.3,45l2.2,12.3l5.6,4.2c0.3,0.9,0.5,1.7,0.9,2.6l-0.7,0l-1.3-1.3l-5.3-0.4
		l6.5,10.7L17,75c0.6,0.7,1.1,1.4,1.7,2.1l-0.6,0.2l-1.6-0.7l-5.1,1.5l9.9,7.6l7-0.6c0.8,0.5,1.6,0.9,2.4,1.3l-0.5,0.4l-1.8-0.1
		L24.1,90l12,3.5l6.3-3.1c0.7,0.1,1.4,0.2,2.1,0.3l3.7-2.6c-0.1-0.2,0-0.5,0.2-0.7c0.3-0.2,0.7-0.1,0.8,0.2c0.2,0.3,0.1,0.7-0.2,0.8
		c-0.2,0.1-0.5,0.1-0.7,0c0,0-3.3,2.3-3.3,2.3l-0.3,0.6l-1.7,0.6l-2.8,4.6l12.4-1.1l4.7-5.2c0.9-0.2,1.8-0.4,2.6-0.6L60,90.2
		l-1.4,1.1l-0.9,5.3l11.2-5.5l2.5-6.5c0.8-0.5,1.5-1,2.3-1.5l0.1,0.6L73,85.3l1.1,5.3l8.5-9.2l0-7c0.5-0.7,1-1.5,1.5-2.2l0.4,0.6
		l-0.3,1.8l2.9,4.5l4.6-11.6l-2.5-6.5c0.2-0.9,0.5-1.8,0.6-2.6l0.5,0.4l0.4,1.7l4.3,3.2l0.1-12.5l-4.7-5.2
		C90.2,44.8,90.1,43.9,90,43z"/>
	<g>
		<g>
			<circle class="st1" cx="49.4" cy="50" r="35.1"/>
			<path class="st2" d="M49.4,85.6c-9.5,0-18.4-3.7-25.2-10.4C17.5,68.5,13.8,59.5,13.8,50c0-9.5,3.7-18.4,10.4-25.2
				c6.7-6.7,15.7-10.4,25.2-10.4s18.4,3.7,25.2,10.4C81.3,31.6,85,40.5,85,50c0,9.5-3.7,18.4-10.4,25.2
				C67.8,81.9,58.9,85.6,49.4,85.6z M49.4,15.3c-9.3,0-18,3.6-24.5,10.2C18.3,32,14.7,40.7,14.7,50s3.6,18,10.2,24.5
				c6.6,6.6,15.3,10.2,24.5,10.2s18-3.6,24.5-10.2C80.4,68,84.1,59.3,84.1,50s-3.6-18-10.2-24.5C67.3,18.9,58.6,15.3,49.4,15.3z"/>
		</g>
		<g>
			<g>
				<path class="st2" d="M20.8,39.5l1.8,0.6l-0.2,0.5l-1.8-0.6l-0.2,0.6l-0.5-0.2l0.6-1.8l0.5,0.2L20.8,39.5z"/>
			</g>
			<g>
				<path class="st2" d="M23.8,37.4l-1.1,0.1l-0.1,0.2l0.9,0.4l-0.2,0.5l-2.2-1l0.4-0.8c0-0.1,0.1-0.2,0.2-0.3
					c0.1-0.1,0.1-0.2,0.2-0.2c0.1-0.1,0.2-0.1,0.3-0.1c0.1,0,0.2,0,0.3,0.1c0.1,0.1,0.3,0.2,0.3,0.3c0.1,0.1,0.1,0.3,0.1,0.4
					l1.2-0.1L23.8,37.4z M22.2,36.7c-0.1,0-0.1,0-0.1,0c0,0-0.1,0-0.1,0c0,0-0.1,0.1-0.1,0.1c0,0,0,0.1-0.1,0.1l-0.1,0.3l0.5,0.2
					l0.1-0.3c0,0,0-0.1,0.1-0.1c0,0,0-0.1,0-0.1c0,0,0-0.1,0-0.1C22.3,36.7,22.3,36.7,22.2,36.7z"/>
			</g>
			<g>
				<path class="st2" d="M25.4,34.4l-0.5-0.1l-0.5,0.8l0.3,0.4L24.4,36l-1.5-2.1l0.3-0.5l2.6,0.4L25.4,34.4z M23.6,34l0.5,0.7
					l0.3-0.5L23.6,34z"/>
			</g>
			<g>
				<path class="st2" d="M27.3,31.8l-1.8-0.2l0,0l1.2,1L26.3,33l-1.9-1.5l0.4-0.5l1.8,0.2l0,0l-1.2-1l0.3-0.4l1.9,1.5L27.3,31.8z"/>
			</g>
			<g>
				<path class="st2" d="M28.1,28.2c-0.1,0-0.2,0-0.2,0c-0.1,0-0.2,0.1-0.2,0.1c0,0-0.1,0.1-0.1,0.1c0,0,0,0.1,0,0.1
					c0,0,0,0.1,0,0.1c0,0,0,0.1,0.1,0.1c0,0,0.1,0,0.1,0.1c0,0,0.1,0,0.1,0c0,0,0.1,0,0.1,0c0,0,0.1,0,0.1-0.1
					c0.1,0,0.2-0.1,0.2-0.1c0.1,0,0.2-0.1,0.3-0.1c0.1,0,0.2,0,0.3,0c0.1,0,0.2,0.1,0.3,0.2c0.1,0.1,0.2,0.2,0.2,0.3
					c0,0.1,0,0.2,0,0.3c0,0.1,0,0.2-0.1,0.3c-0.1,0.1-0.1,0.2-0.2,0.3c-0.1,0.1-0.3,0.2-0.4,0.3c-0.2,0.1-0.3,0.1-0.5,0.1l0-0.5
					c0.1,0,0.2,0,0.3,0c0.1,0,0.2-0.1,0.3-0.2c0,0,0.1-0.1,0.1-0.1c0,0,0-0.1,0-0.1c0,0,0-0.1,0-0.1c0,0,0-0.1-0.1-0.1
					c0,0-0.1-0.1-0.1-0.1c0,0-0.1,0-0.1,0c0,0-0.1,0-0.2,0.1c-0.1,0-0.1,0.1-0.2,0.1c-0.1,0-0.1,0.1-0.2,0.1c-0.1,0-0.2,0-0.2,0
					c-0.1,0-0.2,0-0.2,0c-0.1,0-0.2-0.1-0.2-0.2c-0.1-0.1-0.2-0.2-0.2-0.3c0-0.1,0-0.2,0-0.3c0-0.1,0.1-0.2,0.1-0.3
					c0.1-0.1,0.1-0.2,0.2-0.3c0.1-0.1,0.2-0.2,0.3-0.2c0.1-0.1,0.3-0.1,0.4-0.1L28.1,28.2z"/>
			</g>
			<g>
				<path class="st2" d="M32.5,26.8L32,27.2l-1.4-1l0,0l0.6,1.6l-0.5,0.4l-2-1.5l0.5-0.4l1.3,1l0,0l-0.7-1.5l0.5-0.4l1.3,1l0,0
					L31,24.9l0.5-0.4L32.5,26.8z"/>
			</g>
			<g>
				<path class="st2" d="M35.4,23.5c0.1,0.2,0.2,0.3,0.2,0.5c0,0.2,0,0.3,0,0.5c0,0.2-0.1,0.3-0.2,0.4c-0.1,0.1-0.2,0.3-0.4,0.3
					c-0.2,0.1-0.3,0.2-0.5,0.2c-0.2,0-0.3,0-0.5,0c-0.2,0-0.3-0.1-0.4-0.2c-0.1-0.1-0.3-0.2-0.4-0.4c-0.1-0.2-0.2-0.3-0.2-0.5
					c0-0.2,0-0.3,0-0.5c0-0.2,0.1-0.3,0.2-0.4c0.1-0.1,0.2-0.2,0.4-0.3c0.2-0.1,0.3-0.2,0.5-0.2c0.2,0,0.3,0,0.5,0
					c0.2,0,0.3,0.1,0.4,0.2C35.2,23.2,35.3,23.3,35.4,23.5z M34.8,23.8c-0.1-0.1-0.1-0.2-0.2-0.2c-0.1-0.1-0.2-0.1-0.2-0.1
					c-0.1,0-0.2,0-0.3,0c-0.1,0-0.2,0-0.3,0.1c-0.1,0.1-0.2,0.1-0.2,0.2c-0.1,0.1-0.1,0.2-0.1,0.2c0,0.1,0,0.2,0,0.3
					c0,0.1,0.1,0.2,0.1,0.3c0.1,0.1,0.1,0.2,0.2,0.2c0.1,0.1,0.2,0.1,0.2,0.1c0.1,0,0.2,0,0.3,0c0.1,0,0.2,0,0.3-0.1
					c0.1-0.1,0.2-0.1,0.2-0.2c0.1-0.1,0.1-0.2,0.1-0.2c0-0.1,0-0.2,0-0.3S34.9,23.9,34.8,23.8z"/>
			</g>
			<g>
				<path class="st2" d="M38.2,23.5l-0.9-0.7l-0.2,0.1l0.4,0.9L37.1,24l-1-2.2l0.8-0.4c0.1,0,0.2-0.1,0.3-0.1c0.1,0,0.2,0,0.3,0
					c0.1,0,0.2,0.1,0.3,0.1c0.1,0.1,0.2,0.2,0.2,0.3c0.1,0.1,0.1,0.3,0,0.4c0,0.1-0.1,0.3-0.2,0.4l1,0.7L38.2,23.5z M37.5,22
					c0-0.1-0.1-0.1-0.1-0.1c0,0-0.1,0-0.1,0c0,0-0.1,0-0.1,0c0,0-0.1,0-0.1,0L36.8,22l0.2,0.5l0.3-0.1c0,0,0.1,0,0.1-0.1
					c0,0,0.1-0.1,0.1-0.1c0,0,0-0.1,0.1-0.1C37.6,22.1,37.5,22.1,37.5,22z"/>
			</g>
			<g>
				<path class="st2" d="M39.9,22.9l-0.8-2.3l0.6-0.2l0.6,1.8l0.9-0.3l0.2,0.5L39.9,22.9z"/>
			</g>
			<g>
				<path class="st2" d="M44.3,20.4c0,0.2,0,0.4,0,0.6c0,0.2-0.1,0.3-0.2,0.4c-0.1,0.1-0.2,0.2-0.4,0.3c-0.1,0.1-0.3,0.1-0.5,0.2
					l-0.9,0.2l-0.5-2.4l0.9-0.2c0.2,0,0.3-0.1,0.5,0c0.2,0,0.3,0,0.5,0.1c0.1,0.1,0.3,0.2,0.4,0.3C44.1,20,44.2,20.2,44.3,20.4z
					 M43.7,20.6c0-0.1-0.1-0.2-0.1-0.3c-0.1-0.1-0.1-0.1-0.2-0.2C43.2,20,43.1,20,43,20c-0.1,0-0.2,0-0.3,0l-0.3,0.1l0.3,1.4
					l0.3-0.1c0.1,0,0.2-0.1,0.3-0.1c0.1,0,0.2-0.1,0.2-0.2c0.1-0.1,0.1-0.2,0.1-0.3C43.7,20.8,43.7,20.7,43.7,20.6z"/>
			</g>
			<g>
				<path class="st2" d="M48.5,19.4c-0.1-0.1-0.1-0.1-0.2-0.1c-0.1,0-0.2,0-0.2,0c0,0-0.1,0-0.1,0c0,0-0.1,0-0.1,0
					c0,0-0.1,0-0.1,0.1c0,0,0,0.1,0,0.1c0,0,0,0.1,0,0.1c0,0,0,0,0.1,0.1c0,0,0.1,0,0.1,0.1c0,0,0.1,0,0.2,0c0.1,0,0.2,0,0.3,0.1
					c0.1,0,0.2,0.1,0.2,0.1c0.1,0.1,0.1,0.1,0.2,0.2c0.1,0.1,0.1,0.2,0.1,0.3c0,0.1,0,0.3-0.1,0.4c0,0.1-0.1,0.2-0.2,0.3
					c-0.1,0.1-0.2,0.1-0.3,0.2c-0.1,0-0.2,0.1-0.3,0.1c-0.2,0-0.3,0-0.5-0.1s-0.3-0.1-0.4-0.2l0.4-0.4c0.1,0.1,0.1,0.1,0.2,0.2
					c0.1,0,0.2,0.1,0.3,0.1c0,0,0.1,0,0.1,0c0,0,0.1,0,0.1,0s0.1-0.1,0.1-0.1c0,0,0-0.1,0-0.1c0,0,0-0.1,0-0.1c0,0-0.1-0.1-0.1-0.1
					c0,0-0.1,0-0.2-0.1c-0.1,0-0.1,0-0.2-0.1c-0.1,0-0.2,0-0.2-0.1c-0.1,0-0.1-0.1-0.2-0.1c-0.1-0.1-0.1-0.1-0.1-0.2
					c0-0.1-0.1-0.2-0.1-0.3c0-0.1,0-0.2,0.1-0.3c0-0.1,0.1-0.2,0.2-0.2c0.1-0.1,0.2-0.1,0.3-0.1c0.1,0,0.2-0.1,0.3-0.1
					c0.1,0,0.3,0,0.4,0.1c0.1,0,0.3,0.1,0.4,0.2L48.5,19.4z"/>
			</g>
			<g>
				<path class="st2" d="M51.7,21.3l-0.9-1.6l0,0l-0.1,1.6l-0.6,0l0.1-2.4l0.7,0l0.9,1.6l0,0l0.1-1.6l0.6,0l-0.1,2.4L51.7,21.3z"/>
			</g>
			<g>
				<path class="st2" d="M56.3,20.7c0,0.2-0.1,0.4-0.2,0.5c-0.1,0.1-0.2,0.3-0.3,0.3c-0.1,0.1-0.3,0.1-0.5,0.2c-0.2,0-0.3,0-0.5,0
					c-0.2,0-0.4-0.1-0.5-0.2c-0.1-0.1-0.3-0.2-0.4-0.3c-0.1-0.1-0.2-0.3-0.2-0.4c0-0.2,0-0.3,0-0.5c0-0.2,0.1-0.4,0.2-0.5
					c0.1-0.1,0.2-0.3,0.3-0.3c0.1-0.1,0.3-0.1,0.5-0.2c0.2,0,0.3,0,0.5,0c0.2,0,0.4,0.1,0.5,0.2c0.1,0.1,0.3,0.2,0.4,0.3
					c0.1,0.1,0.2,0.3,0.2,0.4C56.3,20.4,56.3,20.5,56.3,20.7z M55.7,20.6c0-0.1,0-0.2,0-0.3c0-0.1,0-0.2-0.1-0.3
					c0-0.1-0.1-0.1-0.2-0.2c-0.1-0.1-0.2-0.1-0.3-0.1c-0.1,0-0.2,0-0.3,0c-0.1,0-0.2,0.1-0.2,0.1c-0.1,0.1-0.1,0.1-0.2,0.2
					c0,0.1-0.1,0.2-0.1,0.3c0,0.1,0,0.2,0,0.3c0,0.1,0,0.2,0.1,0.3c0,0.1,0.1,0.1,0.2,0.2c0.1,0.1,0.2,0.1,0.3,0.1
					c0.1,0,0.2,0,0.3,0c0.1,0,0.2-0.1,0.2-0.1c0.1-0.1,0.1-0.1,0.2-0.2C55.6,20.8,55.6,20.7,55.7,20.6z"/>
			</g>
			<g>
				<path class="st2" d="M59.6,23L59,22.8l0.1-1.7l0,0l-1,1.4l-0.5-0.2l0.1-2.5l0.6,0.2l-0.1,1.6l0,0l0.9-1.4l0.6,0.2l-0.1,1.7l0,0
					l0.9-1.4L61,21L59.6,23z"/>
			</g>
			<g>
				<path class="st2" d="M63.2,23.9c-0.1,0.1-0.1,0.2-0.2,0.3c-0.1,0.1-0.2,0.1-0.3,0.1c-0.1,0-0.2,0-0.3,0c-0.1,0-0.2-0.1-0.3-0.1
					l-0.9-0.4l1.1-2.2l0.9,0.4c0.1,0,0.2,0.1,0.2,0.2c0.1,0.1,0.1,0.1,0.2,0.2c0.1,0.1,0.1,0.2,0.1,0.3c0,0.1,0,0.2-0.1,0.3
					c-0.1,0.1-0.1,0.2-0.2,0.3c-0.1,0-0.2,0.1-0.3,0l0,0c0.1,0,0.1,0.1,0.1,0.1c0,0.1,0.1,0.1,0.1,0.2c0,0.1,0,0.1,0,0.2
					C63.2,23.7,63.2,23.8,63.2,23.9z M62.7,23.6c0-0.1,0-0.2,0-0.2c-0.1-0.1-0.1-0.1-0.2-0.2L62.1,23l-0.2,0.5l0.3,0.1
					c0,0,0.1,0,0.1,0.1c0,0,0.1,0,0.1,0s0.1,0,0.1,0C62.6,23.6,62.6,23.6,62.7,23.6z M63,22.7c0-0.1,0-0.1,0-0.2
					c0-0.1-0.1-0.1-0.2-0.2l-0.3-0.1l-0.2,0.4l0.3,0.1c0.1,0,0.2,0.1,0.3,0.1C62.9,22.8,63,22.7,63,22.7z"/>
			</g>
			<g>
				<path class="st2" d="M66.6,25.4c-0.1,0.2-0.2,0.3-0.4,0.4c-0.1,0.1-0.3,0.2-0.4,0.2c-0.2,0-0.3,0-0.5,0c-0.2,0-0.3-0.1-0.5-0.2
					c-0.2-0.1-0.3-0.2-0.4-0.4c-0.1-0.1-0.2-0.3-0.2-0.4c0-0.2,0-0.3,0-0.5c0-0.2,0.1-0.3,0.2-0.5c0.1-0.2,0.2-0.3,0.4-0.4
					c0.1-0.1,0.3-0.2,0.4-0.2c0.2,0,0.3,0,0.5,0c0.2,0,0.3,0.1,0.5,0.2c0.2,0.1,0.3,0.2,0.4,0.4s0.2,0.3,0.2,0.4c0,0.2,0,0.3,0,0.5
					C66.8,25.1,66.8,25.2,66.6,25.4z M66.1,25c0.1-0.1,0.1-0.2,0.1-0.3c0-0.1,0-0.2,0-0.3c0-0.1,0-0.2-0.1-0.2
					c-0.1-0.1-0.1-0.1-0.2-0.2C65.9,24,65.8,24,65.7,24c-0.1,0-0.2,0-0.3,0c-0.1,0-0.2,0.1-0.2,0.1c-0.1,0.1-0.1,0.1-0.2,0.2
					c-0.1,0.1-0.1,0.2-0.1,0.3c0,0.1,0,0.2,0,0.3c0,0.1,0,0.2,0.1,0.2c0.1,0.1,0.1,0.1,0.2,0.2c0.1,0.1,0.2,0.1,0.3,0.1
					c0.1,0,0.2,0,0.3,0c0.1,0,0.2-0.1,0.2-0.1C66,25.2,66.1,25.1,66.1,25z"/>
			</g>
			<g>
				<path class="st2" d="M68.1,28.1l0.2-0.5L67.6,27l-0.4,0.3l-0.5-0.4l2.3-1.2l0.4,0.4l-0.8,2.5L68.1,28.1z M68.8,26.3L68,26.8
					l0.5,0.4L68.8,26.3z"/>
			</g>
			<g>
				<path class="st2" d="M70.2,30.1l0.3-1l-0.1-0.1l-0.7,0.7l-0.4-0.4l1.7-1.7l0.6,0.7c0.1,0.1,0.2,0.2,0.2,0.3
					c0.1,0.1,0.1,0.2,0.1,0.3c0,0.1,0,0.2,0,0.3c0,0.1-0.1,0.2-0.2,0.3c-0.1,0.1-0.2,0.2-0.4,0.2c-0.1,0-0.3,0-0.4-0.1l-0.3,1.2
					L70.2,30.1z M71.4,28.9c0,0,0.1-0.1,0.1-0.1c0,0,0-0.1,0-0.1c0,0,0-0.1-0.1-0.1c0,0-0.1-0.1-0.1-0.1l-0.2-0.2l-0.4,0.4l0.2,0.2
					c0,0,0.1,0.1,0.1,0.1c0,0,0.1,0.1,0.1,0.1c0,0,0.1,0,0.1,0C71.3,29,71.4,29,71.4,28.9z"/>
			</g>
			<g>
				<path class="st2" d="M73.8,32.5c-0.2,0.1-0.3,0.2-0.5,0.2c-0.2,0-0.3,0-0.5,0c-0.2,0-0.3-0.1-0.4-0.2c-0.1-0.1-0.3-0.2-0.4-0.3
					l-0.6-0.7l1.9-1.5l0.5,0.7c0.1,0.1,0.2,0.3,0.3,0.4c0.1,0.2,0.1,0.3,0.1,0.5c0,0.2,0,0.3-0.1,0.5C74.1,32.2,73.9,32.3,73.8,32.5
					z M73.4,32c0.1-0.1,0.2-0.2,0.2-0.3c0-0.1,0.1-0.2,0.1-0.3c0-0.1,0-0.2-0.1-0.3c0-0.1-0.1-0.2-0.2-0.3l-0.2-0.2l-1.1,0.9
					l0.2,0.2c0.1,0.1,0.1,0.2,0.2,0.2c0.1,0.1,0.2,0.1,0.2,0.1c0.1,0,0.2,0,0.3,0C73.2,32.1,73.3,32.1,73.4,32z"/>
			</g>
			<g>
				<path class="st2" d="M73.5,34.2l2-1.3l0.3,0.5l-2,1.3L73.5,34.2z"/>
			</g>
			<g>
				<path class="st2" d="M75.1,37.1l1-1.6l0,0l-1.4,0.7l-0.3-0.5l2.1-1.1l0.3,0.6l-1,1.6l0,0l1.4-0.7l0.3,0.5l-2.1,1.1L75.1,37.1z"
					/>
			</g>
			<g>
				<path class="st2" d="M76.5,40.5c-0.1-0.1-0.2-0.3-0.2-0.5c-0.1-0.2-0.1-0.4-0.1-0.5c0-0.2,0-0.3,0.1-0.5
					c0.1-0.1,0.2-0.3,0.3-0.4c0.1-0.1,0.3-0.2,0.5-0.3c0.2-0.1,0.4-0.1,0.5-0.1c0.2,0,0.3,0,0.5,0.1c0.1,0.1,0.3,0.2,0.4,0.3
					c0.1,0.1,0.2,0.3,0.3,0.5c0.1,0.2,0.1,0.4,0.1,0.5c0,0.2,0,0.3-0.1,0.5l-0.5-0.2c0-0.1,0.1-0.2,0.1-0.3c0-0.1,0-0.2-0.1-0.3
					c0-0.1-0.1-0.2-0.2-0.2C78,39,77.9,39,77.8,39c-0.1,0-0.2-0.1-0.3-0.1c-0.1,0-0.2,0-0.3,0.1c-0.1,0-0.2,0.1-0.3,0.2
					c-0.1,0.1-0.1,0.1-0.2,0.2c0,0.1-0.1,0.2-0.1,0.3c0,0.1,0,0.2,0.1,0.3c0,0.1,0.1,0.1,0.1,0.2c0,0.1,0.1,0.1,0.1,0.1l0.4-0.2
					l-0.2-0.4l0.4-0.2l0.3,0.9l-1.2,0.4C76.7,40.8,76.6,40.7,76.5,40.5z"/>
			</g>
		</g>
		<g>
			<g>
				<g>
					<path class="st2" d="M25.2,63.4l-0.4-0.9c-0.3-0.7-0.7-0.9-1.3-0.7c-0.5,0.2-0.6,0.6-0.3,1.2l0.1,0.3c-0.6,0.1-1.1-0.2-1.5-0.9
						c-0.4-0.9,0-1.7,1.2-2.3c1.4-0.7,2.3-0.5,2.7,0.4c0.3,0.5,0.1,0.9,0,1.3c-0.1,0.3-0.2,0.6,0,1c0.3,0.6,0.8,0.8,1.4,0.5
						c0.9-0.4,1.2-1.9,0.4-3.6c-1.1-2.3-3.2-3-5.5-1.9c-2.3,1.1-3.1,3-2.2,5c0.5,1,1,1.5,1.8,1.8c-0.5,0.2-0.6,0.6-0.4,1.1
						c0.3,0.5,0.7,0.7,1.3,0.4l1.8-0.8C25.4,64.9,25.6,64.3,25.2,63.4z"/>
				</g>
				<g>
					<path class="st2" d="M31.6,65.6c-1.7-1.8-3.9-1.9-5.8-0.2c-1.9,1.7-2,3.9-0.3,5.8c1.7,1.8,3.9,1.9,5.8,0.2
						C33.1,69.6,33.2,67.4,31.6,65.6z M29.6,69.5c-1.1,1-1.9,1.1-2.6,0.3c-0.7-0.8-0.5-1.6,0.6-2.6c1.1-1,1.9-1.1,2.6-0.3
						C30.8,67.7,30.6,68.5,29.6,69.5z"/>
				</g>
				<g>
					<path class="st2" d="M37.2,70.2c-2.2-1.3-4.3-0.7-5.6,1.5c-1.3,2.2-0.7,4.3,1.4,5.6c2.2,1.3,4.3,0.7,5.6-1.5
						C39.9,73.6,39.4,71.5,37.2,70.2z M36.5,74.5c-0.7,1.3-1.5,1.6-2.4,1.1c-0.9-0.5-1-1.4-0.2-2.6c0.7-1.3,1.5-1.6,2.4-1.1
						C37.2,72.4,37.2,73.3,36.5,74.5z"/>
				</g>
				<g>
					<path class="st2" d="M43.3,72.9l-1.5-0.4c-1.1-0.3-1.5,0-1.8,1.1l-1.1,4.8c-0.3,1.1,0,1.5,1.1,1.8l1,0.2
						c1.4,0.3,2.4,0.6,3.4,0.2c1.1-0.4,1.8-1.4,2.2-2.9c0.4-1.6,0.1-2.7-0.7-3.6C45.3,73.5,44.5,73.2,43.3,72.9z M44.2,77.2
						c-0.3,1.3-0.9,1.8-2.1,1.5l-0.7-0.2l0.9-3.7l0.7,0.2C44.2,75.2,44.5,75.9,44.2,77.2z"/>
				</g>
				<g>
					<path class="st2" d="M58.5,72.2c-0.5,0.1-0.9,0.6-0.8,1.1l0.3,4.3l-1.7-3.9c-0.3-0.6-0.7-0.8-1.4-0.7c-0.7,0.2-1,0.5-1,1.2
						l0.1,4.2l-1.7-3.9c-0.2-0.5-0.7-0.8-1.2-0.7c-0.7,0.2-1.1,0.7-1,1.3c0,0.1,0.1,0.3,0.2,0.5l2.5,5.1c0.3,0.6,0.8,0.9,1.3,0.7
						l0.6-0.1c0.6-0.1,0.8-0.5,0.8-1.2l-0.1-3.8l1.5,3.5c0.3,0.6,0.7,0.9,1.3,0.8l0.6-0.1c0.5-0.1,0.8-0.5,0.9-1.2l0.1-5.6
						c0-0.2,0-0.4,0-0.5C59.8,72.3,59.3,72.1,58.5,72.2z"/>
				</g>
				<g>
					<path class="st2" d="M62.2,69.9c-2.1,1.3-2.6,3.5-1.3,5.6c1.3,2.2,3.5,2.7,5.6,1.4c2.1-1.3,2.6-3.5,1.3-5.6
						C66.5,69.1,64.4,68.6,62.2,69.9z M65.5,75.3c-0.9,0.6-1.7,0.2-2.4-1c-0.8-1.2-0.7-2.1,0.2-2.6c0.9-0.6,1.7-0.2,2.4,1
						C66.4,73.9,66.4,74.7,65.5,75.3z"/>
				</g>
				<g>
					<path class="st2" d="M73.6,64.9c-1.9-1.7-4.1-1.6-5.8,0.3c-1.7,1.9-1.5,4.1,0.4,5.8c1.9,1.7,4.1,1.5,5.8-0.3
						C75.6,68.8,75.5,66.6,73.6,64.9z M72.5,69.4c-0.7,0.8-1.5,0.7-2.6-0.3c-1.1-1-1.3-1.8-0.6-2.6c0.7-0.8,1.5-0.7,2.6,0.3
						C73,67.8,73.2,68.6,72.5,69.4z"/>
				</g>
				<g>
					<path class="st2" d="M76.9,57.4c-1.5-0.7-2.7-0.7-3.7,0.1c-0.6,0.4-1.1,1.2-1.6,2.3L71,61.1c-0.5,1-0.3,1.5,0.7,2l4.5,2
						c1,0.4,1.5,0.2,1.9-0.8l0.4-1c0.6-1.3,1-2.3,0.8-3.3C79.2,58.9,78.4,58,76.9,57.4z M77,62l-0.3,0.6L73.2,61l0.3-0.6
						c0.5-1,1.2-1.2,2.4-0.7C77.2,60.3,77.5,60.9,77,62z"/>
				</g>
			</g>
		</g>
		<g>
			<polyline class="st2" points="51.7,47.2 55.7,40.5 49.5,40.5 49.5,40.5 43.3,40.5 47.1,47.3 			"/>
		</g>
		<g>
			<g>
				<g>
					<polygon class="st1" points="54.3,42.6 53,39.8 45.8,39.8 44.6,42.5 43.8,41.9 45.3,38.7 53.5,38.7 55.1,41.9 					"/>
					<polygon class="st2" points="54,43.9 52.4,40.7 46.4,40.7 44.9,43.9 42.8,42.2 44.8,37.8 54,37.8 56.2,42.2 					"/>
				</g>
			</g>
			<g>
				<g>
					<polygon class="st1" points="54.6,43.1 53,39.8 45.8,39.8 44.4,42.9 43.8,41.9 45.3,38.7 53.5,38.7 55.1,41.9 					"/>
				</g>
			</g>
		</g>
		<g>
			<g>
				<polygon class="st2" points="21.6,48.5 47.3,48.4 41.7,37.4 				"/>
				<path class="st1" d="M19.9,48.9l22-12.1l6.1,12L19.9,48.9z M41.5,38L23.4,48L46.6,48L41.5,38z"/>
			</g>
		</g>
		<g>
			<g>
				<polygon class="st2" points="28.5,43.2 40.8,36.4 41.2,37.1 39.9,37.8 40.3,40.5 39.4,40.9 39.1,38.3 35.5,40.2 35.9,42.8 
					35.1,43.3 34.7,40.7 31,42.8 31.4,45.3 30.5,45.7 30.2,43.2 28.9,43.9 				"/>
				<polygon class="st1" points="29.8,47.1 29.5,44.5 28.6,45.1 27.3,42.9 41.1,35.2 42.4,37.4 40.8,38.3 41.2,40.9 38.7,42.3 
					38.4,39.6 36.5,40.7 36.8,43.3 34.4,44.6 34,42 31.9,43.2 32.3,45.7 				"/>
			</g>
			<g>
				<polygon class="st2" points="28.5,43.2 40.8,36.4 41.2,37.1 39.9,37.8 40.3,40.5 39.4,40.9 39.1,38.3 35.5,40.2 35.9,42.8 
					35.1,43.3 34.7,40.7 31,42.8 31.4,45.2 30.5,45.7 30.2,43.2 28.9,43.9 				"/>
			</g>
		</g>
		<g>
			<g>
				<polygon class="st2" points="77.3,48.5 51.7,48.4 57.2,37.4 				"/>
				<path class="st1" d="M79.1,48.9L51,48.8l6.1-12L79.1,48.9z M52.4,48L75.6,48L57.4,38L52.4,48z"/>
			</g>
		</g>
		<g>
			<g>
				<polygon class="st2" points="70.5,43.3 58.2,36.5 57.8,37.2 59.1,37.9 58.7,40.6 59.5,41.1 59.9,38.4 63.4,40.3 63.1,42.9 
					63.9,43.4 64.2,40.8 68,42.9 67.6,45.4 68.4,45.8 68.8,43.3 70.1,44 				"/>
				<polygon class="st1" points="69.1,47.2 66.7,45.8 67.1,43.3 64.9,42.1 64.6,44.8 62.1,43.4 62.5,40.8 60.6,39.7 60.2,42.4 
					57.8,41.1 58.2,38.4 56.6,37.5 57.9,35.3 71.7,43 70.4,45.2 69.5,44.7 				"/>
			</g>
			<g>
				<polygon class="st2" points="70.5,43.3 58.2,36.5 57.8,37.2 59.1,37.9 58.7,40.6 59.5,41 59.9,38.4 63.4,40.3 63.1,42.9 
					63.9,43.4 64.2,40.8 68,42.9 67.6,45.3 68.5,45.8 68.8,43.3 70.1,44 				"/>
			</g>
		</g>
		<g>
			<rect x="40" y="66.2" class="st2" width="19" height="0.9"/>
		</g>
		<g>
			<g>
				<g>
					<path class="st2" d="M41.8,59.5c0.2-0.3,0.3-0.4,0.3-0.7v-1c0-0.3-0.1-0.4-0.4-0.4h-0.1c-0.3,0-0.4,0.1-0.4,0.4v1.3h-1v-1.3
						c0-0.9,0.4-1.3,1.3-1.3h0.4c0.9,0,1.3,0.4,1.3,1.3v1c0,0.5-0.1,0.9-0.6,1.4l-1.2,1.4c-0.2,0.3-0.3,0.4-0.3,0.8v0.3h2v1H40v-1.3
						c0-0.5,0.1-0.9,0.6-1.4L41.8,59.5z"/>
					<path class="st1" d="M44,64.5h-4.8v-2.1c0-0.7,0.2-1.3,0.7-1.9l0.4-0.5h-1.1v-2.2c0-1.4,0.8-2.2,2.2-2.2h0.4
						c1.4,0,2.2,0.8,2.2,2.2v1c0,0.7-0.2,1.3-0.7,1.9l-0.9,1.1H44V64.5z"/>
				</g>
				<g>
					<path class="st2" d="M47.6,63.8H47c-0.9,0-1.3-0.4-1.3-1.3v-4.6c0-0.9,0.4-1.3,1.3-1.3h0.5c0.9,0,1.3,0.4,1.3,1.3v4.6
						C48.9,63.3,48.5,63.8,47.6,63.8z M47.4,57.5h-0.2c-0.3,0-0.4,0.1-0.4,0.4v4.5c0,0.3,0.1,0.4,0.4,0.4h0.2c0.3,0,0.4-0.1,0.4-0.4
						v-4.5C47.8,57.6,47.7,57.5,47.4,57.5z"/>
					<path class="st1" d="M47.6,64.6H47c-1.4,0-2.2-0.8-2.2-2.2v-4.6c0-1.4,0.8-2.2,2.2-2.2h0.5c1.4,0,2.2,0.8,2.2,2.2v4.6
						C49.8,63.8,48.9,64.6,47.6,64.6z M47.4,57.5v0.8V57.5z"/>
				</g>
				<g>
					<path class="st2" d="M53,63.7H52V58h-0.7v-0.8c0.4,0,0.7-0.2,0.9-0.5l0.1-0.2H53V63.7z"/>
					<path class="st1" d="M53.9,64.5h-2.8v-5.7h-0.7v-2.4l0.8-0.1c0.2,0,0.2,0,0.3-0.2l0.4-0.5h2V64.5z"/>
				</g>
				<g>
					<path class="st2" d="M57.6,56.5c0.9,0,1.3,0.4,1.3,1.3v1.1c0,0.6-0.2,0.9-0.6,1.1c0.4,0.1,0.6,0.4,0.6,0.9v1.5
						c0,0.9-0.4,1.3-1.3,1.3h-0.5c-0.9,0-1.3-0.4-1.3-1.3v-1.5c0-0.5,0.2-0.8,0.6-0.9c-0.4-0.1-0.6-0.4-0.6-1.1v-1.1
						c0-0.9,0.4-1.3,1.3-1.3H57.6z M56.8,62.4c0,0.3,0.1,0.4,0.4,0.4h0.2c0.3,0,0.4-0.1,0.4-0.4v-1.5c0-0.3-0.1-0.4-0.4-0.4h-0.2
						c-0.3,0-0.4,0.1-0.4,0.4V62.4z M57.4,59.6c0.3,0,0.4-0.1,0.4-0.4v-1.3c0-0.3-0.1-0.4-0.4-0.4h-0.2c-0.3,0-0.4,0.1-0.4,0.4v1.3
						c0,0.3,0.1,0.4,0.4,0.4H57.4z"/>
					<path class="st1" d="M57.6,64.6h-0.5c-1.4,0-2.2-0.8-2.2-2.2v-1.5c0-0.4,0.1-0.7,0.2-1c-0.1-0.3-0.2-0.6-0.2-1v-1.1
						c0-1.4,0.8-2.2,2.2-2.2h0.4c1.4,0,2.2,0.8,2.2,2.2v1.1c0,0.4-0.1,0.7-0.2,1c0.1,0.2,0.2,0.6,0.2,1v1.5
						C59.8,63.8,58.9,64.6,57.6,64.6z M57,62.4h0.7H57L57,62.4L57,62.4z M56.8,62.4H57H56.8z M57.4,58.8v0.6V58.8z"/>
				</g>
			</g>
			<g>
				<g>
					<path class="st2" d="M41.8,59.5c0.2-0.3,0.3-0.4,0.3-0.7v-1c0-0.3-0.1-0.4-0.4-0.4h-0.1c-0.3,0-0.4,0.1-0.4,0.4v1.3h-1v-1.3
						c0-0.9,0.4-1.3,1.3-1.3h0.4c0.9,0,1.3,0.4,1.3,1.3v1c0,0.5-0.1,0.9-0.6,1.4l-1.2,1.4c-0.2,0.3-0.3,0.4-0.3,0.8v0.3h2v1H40v-1.3
						c0-0.5,0.1-0.9,0.6-1.4L41.8,59.5z"/>
				</g>
				<g>
					<path class="st2" d="M47.6,63.8H47c-0.9,0-1.3-0.4-1.3-1.3v-4.6c0-0.9,0.4-1.3,1.3-1.3h0.5c0.9,0,1.3,0.4,1.3,1.3v4.6
						C48.9,63.3,48.5,63.8,47.6,63.8z M47.4,57.5h-0.2c-0.3,0-0.4,0.1-0.4,0.4v4.5c0,0.3,0.1,0.4,0.4,0.4h0.2c0.3,0,0.4-0.1,0.4-0.4
						v-4.5C47.8,57.6,47.7,57.5,47.4,57.5z"/>
				</g>
				<g>
					<path class="st2" d="M53,63.7H52V58h-0.7v-0.8c0.4,0,0.7-0.2,0.9-0.5l0.1-0.2H53V63.7z"/>
				</g>
				<g>
					<path class="st2" d="M57.6,56.5c0.9,0,1.3,0.4,1.3,1.3v1.1c0,0.6-0.2,0.9-0.6,1.1c0.4,0.1,0.6,0.4,0.6,0.9v1.5
						c0,0.9-0.4,1.3-1.3,1.3h-0.5c-0.9,0-1.3-0.4-1.3-1.3v-1.5c0-0.5,0.2-0.8,0.6-0.9c-0.4-0.1-0.6-0.4-0.6-1.1v-1.1
						c0-0.9,0.4-1.3,1.3-1.3H57.6z M56.8,62.4c0,0.3,0.1,0.4,0.4,0.4h0.2c0.3,0,0.4-0.1,0.4-0.4v-1.5c0-0.3-0.1-0.4-0.4-0.4h-0.2
						c-0.3,0-0.4,0.1-0.4,0.4V62.4z M57.4,59.6c0.3,0,0.4-0.1,0.4-0.4v-1.3c0-0.3-0.1-0.4-0.4-0.4h-0.2c-0.3,0-0.4,0.1-0.4,0.4v1.3
						c0,0.3,0.1,0.4,0.4,0.4H57.4z"/>
				</g>
			</g>
		</g>
		<g>
			<rect x="23.4" y="53.3" class="st2" width="52.2" height="0.5"/>
		</g>
		<g>
			<g>
				<path class="st2" d="M25,51.5c-0.1,0.1-0.3,0.1-0.4,0.1c-0.1,0-0.3,0-0.4-0.1s-0.2-0.1-0.3-0.2s-0.2-0.2-0.2-0.3
					s-0.1-0.2-0.1-0.4c0-0.1,0-0.3,0.1-0.4c0.1-0.1,0.1-0.2,0.2-0.3s0.2-0.1,0.3-0.2c0.1,0,0.3-0.1,0.4-0.1c0.1,0,0.3,0,0.4,0.1
					c0.1,0,0.2,0.1,0.3,0.2L25,50.3c0-0.1-0.1-0.1-0.2-0.1c-0.1,0-0.1,0-0.2,0c-0.1,0-0.2,0-0.2,0c-0.1,0-0.1,0.1-0.2,0.1
					c0,0-0.1,0.1-0.1,0.2c0,0.1,0,0.1,0,0.2c0,0.1,0,0.1,0,0.2c0,0.1,0.1,0.1,0.1,0.2c0,0,0.1,0.1,0.2,0.1c0.1,0,0.1,0,0.2,0
					c0.1,0,0.2,0,0.2,0c0.1,0,0.1-0.1,0.2-0.1l0.3,0.3C25.2,51.4,25.1,51.4,25,51.5z"/>
			</g>
			<g>
				<path class="st2" d="M27.4,51.5l-0.1-0.3h-0.7l-0.1,0.3h-0.5l0.8-1.7h0.4l0.8,1.7H27.4z M26.9,50.3l-0.2,0.6h0.5L26.9,50.3z"/>
			</g>
			<g>
				<path class="st2" d="M29.7,51.5l-0.4-0.7h-0.2v0.7h-0.4v-1.7h0.7c0.1,0,0.2,0,0.3,0c0.1,0,0.2,0,0.2,0.1c0.1,0,0.1,0.1,0.2,0.2
					c0,0.1,0.1,0.1,0.1,0.2c0,0.1,0,0.2-0.1,0.3c-0.1,0.1-0.2,0.1-0.3,0.2l0.5,0.7H29.7z M29.7,50.3C29.7,50.3,29.7,50.3,29.7,50.3
					c0-0.1-0.1-0.1-0.1-0.2c0,0-0.1,0-0.1,0c0,0-0.1,0-0.1,0h-0.2v0.4h0.2c0,0,0.1,0,0.1,0c0,0,0.1,0,0.1,0c0,0,0.1,0,0.1-0.1
					C29.7,50.4,29.7,50.4,29.7,50.3z"/>
			</g>
			<g>
				<path class="st2" d="M31,51.5v-1.7h0.5v1.7H31z"/>
			</g>
			<g>
				<path class="st2" d="M33.6,51.5l-0.8-1.1h0l0,1.1h-0.4v-1.7H33l0.8,1.1h0l0-1.1h0.4v1.7H33.6z"/>
			</g>
			<g>
				<path class="st2" d="M35.9,50.2v1.3h-0.5v-1.3h-0.5v-0.3h1.5v0.3H35.9z"/>
			</g>
			<g>
				<path class="st2" d="M38.4,51.5v-0.7h-0.7v0.7h-0.5v-1.7h0.5v0.6h0.7v-0.6h0.5v1.7H38.4z"/>
			</g>
			<g>
				<path class="st2" d="M39.8,51.5v-1.7h0.5v1.7H39.8z"/>
			</g>
			<g>
				<path class="st2" d="M42.6,51.5l-0.1-0.3h-0.7l-0.1,0.3H41l0.8-1.7h0.4l0.8,1.7H42.6z M42.1,50.3l-0.2,0.6h0.5L42.1,50.3z"/>
			</g>
			<g>
				<path class="st2" d="M46.3,51.5l-0.1-0.3h-0.7l-0.1,0.3h-0.5l0.8-1.7H46l0.8,1.7H46.3z M45.8,50.3l-0.2,0.6H46L45.8,50.3z"/>
			</g>
			<g>
				<path class="st2" d="M48.2,50.2v1.3h-0.5v-1.3h-0.5v-0.3h1.5v0.3H48.2z"/>
			</g>
			<g>
				<path class="st2" d="M52.5,51.5l0-1.2h0L52,51.5h-0.3l-0.5-1.2h0l0,1.2h-0.4v-1.7h0.7l0.4,1.1h0l0.4-1.1h0.7v1.7H52.5z"/>
			</g>
			<g>
				<path class="st2" d="M54.7,50.2v1.3h-0.5v-1.3h-0.5v-0.3h1.5v0.3H54.7z"/>
			</g>
			<g>
				<path class="st2" d="M56.3,51.3c0,0.1,0,0.1-0.1,0.2s-0.1,0.1-0.2,0.1c0,0-0.1,0-0.1,0c0,0-0.1,0-0.1,0s0,0-0.1-0.1
					c0,0,0-0.1,0-0.1c0,0,0-0.1,0-0.1c0,0,0-0.1,0.1-0.1c0,0,0.1,0,0.1-0.1c0,0,0.1,0,0.1,0c0.1,0,0.1,0,0.2,0.1
					C56.2,51.2,56.3,51.2,56.3,51.3z"/>
			</g>
			<g>
				<path class="st2" d="M59.4,50.3c0,0-0.1-0.1-0.2-0.1c-0.1,0-0.1,0-0.2,0c0,0-0.1,0-0.1,0c0,0-0.1,0-0.1,0s0,0-0.1,0.1
					c0,0,0,0,0,0.1c0,0,0,0.1,0,0.1c0,0,0,0,0.1,0.1c0,0,0.1,0,0.1,0c0,0,0.1,0,0.1,0c0.1,0,0.1,0,0.2,0.1c0.1,0,0.1,0.1,0.2,0.1
					c0.1,0,0.1,0.1,0.1,0.1c0,0.1,0.1,0.1,0.1,0.2c0,0.1,0,0.2-0.1,0.3c0,0.1-0.1,0.1-0.2,0.2c-0.1,0-0.1,0.1-0.2,0.1
					c-0.1,0-0.2,0-0.3,0c-0.1,0-0.3,0-0.4-0.1c-0.1,0-0.2-0.1-0.3-0.2l0.3-0.3c0,0.1,0.1,0.1,0.2,0.1c0.1,0,0.2,0.1,0.2,0.1
					c0,0,0.1,0,0.1,0c0,0,0.1,0,0.1,0c0,0,0,0,0.1-0.1c0,0,0-0.1,0-0.1c0,0,0-0.1,0-0.1c0,0,0,0-0.1-0.1c0,0-0.1,0-0.1-0.1
					c0,0-0.1,0-0.2,0c-0.1,0-0.1,0-0.2-0.1c-0.1,0-0.1-0.1-0.2-0.1c0,0-0.1-0.1-0.1-0.1c0-0.1,0-0.1,0-0.2c0-0.1,0-0.2,0.1-0.2
					c0-0.1,0.1-0.1,0.2-0.2c0.1,0,0.1-0.1,0.2-0.1c0.1,0,0.2,0,0.3,0c0.1,0,0.2,0,0.3,0.1c0.1,0,0.2,0.1,0.3,0.2L59.4,50.3z"/>
			</g>
			<g>
				<path class="st2" d="M61.8,51.5L61,50.4h0l0,1.1h-0.4v-1.7h0.5l0.8,1.1h0l0-1.1h0.4v1.7H61.8z"/>
			</g>
			<g>
				<path class="st2" d="M65.2,50.6c0,0.1,0,0.3-0.1,0.4c-0.1,0.1-0.1,0.2-0.2,0.3c-0.1,0.1-0.2,0.1-0.3,0.2c-0.1,0-0.3,0.1-0.4,0.1
					c-0.1,0-0.3,0-0.4-0.1s-0.2-0.1-0.3-0.2c-0.1-0.1-0.2-0.2-0.2-0.3c-0.1-0.1-0.1-0.2-0.1-0.4c0-0.1,0-0.3,0.1-0.4
					s0.1-0.2,0.2-0.3c0.1-0.1,0.2-0.1,0.3-0.2s0.3-0.1,0.4-0.1c0.1,0,0.3,0,0.4,0.1c0.1,0,0.2,0.1,0.3,0.2c0.1,0.1,0.2,0.2,0.2,0.3
					S65.2,50.5,65.2,50.6z M64.7,50.6c0-0.1,0-0.1,0-0.2c0-0.1-0.1-0.1-0.1-0.2c0,0-0.1-0.1-0.2-0.1c-0.1,0-0.1,0-0.2,0
					c-0.1,0-0.2,0-0.2,0c-0.1,0-0.1,0.1-0.2,0.1c0,0-0.1,0.1-0.1,0.2c0,0.1,0,0.1,0,0.2c0,0.1,0,0.1,0,0.2c0,0.1,0.1,0.1,0.1,0.2
					c0,0,0.1,0.1,0.2,0.1c0.1,0,0.1,0,0.2,0c0.1,0,0.2,0,0.2,0c0.1,0,0.1-0.1,0.2-0.1c0,0,0.1-0.1,0.1-0.2
					C64.7,50.8,64.7,50.7,64.7,50.6z"/>
			</g>
			<g>
				<path class="st2" d="M68,51.5h-0.5l-0.4-1.1h0l-0.4,1.1h-0.5l-0.5-1.7h0.5l0.3,1.1h0l0.3-1.1h0.5l0.3,1.1h0l0.3-1.1h0.5L68,51.5
					z"/>
			</g>
			<g>
				<path class="st2" d="M69.4,51.8h-0.4l0.2-0.7h0.4L69.4,51.8z"/>
			</g>
			<g>
				<path class="st2" d="M72.8,51.5h-0.5l-0.7-1.7h0.5l0.4,1.2h0l0.4-1.2h0.5L72.8,51.5z"/>
			</g>
			<g>
				<path class="st2" d="M75.1,50.2v1.3h-0.5v-1.3h-0.5v-0.3h1.5v0.3H75.1z"/>
			</g>
		</g>
		<g>
			<g>
				<path class="st2" d="M46.3,31.6c0,0.1,0,0.3-0.1,0.4c-0.1,0.1-0.1,0.2-0.2,0.2c-0.1,0.1-0.2,0.1-0.3,0.1c-0.1,0-0.2,0-0.4,0
					h-0.3v0.9h-0.6v-2.4h0.9c0.1,0,0.3,0,0.4,0c0.1,0,0.2,0.1,0.3,0.1c0.1,0.1,0.2,0.1,0.2,0.2C46.3,31.3,46.3,31.4,46.3,31.6z
					 M45.7,31.6c0-0.1,0-0.1,0-0.1c0,0-0.1-0.1-0.1-0.1c0,0-0.1,0-0.1,0c0,0-0.1,0-0.2,0h-0.3v0.6h0.2c0.1,0,0.1,0,0.2,0
					c0,0,0.1,0,0.1,0c0,0,0.1-0.1,0.1-0.1C45.7,31.7,45.7,31.6,45.7,31.6z"/>
			</g>
			<g>
				<path class="st2" d="M48.6,33.2l-0.2-0.5h-0.9l-0.2,0.5h-0.6l1-2.4h0.6l1,2.4H48.6z M47.9,31.5l-0.3,0.8h0.6L47.9,31.5z"/>
			</g>
			<g>
				<path class="st2" d="M51.2,33.2l-0.5-1h-0.2v1H50v-2.4h0.9c0.1,0,0.2,0,0.3,0c0.1,0,0.2,0.1,0.3,0.1c0.1,0.1,0.2,0.1,0.2,0.2
					c0.1,0.1,0.1,0.2,0.1,0.3c0,0.2,0,0.3-0.1,0.4c-0.1,0.1-0.2,0.2-0.4,0.2l0.6,1H51.2z M51.2,31.6c0-0.1,0-0.1,0-0.1
					c0,0-0.1-0.1-0.1-0.1c0,0-0.1,0-0.1,0c0,0-0.1,0-0.1,0h-0.3v0.6h0.3c0,0,0.1,0,0.1,0c0.1,0,0.1,0,0.1,0c0,0,0.1,0,0.1-0.1
					C51.2,31.7,51.2,31.6,51.2,31.6z"/>
			</g>
			<g>
				<path class="st2" d="M54.2,33.2l-0.9-1.1h0v1.1h-0.6v-2.4h0.6v1h0l0.9-1h0.7l-1,1.1l1.1,1.3H54.2z"/>
			</g>
		</g>
		<g>
			<polygon class="st2" points="32,60.1 35.7,58.2 35.7,60.1 35.7,60.1 35.7,62 			"/>
		</g>
		<g>
			<polygon class="st2" points="67,60.1 63.2,58.2 63.2,60.1 63.2,60.1 63.2,62 			"/>
		</g>
		<g>
			<rect x="35.4" y="31.5" class="st2" width="4.2" height="0.9"/>
		</g>
		<g>
			<rect x="59.3" y="31.5" class="st2" width="4.2" height="0.9"/>
		</g>
	</g>
</g>
</svg>
